<svg width="64" height="64" viewBox="0 0 64 64" fill="none" xmlns="http://www.w3.org/2000/svg">
<g clip-path="url(#clip0_41_240)">
<path d="M53.3333 0H10.6666C9.2521 0 7.89554 0.561903 6.89535 1.5621C5.89515 2.56229 5.33325 3.91885 5.33325 5.33333V58.6667C5.33325 60.0812 5.89515 61.4377 6.89535 62.4379C7.89554 63.4381 9.2521 64 10.6666 64H53.3333C54.7477 64 56.1043 63.4381 57.1045 62.4379C58.1047 61.4377 58.6666 60.0812 58.6666 58.6667V5.33333C58.6666 3.91885 58.1047 2.56229 57.1045 1.5621C56.1043 0.561903 54.7477 0 53.3333 0V0ZM53.3333 58.6667H10.6666V5.33333H53.3333V58.6667Z" fill="black"/>
<path d="M16 10.6666H48.0001V16H16V10.6666ZM16 21.3333H34.6667V26.6666H16V21.3333Z" fill="black"/>
<path d="M42.6667 53.3333H21.3333L32 45.3333L42.6667 53.3333Z" fill="#EE0033"/>
<path d="M50.6667 34.6666V50.6666L37.3333 42.6666L50.6667 34.6666Z" fill="#EE0033"/>
<path d="M16 50.6666V34.6666L26.6667 42.6666L16 50.6666Z" fill="#EE0033"/>
<path d="M21.3333 32H42.6667L32 40L21.3333 32Z" fill="#EE0033"/>
</g>
<defs>
<clipPath id="clip0_41_240">
<rect width="64" height="64" fill="white"/>
</clipPath>
</defs>
</svg>
