<svg width="70" height="70" viewBox="0 0 70 70" fill="none" xmlns="http://www.w3.org/2000/svg">
<circle cx="35" cy="35" r="35" fill="#FDD4DC"/>
<path d="M34.125 32C37.1626 32 39.625 29.5376 39.625 26.5C39.625 23.4624 37.1626 21 34.125 21C31.0874 21 28.625 23.4624 28.625 26.5C28.625 29.5376 31.0874 32 34.125 32Z" stroke="#5C5C5C" stroke-width="2"/>
<path d="M38.9375 36.8606C37.5213 36.3931 35.8781 36.125 34.125 36.125C28.8093 36.125 24.5 38.5862 24.5 41.625C24.5 42.0994 24.5 42.56 24.5371 43M35.5 47.1071C35.0646 47.119 34.6062 47.125 34.125 47.125C31.7572 47.125 29.9725 46.9765 28.625 46.7056" stroke="#5C5C5C" stroke-width="2" stroke-linecap="round"/>
<path d="M42.375 48.5C44.6532 48.5 46.5 46.6532 46.5 44.375C46.5 42.0968 44.6532 40.25 42.375 40.25C40.0968 40.25 38.25 42.0968 38.25 44.375C38.25 46.6532 40.0968 48.5 42.375 48.5Z" stroke="#EA0029" stroke-width="1.5"/>
<path d="M45.0563 41.6938L39.6938 47.0563" stroke="#EA0029" stroke-width="1.5" stroke-linecap="round"/>
</svg>
