<svg width="70" height="70" viewBox="0 0 70 70" fill="none" xmlns="http://www.w3.org/2000/svg">
<circle cx="35" cy="35" r="35" fill="#FDD4DC"/>
<g clip-path="url(#clip0_626_3108)">
<path d="M35 46.1071V50.8214M40.8928 43.75V48.4643M29.1071 43.75V48.4643M24.9821 30.1964C24.8258 30.1964 24.6759 30.1343 24.5654 30.0238C24.4549 29.9133 24.3928 29.7634 24.3928 29.6071C24.3928 29.4509 24.4549 29.301 24.5654 29.1905C24.6759 29.0799 24.8258 29.0179 24.9821 29.0179C25.1384 29.0179 25.2883 29.0799 25.3988 29.1905C25.5093 29.301 25.5714 29.4509 25.5714 29.6071C25.5714 29.7634 25.5093 29.9133 25.3988 30.0238C25.2883 30.1343 25.1384 30.1964 24.9821 30.1964ZM45.0178 30.1964C44.8615 30.1964 44.7116 30.1343 44.6011 30.0238C44.4906 29.9133 44.4285 29.7634 44.4285 29.6071C44.4285 29.4509 44.4906 29.301 44.6011 29.1905C44.7116 29.0799 44.8615 29.0179 45.0178 29.0179C45.1741 29.0179 45.324 29.0799 45.4345 29.1905C45.545 29.301 45.6071 29.4509 45.6071 29.6071C45.6071 29.7634 45.545 29.9133 45.4345 30.0238C45.324 30.1343 45.1741 30.1964 45.0178 30.1964Z" stroke="#5C5C5C" stroke-width="2" stroke-linecap="round" stroke-linejoin="round"/>
<path d="M37.5079 26.9883C37.3736 26.6044 37.123 26.2719 36.791 26.037C36.4589 25.8021 36.0619 25.6765 35.6552 25.6778H34.1348C33.7036 25.6793 33.2881 25.8396 32.9677 26.1281C32.6472 26.4166 32.4443 26.8131 32.3976 27.2417C32.351 27.6704 32.4639 28.1012 32.7148 28.4519C32.9656 28.8025 33.3369 29.0485 33.7577 29.1428L36.0747 29.6519C36.5466 29.7571 36.9631 30.0325 37.2447 30.4254C37.5263 30.8183 37.6533 31.3011 37.6014 31.7817C37.5495 32.2623 37.3223 32.707 36.9633 33.0307C36.6043 33.3544 36.1386 33.5344 35.6552 33.5365H34.3446C33.9379 33.5377 33.5409 33.4122 33.2088 33.1773C32.8767 32.9424 32.6262 32.6098 32.4919 32.2259M34.9999 25.6778V23.7143M34.9999 35.5V33.5365" stroke="#EA0029" stroke-width="2" stroke-linecap="round" stroke-linejoin="round"/>
<path d="M47.9643 20.1786H22.0357C21.4106 20.1786 20.811 20.4269 20.369 20.8689C19.9269 21.311 19.6786 21.9105 19.6786 22.5357V36.6786C19.6786 37.3037 19.9269 37.9033 20.369 38.3453C20.811 38.7874 21.4106 39.0357 22.0357 39.0357H47.9643C48.5895 39.0357 49.189 38.7874 49.6311 38.3453C50.0731 37.9033 50.3214 37.3037 50.3214 36.6786V22.5357C50.3214 21.9105 50.0731 21.311 49.6311 20.8689C49.189 20.4269 48.5895 20.1786 47.9643 20.1786Z" stroke="#5C5C5C" stroke-width="2" stroke-linecap="round" stroke-linejoin="round"/>
</g>
<defs>
<clipPath id="clip0_626_3108">
<rect width="33" height="33" fill="white" transform="translate(18.5 19)"/>
</clipPath>
</defs>
</svg>
