<svg width="70" height="70" viewBox="0 0 70 70" fill="none" xmlns="http://www.w3.org/2000/svg">
<circle cx="35" cy="35" r="35" fill="#FDD4DC"/>
<path d="M23.263 47.237C25.2787 49.25 28.5182 49.25 35 49.25C41.4818 49.25 44.7226 49.25 46.7356 47.2356C48.75 45.224 48.75 41.9818 48.75 35.5C48.75 35.0311 48.75 34.796 48.7294 34.5568C48.6278 33.4324 48.186 32.3657 47.463 31.4988C47.2518 31.2582 47.0302 31.027 46.7989 30.8058L39.6943 23.7011C39.4719 23.4709 39.2408 23.2493 39.0012 23.037C38.1341 22.3144 37.0674 21.8732 35.9432 21.772C35.704 21.75 35.4703 21.75 35 21.75C28.5182 21.75 25.2774 21.75 23.263 23.763C21.25 25.7787 21.25 29.0182 21.25 35.5C21.25 41.9818 21.25 45.224 23.263 47.237Z" stroke="#5C5C5C" stroke-width="1.5"/>
<path d="M27.2642 39.75H24.9439V33.2045H27.2834C27.9418 33.2045 28.5085 33.3356 28.9837 33.5977C29.4588 33.8576 29.8242 34.2315 30.0799 34.7195C30.3377 35.2074 30.4666 35.7912 30.4666 36.4709C30.4666 37.1527 30.3377 37.7386 30.0799 38.2287C29.8242 38.7187 29.4567 39.0948 28.9773 39.3569C28.5 39.619 27.929 39.75 27.2642 39.75ZM26.3278 38.5643H27.2067C27.6158 38.5643 27.9599 38.4918 28.239 38.3469C28.5202 38.1999 28.7312 37.973 28.8718 37.6662C29.0146 37.3572 29.0859 36.9588 29.0859 36.4709C29.0859 35.9872 29.0146 35.592 28.8718 35.2852C28.7312 34.9783 28.5213 34.7525 28.2422 34.6076C27.9631 34.4627 27.619 34.3903 27.2099 34.3903H26.3278V38.5643ZM32.866 39.8427C32.5528 39.8427 32.2737 39.7884 32.0287 39.6797C31.7836 39.5689 31.5898 39.4059 31.447 39.1907C31.3064 38.9734 31.2361 38.7028 31.2361 38.3789C31.2361 38.1062 31.2861 37.8771 31.3863 37.6918C31.4864 37.5064 31.6228 37.3572 31.7954 37.2443C31.968 37.1314 32.164 37.0462 32.3834 36.9886C32.605 36.9311 32.8373 36.8906 33.0802 36.8672C33.3657 36.8374 33.5958 36.8097 33.7705 36.7841C33.9452 36.7564 34.072 36.7159 34.1508 36.6626C34.2297 36.6094 34.2691 36.5305 34.2691 36.4261V36.407C34.2691 36.2045 34.2052 36.0479 34.0773 35.9371C33.9516 35.8263 33.7726 35.771 33.5404 35.771C33.2954 35.771 33.1004 35.8253 32.9555 35.9339C32.8106 36.0405 32.7148 36.1747 32.6679 36.3366L31.4086 36.2344C31.4726 35.9361 31.5983 35.6783 31.7858 35.4609C31.9733 35.2415 32.2151 35.0732 32.5113 34.956C32.8096 34.8366 33.1547 34.777 33.5468 34.777C33.8195 34.777 34.0805 34.8089 34.3298 34.8729C34.5812 34.9368 34.8039 35.0359 34.9978 35.1701C35.1938 35.3043 35.3483 35.4769 35.4612 35.6879C35.5741 35.8967 35.6306 36.147 35.6306 36.4389V39.75H34.3394V39.0692H34.301C34.2222 39.2227 34.1167 39.358 33.9846 39.4751C33.8525 39.5902 33.6938 39.6808 33.5084 39.7468C33.3231 39.8107 33.1089 39.8427 32.866 39.8427ZM33.2559 38.9031C33.4562 38.9031 33.6331 38.8636 33.7865 38.7848C33.9399 38.7038 34.0603 38.5952 34.1476 38.4588C34.235 38.3224 34.2787 38.168 34.2787 37.9954V37.4744C34.2361 37.5021 34.1775 37.5277 34.1029 37.5511C34.0305 37.5724 33.9484 37.5927 33.8568 37.6119C33.7652 37.6289 33.6736 37.6449 33.5819 37.6598C33.4903 37.6726 33.4072 37.6843 33.3327 37.695C33.1729 37.7184 33.0333 37.7557 32.914 37.8068C32.7947 37.858 32.702 37.9272 32.6359 38.0146C32.5699 38.0998 32.5368 38.2063 32.5368 38.3342C32.5368 38.5195 32.604 38.6612 32.7382 38.7592C32.8746 38.8551 33.0471 38.9031 33.2559 38.9031ZM39.298 34.8409V35.8636H36.3417V34.8409H39.298ZM37.0129 33.6648H38.3744V38.2415C38.3744 38.3672 38.3936 38.4652 38.4319 38.5355C38.4703 38.6037 38.5235 38.6516 38.5917 38.6793C38.662 38.707 38.743 38.7209 38.8346 38.7209C38.8985 38.7209 38.9624 38.7156 39.0264 38.7049C39.0903 38.6921 39.1393 38.6825 39.1734 38.6761L39.3875 39.6893C39.3193 39.7106 39.2235 39.7351 39.0999 39.7628C38.9763 39.7926 38.8261 39.8107 38.6492 39.8171C38.3211 39.8299 38.0335 39.7862 37.7863 39.6861C37.5413 39.5859 37.3506 39.4304 37.2142 39.2195C37.0779 39.0085 37.0107 38.7422 37.0129 38.4205V33.6648ZM41.5848 39.8427C41.2716 39.8427 40.9925 39.7884 40.7474 39.6797C40.5024 39.5689 40.3085 39.4059 40.1657 39.1907C40.0251 38.9734 39.9548 38.7028 39.9548 38.3789C39.9548 38.1062 40.0049 37.8771 40.105 37.6918C40.2052 37.5064 40.3415 37.3572 40.5141 37.2443C40.6867 37.1314 40.8827 37.0462 41.1022 36.9886C41.3238 36.9311 41.556 36.8906 41.7989 36.8672C42.0844 36.8374 42.3145 36.8097 42.4893 36.7841C42.664 36.7564 42.7907 36.7159 42.8696 36.6626C42.9484 36.6094 42.9878 36.5305 42.9878 36.4261V36.407C42.9878 36.2045 42.9239 36.0479 42.7961 35.9371C42.6704 35.8263 42.4914 35.771 42.2591 35.771C42.0141 35.771 41.8192 35.8253 41.6743 35.9339C41.5294 36.0405 41.4335 36.1747 41.3866 36.3366L40.1274 36.2344C40.1913 35.9361 40.317 35.6783 40.5045 35.4609C40.692 35.2415 40.9339 35.0732 41.23 34.956C41.5283 34.8366 41.8735 34.777 42.2655 34.777C42.5383 34.777 42.7993 34.8089 43.0486 34.8729C43.3 34.9368 43.5226 35.0359 43.7165 35.1701C43.9126 35.3043 44.067 35.4769 44.18 35.6879C44.2929 35.8967 44.3493 36.147 44.3493 36.4389V39.75H43.0582V39.0692H43.0198C42.941 39.2227 42.8355 39.358 42.7034 39.4751C42.5713 39.5902 42.4126 39.6808 42.2272 39.7468C42.0418 39.8107 41.8277 39.8427 41.5848 39.8427ZM41.9747 38.9031C42.175 38.9031 42.3518 38.8636 42.5052 38.7848C42.6586 38.7038 42.779 38.5952 42.8664 38.4588C42.9537 38.3224 42.9974 38.168 42.9974 37.9954V37.4744C42.9548 37.5021 42.8962 37.5277 42.8216 37.5511C42.7492 37.5724 42.6672 37.5927 42.5756 37.6119C42.4839 37.6289 42.3923 37.6449 42.3007 37.6598C42.2091 37.6726 42.126 37.6843 42.0514 37.695C41.8916 37.7184 41.752 37.7557 41.6327 37.8068C41.5134 37.858 41.4207 37.9272 41.3547 38.0146C41.2886 38.0998 41.2556 38.2063 41.2556 38.3342C41.2556 38.5195 41.3227 38.6612 41.4569 38.7592C41.5933 38.8551 41.7659 38.9031 41.9747 38.9031Z" fill="#EA0029"/>
</svg>
