<svg width="70" height="70" viewBox="0 0 70 70" fill="none" xmlns="http://www.w3.org/2000/svg">
<circle cx="35" cy="35" r="35" fill="#FDD4DC"/>
<path d="M37.4573 25.6562H37.5011C37.7912 25.6562 38.0694 25.7715 38.2745 25.9766C38.4796 26.1817 38.5948 26.4599 38.5948 26.75C38.5948 27.0401 38.4796 27.3183 38.2745 27.5234C38.0694 27.7285 37.7912 27.8437 37.5011 27.8437C35.6169 27.8437 34.1834 27.8438 33.0415 27.9356C31.8967 28.0275 31.1705 28.2025 30.6557 28.4767C29.5894 29.0546 28.7333 29.955 28.21 31.0492C27.933 31.6237 27.7667 32.3325 27.6807 33.4379C27.5932 34.5521 27.5932 35.9725 27.5932 37.95V38.1104L29.2265 36.4771C29.4338 36.2839 29.7081 36.1787 29.9914 36.1837C30.2748 36.1887 30.5451 36.3035 30.7455 36.5039C30.9459 36.7043 31.0607 36.9746 31.0657 37.258C31.0707 37.5413 30.9655 37.8156 30.7723 38.0229L27.2723 41.5229C27.1675 41.6276 27.0426 41.71 26.905 41.7649C26.7674 41.8199 26.6201 41.8463 26.472 41.8427C26.3239 41.839 26.1781 41.8052 26.0434 41.7435C25.9088 41.6818 25.788 41.5933 25.6886 41.4835L22.5225 37.9835C22.3365 37.7672 22.2424 37.4868 22.2602 37.202C22.278 36.9172 22.4064 36.6507 22.618 36.4593C22.8296 36.2679 23.1076 36.1667 23.3928 36.1774C23.6779 36.1881 23.9475 36.3097 24.1442 36.5165L25.4057 37.9106V37.9033C25.4057 35.9827 25.4057 34.4762 25.5005 33.2673C25.5967 32.0365 25.795 31.0185 26.2427 30.094C26.9677 28.585 28.1515 27.3441 29.6246 26.5487C30.5361 26.0602 31.6225 25.8546 32.868 25.7554C34.1075 25.6562 35.6257 25.6562 37.4573 25.6562Z" fill="#5C5C5C"/>
<path d="M43.5268 29.1563C43.6752 29.1599 43.8213 29.1938 43.9562 29.2557C44.091 29.3176 44.2119 29.4063 44.3114 29.5165L47.4774 33.0165C47.6635 33.2328 47.7576 33.5133 47.7398 33.798C47.7219 34.0828 47.5935 34.3493 47.3819 34.5407C47.1704 34.7321 46.8924 34.8333 46.6072 34.8226C46.3221 34.8119 46.0524 34.6903 45.8558 34.4836L44.5929 33.0894V33.0967C44.5929 35.0173 44.5929 36.5238 44.4995 37.7327C44.4033 38.9636 44.2049 39.9815 43.7572 40.9061C43.0322 42.415 41.8485 43.6559 40.3754 44.4513C39.4639 44.9398 38.3774 45.1454 37.132 45.2446C35.8924 45.3438 34.3743 45.3438 32.5427 45.3438H32.4989C32.2088 45.3438 31.9306 45.2285 31.7255 45.0234C31.5204 44.8183 31.4052 44.5401 31.4052 44.25C31.4052 43.9599 31.5204 43.6817 31.7255 43.4766C31.9306 43.2715 32.2088 43.1563 32.4989 43.1563C34.3831 43.1563 35.8166 43.1563 36.9585 43.0644C38.1018 42.9725 38.8295 42.7975 39.3443 42.5219C40.4104 41.9444 41.2664 41.0444 41.7899 39.9508C42.067 39.3763 42.2333 38.6675 42.3193 37.5636C42.4054 36.4479 42.4068 35.0261 42.4068 33.05V32.8896L40.7735 34.5229C40.5661 34.7161 40.2919 34.8213 40.0086 34.8163C39.7252 34.8113 39.4548 34.6965 39.2545 34.4961C39.0541 34.2957 38.9393 34.0254 38.9343 33.742C38.9293 33.4587 39.0345 33.1844 39.2277 32.9771L42.7277 29.4771C42.8322 29.3723 42.957 29.2899 43.0943 29.2347C43.2317 29.1796 43.3788 29.1529 43.5268 29.1563Z" fill="#EA0029"/>
</svg>
