<svg width="70" height="70" viewBox="0 0 70 70" fill="none" xmlns="http://www.w3.org/2000/svg">
<circle cx="35" cy="35" r="35" fill="#FDD4DC"/>
<path d="M23.5 43.625C23.5 44.3543 23.7897 45.0538 24.3055 45.5695C24.8212 46.0853 25.5207 46.375 26.25 46.375C26.9793 46.375 27.6788 46.0853 28.1945 45.5695C28.7103 45.0538 29 44.3543 29 43.625C29 42.8957 28.7103 42.1962 28.1945 41.6805C27.6788 41.1647 26.9793 40.875 26.25 40.875C25.5207 40.875 24.8212 41.1647 24.3055 41.6805C23.7897 42.1962 23.5 42.8957 23.5 43.625ZM42.75 27.125C42.75 27.8543 43.0397 28.5538 43.5555 29.0695C44.0712 29.5853 44.7707 29.875 45.5 29.875C46.2293 29.875 46.9288 29.5853 47.4445 29.0695C47.9603 28.5538 48.25 27.8543 48.25 27.125C48.25 26.3957 47.9603 25.6962 47.4445 25.1805C46.9288 24.6647 46.2293 24.375 45.5 24.375C44.7707 24.375 44.0712 24.6647 43.5555 25.1805C43.0397 25.6962 42.75 26.3957 42.75 27.125Z" stroke="#5C5C5C" stroke-width="2" stroke-linecap="round" stroke-linejoin="round"/>
<path d="M45.5 29.875V36.75C45.5 37.5667 45.357 38.3505 45.0957 39.0765M42.7692 42.2362C41.5766 43.1395 40.121 43.6272 38.625 43.625H34.5M34.5 43.625L38.625 39.5M34.5 43.625L38.625 47.75M26.25 40.875V34C26.25 31.756 27.3253 29.7622 28.989 28.5M33.125 27.125H37.25M37.25 27.125L33.125 23M37.25 27.125L35.1889 29.1861" stroke="#5C5C5C" stroke-width="2" stroke-linecap="round" stroke-linejoin="round"/>
<path d="M23.5 23L48.25 47.75" stroke="#EA0029" stroke-width="2" stroke-linecap="round" stroke-linejoin="round"/>
</svg>
