<svg width="70" height="70" viewBox="0 0 70 70" fill="none" xmlns="http://www.w3.org/2000/svg">
<circle cx="35" cy="35" r="35" fill="#FDD4DC"/>
<path d="M35.3333 50.6667C39.5326 50.6667 43.5599 48.9985 46.5292 46.0292C49.4985 43.0599 51.1667 39.0326 51.1667 34.8333C51.1667 30.6341 49.4985 26.6068 46.5292 23.6375C43.5599 20.6681 39.5326 19 35.3333 19C31.1341 19 27.1068 20.6681 24.1375 23.6375C21.1681 26.6068 19.5 30.6341 19.5 34.8333C19.5 39.0326 21.1681 43.0599 24.1375 46.0292C27.1068 48.9985 31.1341 50.6667 35.3333 50.6667Z" stroke="#5C5C5C" stroke-width="2" stroke-linecap="round" stroke-linejoin="round"/>
<path d="M30.5 39.4302C30.6063 40.6191 31.1897 41.72 32.1247 42.4963C33.0597 43.2726 34.2716 43.6624 35.5 43.5818C39.5333 43.5818 40.5 41.3364 40.5 39.4302C40.5 37.5241 38.8333 35.5048 35.5 35.5048C32.1667 35.5048 30.5 34.2287 30.5 31.6279C30.5311 31.0296 30.6867 30.4436 30.9575 29.9051C31.2283 29.3665 31.6087 28.8867 32.0758 28.4943C32.5429 28.102 33.087 27.8052 33.6755 27.622C34.2639 27.4387 34.8845 27.3727 35.5 27.4279C36.7292 27.3766 37.932 27.7832 38.8618 28.5642C39.7915 29.3451 40.3777 30.4414 40.5 31.6279M35.5 46V43.9M35.5 25V27.4215" stroke="#EA0029" stroke-width="2" stroke-linecap="round" stroke-linejoin="round"/>
</svg>
