<svg width="25" height="24" viewBox="0 0 25 24" fill="none" xmlns="http://www.w3.org/2000/svg">
<g clip-path="url(#clip0_83_12034)">
<path d="M23.9235 19C23.9235 20.0609 23.502 21.0783 22.7519 21.8284C22.0017 22.5786 20.9843 23 19.9235 23H17.9235V21H19.9235C20.4539 21 20.9626 20.7893 21.3377 20.4142C21.7127 20.0391 21.9235 19.5304 21.9235 19C21.9235 18.4696 21.7127 17.9609 21.3377 17.5858C20.9626 17.2107 20.4539 17 19.9235 17H17.9235V15H19.9235C20.9843 15 22.0017 15.4214 22.7519 16.1716C23.502 16.9217 23.9235 17.9391 23.9235 19ZM9.92346 19C9.92346 17.9391 10.3449 16.9217 11.095 16.1716C11.8452 15.4214 12.8626 15 13.9235 15H15.9235V17H13.9235C13.393 17 12.8843 17.2107 12.5092 17.5858C12.1342 17.9609 11.9235 18.4696 11.9235 19C11.9235 19.5304 12.1342 20.0391 12.5092 20.4142C12.8843 20.7893 13.393 21 13.9235 21H15.9235V23H13.9235C12.8626 23 11.8452 22.5786 11.095 21.8284C10.3449 21.0783 9.92346 20.0609 9.92346 19Z" fill="black"/>
<path d="M14.9235 18H18.9235V20H14.9235V18ZM9.92346 5C9.33012 5 8.7501 5.17595 8.25675 5.50559C7.7634 5.83524 7.37889 6.30377 7.15182 6.85195C6.92476 7.40013 6.86535 8.00333 6.98111 8.58527C7.09686 9.16721 7.38258 9.70176 7.80214 10.1213C8.2217 10.5409 8.75625 10.8266 9.33819 10.9424C9.92013 11.0581 10.5233 10.9987 11.0715 10.7716C11.6197 10.5446 12.0882 10.1601 12.4179 9.66671C12.7475 9.17336 12.9235 8.59334 12.9235 8C12.9211 7.20508 12.6043 6.4434 12.0422 5.8813C11.4801 5.31921 10.7184 5.00237 9.92346 5ZM9.92346 9C9.72568 9 9.53234 8.94135 9.36789 8.83147C9.20344 8.72159 9.07527 8.56541 8.99958 8.38268C8.92389 8.19996 8.90409 7.99889 8.94268 7.80491C8.98126 7.61093 9.0765 7.43275 9.21636 7.29289C9.35621 7.15304 9.53439 7.0578 9.72837 7.01921C9.92235 6.98063 10.1234 7.00043 10.3061 7.07612C10.4889 7.15181 10.6451 7.27998 10.7549 7.44443C10.8648 7.60888 10.9235 7.80222 10.9235 8C10.9227 8.26497 10.8171 8.51887 10.6297 8.70623C10.4423 8.8936 10.1884 8.99921 9.92346 9ZM6.23346 15C7.33459 14.2891 8.61295 13.9011 9.92346 13.88C10.184 13.8833 10.4439 13.9047 10.7015 13.944C11.6629 13.3273 12.7812 12.9997 13.9235 13H14.1775C12.8672 12.2989 11.4093 11.9185 9.92346 11.89C7.89346 11.89 3.92346 12.96 3.92346 15.47V17H8.27246C8.53387 16.2621 8.93749 15.5826 9.46046 15H6.23346Z" fill="black"/>
<path d="M16.9235 2.0002H12.7435C12.5387 1.41564 12.1573 0.909159 11.6521 0.550821C11.1469 0.192483 10.5428 0 9.92346 0C9.30408 0 8.7 0.192483 8.19479 0.550821C7.68959 0.909159 7.30822 1.41564 7.10346 2.0002H2.92346C2.39352 2.00179 1.88573 2.21301 1.511 2.58774C1.13627 2.96247 0.925045 3.47026 0.923462 4.0002L0.923462 18.0002C0.925045 18.5301 1.13627 19.0379 1.511 19.4127C1.88573 19.7874 2.39352 19.9986 2.92346 20.0002H8.06446C7.87589 19.3469 7.87589 18.6535 8.06446 18.0002H2.92346V4.0002H16.9235V13.0002H18.9235V4.0002C18.9219 3.47026 18.7107 2.96247 18.3359 2.58774C17.9612 2.21301 17.4534 2.00179 16.9235 2.0002ZM9.92346 3.2502C9.72503 3.24863 9.53518 3.16911 9.39487 3.0288C9.25455 2.88849 9.17503 2.69863 9.17346 2.5002C9.17346 2.30129 9.25248 2.11052 9.39313 1.96987C9.53378 1.82922 9.72455 1.7502 9.92346 1.7502C10.1224 1.7502 10.3131 1.82922 10.4538 1.96987C10.5944 2.11052 10.6735 2.30129 10.6735 2.5002C10.6719 2.69863 10.5924 2.88849 10.4521 3.0288C10.3117 3.16911 10.1219 3.24863 9.92346 3.2502Z" fill="black"/>
</g>
<defs>
<clipPath id="clip0_83_12034">
<rect width="24" height="24" fill="white" transform="translate(0.923462)"/>
</clipPath>
</defs>
</svg>
