<svg width="25" height="25" viewBox="0 0 25 25" fill="none" xmlns="http://www.w3.org/2000/svg">
<path d="M12.9367 7.01318C12.6778 7.01318 12.4679 7.22304 12.4679 7.48193V8.41765C11.4123 8.63506 10.6162 9.57153 10.6162 10.6905C10.6162 11.97 11.6572 13.0109 12.9367 13.0109C13.6992 13.0109 14.3196 13.6313 14.3196 14.3939C14.3196 15.1564 13.6992 15.7768 12.9367 15.7768C12.4174 15.7768 11.9464 15.4901 11.7075 15.0285C11.5885 14.7987 11.3056 14.7087 11.0757 14.8278C10.8458 14.9468 10.7559 15.2296 10.875 15.4595C11.2022 16.0917 11.7892 16.5282 12.4679 16.6669V17.6025C12.4679 17.8614 12.6778 18.0712 12.9367 18.0712C13.1956 18.0712 13.4054 17.8614 13.4054 17.6025V16.6668C14.461 16.4494 15.2571 15.5129 15.2571 14.3939C15.2571 13.1144 14.2162 12.0734 12.9367 12.0734C12.1741 12.0734 11.5537 11.453 11.5537 10.6905C11.5537 9.92792 12.1741 9.30753 12.9367 9.30753C13.4559 9.30753 13.9269 9.59426 14.1659 10.0558C14.2849 10.2858 14.5677 10.3756 14.7976 10.2566C15.0275 10.1376 15.1174 9.85475 14.9984 9.62482C14.6712 8.99267 14.0842 8.55626 13.4055 8.41746V7.48193C13.4054 7.22304 13.1956 7.01318 12.9367 7.01318Z" fill="white"/>
<path d="M20.5413 12.9073C20.7347 13.0689 21.0462 13.034 21.2003 12.8352L22.4356 11.2964C22.5977 11.0945 22.5654 10.7994 22.3635 10.6374C22.1616 10.4753 21.8666 10.5076 21.7045 10.7095L21.214 11.3206C21.1596 10.9554 21.0819 10.5929 20.9794 10.2355C20.3634 8.0872 18.9476 6.30731 16.9929 5.22379C15.0381 4.14032 12.7785 3.88279 10.6302 4.49887C8.40833 5.13595 6.53169 6.68291 5.4814 8.74307C5.36384 8.9737 5.45548 9.25602 5.68611 9.37359C5.91683 9.4912 6.19901 9.39946 6.31662 9.16888C7.24925 7.33945 8.9157 5.96573 10.8886 5.40004C12.7962 4.85301 14.8027 5.08166 16.5384 6.04373C18.2741 7.00584 19.5312 8.58627 20.0782 10.4939C20.1738 10.827 20.2458 11.1649 20.2942 11.5053L19.5911 10.9396C19.3893 10.7774 19.0942 10.8094 18.932 11.0111C18.7698 11.2128 18.8017 11.5079 19.0034 11.6701L20.541 12.907C20.541 12.9071 20.5411 12.9072 20.5413 12.9073Z" fill="white"/>
<path d="M6.57525 14.2478C6.71232 14.2478 6.84821 14.188 6.94078 14.0729C7.10302 13.8712 7.07105 13.5761 6.86935 13.4138L5.3318 12.1769C5.13844 12.0157 4.82644 12.0493 4.67246 12.2487L3.43721 13.7876C3.27516 13.9895 3.30741 14.2845 3.50935 14.4466C3.59588 14.516 3.69952 14.5498 3.80246 14.5498C3.93971 14.5498 4.07574 14.4898 4.16832 14.3744L4.65886 13.7633C4.71319 14.1285 4.79091 14.491 4.89342 14.8484C5.50946 16.9968 6.92522 18.7766 8.87991 19.8601C10.1387 20.5578 11.5236 20.913 12.9242 20.913C13.6985 20.913 14.4778 20.8044 15.2426 20.585C17.4645 19.948 19.3411 18.401 20.3914 16.3408C20.509 16.1102 20.4173 15.8279 20.1867 15.7103C19.9561 15.5928 19.6738 15.6844 19.5562 15.915C18.6236 17.7445 16.9571 19.1182 14.9842 19.6839C13.0765 20.2308 11.0701 20.0022 9.33441 19.0402C7.59872 18.0781 6.34158 16.4976 5.7946 14.59C5.69907 14.2569 5.62702 13.919 5.5786 13.5786L6.28177 14.1443C6.36835 14.214 6.47213 14.2478 6.57525 14.2478Z" fill="white"/>
<path d="M15.1312 0.742218C14.8766 0.695343 14.6321 0.86339 14.585 1.11797C14.538 1.37255 14.7062 1.61705 14.9608 1.66411C20.1979 2.63226 23.999 7.20703 23.999 12.5419C23.999 18.6418 19.0364 23.6044 12.9365 23.6044C6.83663 23.6044 1.87402 18.6418 1.87402 12.5419C1.87402 7.20703 5.67516 2.63226 10.9123 1.66411C11.1669 1.61705 11.3351 1.3725 11.2881 1.11797C11.241 0.86339 10.9966 0.695343 10.7419 0.742218C5.06026 1.79255 0.936523 6.75501 0.936523 12.5419C0.936523 15.7472 2.18471 18.7607 4.45126 21.0272C6.71776 23.2937 9.73121 24.5419 12.9365 24.5419C16.1418 24.5419 19.1553 23.2937 21.4218 21.0272C23.6883 18.7607 24.9365 15.7472 24.9365 12.5419C24.9365 6.75501 20.8128 1.79255 15.1312 0.742218Z" fill="white"/>
<path d="M12.9365 1.47949C13.1954 1.47949 13.4053 1.26963 13.4053 1.01074C13.4053 0.751859 13.1954 0.541992 12.9365 0.541992C12.6776 0.541992 12.4678 0.751859 12.4678 1.01074C12.4678 1.26963 12.6776 1.47949 12.9365 1.47949Z" fill="white"/>
</svg>
