<svg width="24" height="24" viewBox="0 0 24 24" fill="none" xmlns="http://www.w3.org/2000/svg">
<path d="M7.33333 10.6875H11.3333V22.5H7.33333V10.6875ZM8.66667 21.1875H10V12H8.66667V21.1875ZM12.6667 13.3125H16.6667V22.5H12.6667V13.3125ZM14 21.1875H15.3333V14.625H14V21.1875ZM2 15.9375H6V22.5H2V15.9375ZM3.33333 21.1875H4.66667V17.25H3.33333V21.1875ZM18 8.0625H22V22.5H18V8.0625ZM19.3333 21.1875H20.6667V9.375H19.3333V21.1875ZM16.4688 7.86768C16.6007 8.14795 16.6667 8.43164 16.6667 8.71875C16.6667 8.99219 16.6146 9.24854 16.5104 9.48779C16.4063 9.72705 16.2639 9.93555 16.0833 10.1133C15.9028 10.291 15.691 10.4312 15.4479 10.5337C15.2049 10.6362 14.9444 10.6875 14.6667 10.6875C14.3889 10.6875 14.1285 10.6362 13.8854 10.5337C13.6424 10.4312 13.4306 10.291 13.25 10.1133C13.0694 9.93555 12.9271 9.72705 12.8229 9.48779C12.7188 9.24854 12.6667 8.99219 12.6667 8.71875V8.5957C12.6667 8.55469 12.6701 8.51367 12.6771 8.47266L10.7188 7.50879C10.5382 7.68652 10.3264 7.82324 10.0833 7.91895C9.84028 8.01465 9.59028 8.0625 9.33333 8.0625C9.04167 8.0625 8.75347 7.99756 8.46875 7.86768L5.80208 10.4927C5.93403 10.7729 6 11.0566 6 11.3438C6 11.6172 5.94792 11.8735 5.84375 12.1128C5.73958 12.3521 5.59722 12.5605 5.41667 12.7383C5.23611 12.916 5.02431 13.0562 4.78125 13.1587C4.53819 13.2612 4.27778 13.3125 4 13.3125C3.72222 13.3125 3.46181 13.2612 3.21875 13.1587C2.97569 13.0562 2.76389 12.916 2.58333 12.7383C2.40278 12.5605 2.26042 12.3521 2.15625 12.1128C2.05208 11.8735 2 11.6172 2 11.3438C2 11.0703 2.05208 10.814 2.15625 10.5747C2.26042 10.3354 2.40278 10.127 2.58333 9.94922C2.76389 9.77148 2.97569 9.63135 3.21875 9.52881C3.46181 9.42627 3.72222 9.375 4 9.375C4.29167 9.375 4.57986 9.43994 4.86458 9.56982L7.53125 6.94482C7.39931 6.66455 7.33333 6.38086 7.33333 6.09375C7.33333 5.82031 7.38542 5.56396 7.48958 5.32471C7.59375 5.08545 7.73611 4.87695 7.91667 4.69922C8.09722 4.52148 8.30903 4.38135 8.55208 4.27881C8.79514 4.17627 9.05556 4.125 9.33333 4.125C9.61111 4.125 9.87153 4.17627 10.1146 4.27881C10.3576 4.38135 10.5694 4.52148 10.75 4.69922C10.9306 4.87695 11.0729 5.08545 11.1771 5.32471C11.2813 5.56396 11.3333 5.82031 11.3333 6.09375V6.2168C11.3333 6.25781 11.3299 6.29883 11.3229 6.33984L13.2813 7.30371C13.4618 7.12598 13.6736 6.98926 13.9167 6.89355C14.1597 6.79785 14.4097 6.75 14.6667 6.75C14.9583 6.75 15.2465 6.81494 15.5313 6.94482L18.1979 4.31982C18.066 4.03955 18 3.75586 18 3.46875C18 3.19531 18.0521 2.93896 18.1563 2.69971C18.2604 2.46045 18.4028 2.25195 18.5833 2.07422C18.7639 1.89648 18.9757 1.75635 19.2188 1.65381C19.4618 1.55127 19.7222 1.5 20 1.5C20.2778 1.5 20.5382 1.55127 20.7813 1.65381C21.0243 1.75635 21.2361 1.89648 21.4167 2.07422C21.5972 2.25195 21.7396 2.46045 21.8438 2.69971C21.9479 2.93896 22 3.19531 22 3.46875C22 3.74219 21.9479 3.99854 21.8438 4.23779C21.7396 4.47705 21.5972 4.68555 21.4167 4.86328C21.2361 5.04102 21.0243 5.18115 20.7813 5.28369C20.5382 5.38623 20.2778 5.4375 20 5.4375C19.7083 5.4375 19.4201 5.37256 19.1354 5.24268L16.4688 7.86768ZM4 12C4.18056 12 4.33681 11.9351 4.46875 11.8052C4.60069 11.6753 4.66667 11.5215 4.66667 11.3438C4.66667 11.166 4.60069 11.0122 4.46875 10.8823C4.33681 10.7524 4.18056 10.6875 4 10.6875C3.81944 10.6875 3.66319 10.7524 3.53125 10.8823C3.39931 11.0122 3.33333 11.166 3.33333 11.3438C3.33333 11.5215 3.39931 11.6753 3.53125 11.8052C3.66319 11.9351 3.81944 12 4 12ZM20 2.8125C19.8194 2.8125 19.6632 2.87744 19.5313 3.00732C19.3993 3.13721 19.3333 3.29102 19.3333 3.46875C19.3333 3.64648 19.3993 3.80029 19.5313 3.93018C19.6632 4.06006 19.8194 4.125 20 4.125C20.1806 4.125 20.3368 4.06006 20.4688 3.93018C20.6007 3.80029 20.6667 3.64648 20.6667 3.46875C20.6667 3.29102 20.6007 3.13721 20.4688 3.00732C20.3368 2.87744 20.1806 2.8125 20 2.8125ZM9.33333 6.75C9.51389 6.75 9.67014 6.68506 9.80208 6.55518C9.93403 6.42529 10 6.27148 10 6.09375C10 5.91602 9.93403 5.76221 9.80208 5.63232C9.67014 5.50244 9.51389 5.4375 9.33333 5.4375C9.15278 5.4375 8.99653 5.50244 8.86458 5.63232C8.73264 5.76221 8.66667 5.91602 8.66667 6.09375C8.66667 6.27148 8.73264 6.42529 8.86458 6.55518C8.99653 6.68506 9.15278 6.75 9.33333 6.75ZM14.6667 9.375C14.8472 9.375 15.0035 9.31006 15.1354 9.18018C15.2674 9.05029 15.3333 8.89648 15.3333 8.71875C15.3333 8.54102 15.2674 8.38721 15.1354 8.25732C15.0035 8.12744 14.8472 8.0625 14.6667 8.0625C14.4861 8.0625 14.3299 8.12744 14.1979 8.25732C14.066 8.38721 14 8.54102 14 8.71875C14 8.89648 14.066 9.05029 14.1979 9.18018C14.3299 9.31006 14.4861 9.375 14.6667 9.375Z" fill="white"/>
</svg>
