<svg width="14" height="14" viewBox="0 0 14 14" fill="none" xmlns="http://www.w3.org/2000/svg">
<path d="M12.4222 13.4238H3.09208C2.70137 13.4238 2.32666 13.2686 2.05038 12.9923C1.77411 12.7161 1.6189 12.3414 1.6189 11.9506C1.6189 11.5599 1.77411 11.1852 2.05038 10.9089C2.32666 10.6327 2.70137 10.4775 3.09208 10.4775H11.4401C11.7006 10.4775 11.9504 10.374 12.1346 10.1898C12.3188 10.0056 12.4222 9.75582 12.4222 9.49534V1.63837C12.4222 1.3779 12.3188 1.12809 12.1346 0.943907C11.9504 0.759723 11.7006 0.65625 11.4401 0.65625H3.09208C2.70808 0.656114 2.3392 0.805919 2.06403 1.07375C1.78886 1.34159 1.62914 1.70628 1.6189 2.09015V11.9114" stroke="white" stroke-linecap="round" stroke-linejoin="round"/>
<path d="M11.4402 10.4775V13.4239" stroke="white" stroke-linecap="round" stroke-linejoin="round"/>
<path d="M7.52372 8.23598C7.85665 8.37681 8.22577 8.408 8.57761 8.32505C8.92945 8.24209 9.24576 8.0493 9.48071 7.77458L9.72733 7.52796C9.83461 7.44186 9.90444 7.31762 9.92224 7.18122C9.94003 7.04482 9.90439 6.90682 9.82279 6.79608L9.02726 6.00055C8.91653 5.91895 8.77853 5.88332 8.64212 5.90111C8.50572 5.9189 8.38148 5.98874 8.29538 6.09602C8.20928 6.2033 8.08504 6.27314 7.94863 6.29093C7.81223 6.30872 7.67423 6.27309 7.5635 6.19148L6.29065 4.91864C6.20905 4.8079 6.17342 4.6699 6.19121 4.5335C6.209 4.3971 6.27884 4.27286 6.38612 4.18676C6.4934 4.10066 6.56324 3.97641 6.58103 3.84001C6.59882 3.70361 6.56319 3.56561 6.48158 3.45487L5.68605 2.65935C5.57532 2.57774 5.43732 2.54211 5.30092 2.5599C5.16451 2.57769 5.04027 2.64753 4.95417 2.75481L4.70756 3.00142C4.43386 3.23712 4.24181 3.55341 4.15893 3.90496C4.07604 4.25651 4.10657 4.62528 4.24615 4.95842C5.05282 6.30361 6.17852 7.42931 7.52372 8.23598Z" stroke="white" stroke-linecap="round" stroke-linejoin="round"/>
</svg>
