<svg width="24" height="24" viewBox="0 0 24 24" fill="none" xmlns="http://www.w3.org/2000/svg">
<path d="M12 22C9.44444 22 7.21778 21.153 5.32 19.4589C3.42222 17.7648 2.33407 15.6489 2.05556 13.1111H4.33333C4.59259 15.037 5.44926 16.6296 6.90333 17.8889C8.35741 19.1481 10.0563 19.7778 12 19.7778C14.1667 19.7778 16.0048 19.0233 17.5144 17.5144C19.0241 16.0056 19.7785 14.1674 19.7778 12C19.777 9.83259 19.0226 7.99481 17.5144 6.48667C16.0063 4.97852 14.1681 4.2237 12 4.22222C10.7222 4.22222 9.52778 4.51852 8.41667 5.11111C7.30555 5.7037 6.37037 6.51852 5.61111 7.55555H8.66667V9.77778H2V3.11111H4.22222V5.72222C5.16667 4.53704 6.31963 3.62037 7.68111 2.97222C9.04259 2.32407 10.4822 2 12 2C13.3889 2 14.69 2.26407 15.9033 2.79222C17.1167 3.32037 18.1722 4.03296 19.07 4.93C19.9678 5.82704 20.6807 6.88259 21.2089 8.09667C21.737 9.31074 22.0007 10.6118 22 12C21.9993 13.3881 21.7356 14.6893 21.2089 15.9033C20.6822 17.1174 19.9693 18.173 19.07 19.07C18.1707 19.967 17.1152 20.68 15.9033 21.2089C14.6915 21.7378 13.3904 22.0015 12 22ZM15.1111 16.6667L10.8889 12.4444V6.44444H13.1111V11.5556L16.6667 15.1111L15.1111 16.6667Z" fill="white"/>
</svg>
