<svg width="25" height="25" viewBox="0 0 25 25" fill="none" xmlns="http://www.w3.org/2000/svg">
<g clip-path="url(#clip0_413_961)">
<path d="M12.9365 6.19263C13.1896 6.19263 13.3963 5.99158 13.4047 5.74036C13.4053 5.73523 13.4053 5.72955 13.4053 5.72388C13.4053 5.46515 13.1952 5.25513 12.9365 5.25513C12.6778 5.25513 12.4678 5.46515 12.4678 5.72388C12.4678 5.72955 12.4678 5.73523 12.4683 5.74036C12.4767 5.99158 12.6835 6.19263 12.9365 6.19263Z" fill="white"/>
<path d="M15.749 10.8801C15.749 9.3294 14.4874 8.06763 12.9365 8.06763C11.3856 8.06763 10.124 9.3294 10.124 10.8801C10.124 12.431 11.3856 13.6926 12.9365 13.6926C14.4874 13.6926 15.749 12.431 15.749 10.8801ZM12.9365 12.7551C11.9027 12.7551 11.0615 11.9139 11.0615 10.8801C11.0615 9.84631 11.9027 9.00513 12.9365 9.00513C13.9703 9.00513 14.8115 9.84631 14.8115 10.8801C14.8115 11.9139 13.9703 12.7551 12.9365 12.7551Z" fill="white"/>
<path d="M24.5596 10.4205L22.5144 10.0116C22.2739 8.99998 21.8728 8.03191 21.3181 7.1259L22.5546 5.3084C22.6812 5.12218 22.6577 4.87243 22.4986 4.71331L20.5097 2.72442C20.3504 2.56512 20.1007 2.54168 19.9145 2.66821C19.4904 2.95678 18.5461 3.59911 18.0926 3.90728C17.1935 3.35192 16.2267 2.94964 15.2112 2.70849L14.8023 0.663207C14.7586 0.444214 14.5663 0.286377 14.3427 0.286377H11.5303C11.3069 0.286377 11.1144 0.444214 11.0707 0.663207L10.6618 2.70849C9.64592 2.94982 8.67931 3.35211 7.78063 3.90765C7.35161 3.61596 6.47948 3.0227 5.95855 2.66821C5.77233 2.54168 5.52257 2.5653 5.36327 2.72442L3.37438 4.71331C3.21527 4.87243 3.19165 5.12237 3.31835 5.3084L4.55486 7.1259C4.00024 8.03191 3.59887 8.99998 3.35864 10.0116L1.31335 10.4205C1.09418 10.4643 0.936523 10.6567 0.936523 10.8801V13.6926C0.936523 13.916 1.09418 14.1084 1.31335 14.1522L3.35864 14.5611C3.59997 15.5771 4.00225 16.5437 4.55779 17.4424C4.26611 17.8712 3.67266 18.7434 3.31835 19.2645C3.19165 19.4505 3.21527 19.7003 3.37438 19.8596L5.36327 21.8485C5.52257 22.0076 5.77233 22.0312 5.95855 21.9045L7.77587 20.668C8.68205 21.2228 9.65031 21.624 10.6618 21.8642L11.0707 23.9095C11.1144 24.1287 11.3069 24.2863 11.5303 24.2863H14.3427C14.5663 24.2863 14.7586 24.1287 14.8023 23.9095L15.2112 21.8642C16.2269 21.6231 17.1937 21.2208 18.0926 20.6651C18.5214 20.9567 19.3937 21.55 19.9146 21.9045C20.1007 22.031 20.3504 22.0076 20.5097 21.8485L22.4986 19.8594C22.6577 19.7003 22.6814 19.4505 22.5546 19.2643C22.2003 18.7434 21.6069 17.8712 21.3152 17.4422C21.8709 16.5435 22.2734 15.5768 22.5144 14.5611L24.5596 14.1522C24.7788 14.1084 24.9365 13.916 24.9365 13.6926V10.8801C24.9365 10.6567 24.7788 10.4643 24.5596 10.4205ZM23.999 13.3083L22.0308 13.7018C21.8457 13.7387 21.7008 13.883 21.6633 14.0678C21.4368 15.1794 20.9993 16.2304 20.3631 17.1914C20.2622 17.3435 20.2589 17.5407 20.3548 17.6962C20.362 17.7079 20.3638 17.7108 21.5613 19.471L20.121 20.9112C18.3608 19.7138 18.3581 19.712 18.3462 19.7047C18.1909 19.6089 17.9939 19.612 17.8413 19.7129C16.8804 20.3492 15.8296 20.7868 14.7179 21.0131C14.533 21.0509 14.3887 21.1957 14.3517 21.3806L13.9584 23.3488H11.9146L11.5211 21.3806C11.4841 21.1957 11.3398 21.0507 11.1551 21.0131C10.0487 20.7877 8.99516 20.351 8.02324 19.7153C7.86485 19.6117 7.65959 19.6133 7.50304 19.7199L5.75182 20.9112L4.3117 19.471C5.50921 17.7107 5.51086 17.7079 5.51818 17.6962C5.61394 17.5406 5.61083 17.3435 5.50994 17.1912C4.87365 16.2306 4.43621 15.1798 4.20971 14.0678C4.17199 13.8828 4.02715 13.7387 3.84222 13.7018L1.87402 13.3083V11.2644L3.84222 10.871C4.02734 10.834 4.17199 10.6899 4.20971 10.5049C4.4353 9.39842 4.87182 8.34465 5.50774 7.37309C5.61138 7.21471 5.60955 7.00945 5.50298 6.85271L4.3117 5.10168L5.752 3.66155C7.51219 4.85888 7.51494 4.86071 7.52684 4.86803C7.6823 4.9638 7.87932 4.96068 8.03148 4.85979C8.99242 4.22369 10.0433 3.78606 11.1551 3.55956C11.34 3.52184 11.4843 3.37701 11.5213 3.19207L11.9146 1.22388H13.9584L14.3519 3.19226C14.3889 3.37719 14.5332 3.52203 14.7179 3.55956C15.8294 3.78606 16.8802 4.22332 17.8417 4.85943C17.986 4.95501 18.1713 4.96325 18.3235 4.88085C18.3489 4.86712 18.3506 4.8662 20.1212 3.66155L21.5613 5.10186L20.3702 6.85289C20.2636 7.00945 20.2616 7.21471 20.3654 7.37328C21.0012 8.34483 21.4379 9.3986 21.6633 10.5051C21.701 10.6899 21.8458 10.8341 22.0308 10.8711L23.999 11.2646V13.3083Z" fill="white"/>
<path d="M14.9161 5.53888C14.6664 5.47076 14.4087 5.61798 14.3406 5.86773C14.2725 6.11749 14.4197 6.37512 14.6695 6.44323C16.7834 7.01983 19.0303 9.2636 19.0303 12.2863C19.0303 14.0816 18.2497 15.6979 17.0103 16.8141C16.5247 15.0098 14.8725 13.6925 12.9366 13.6925C11.0008 13.6925 9.34881 15.0096 8.86303 16.8136C7.51354 15.6029 6.76446 13.8687 6.84924 12.0029C6.97833 9.39067 8.73064 7.15588 11.2101 6.4414C11.4589 6.36981 11.6025 6.10998 11.5307 5.86132C11.4589 5.61248 11.1993 5.46893 10.9506 5.54071C8.21703 6.32824 6.06683 8.84136 5.91284 11.9585C5.72552 16.0779 9.04339 19.3175 12.9366 19.3175C16.8089 19.3175 19.9678 16.1958 19.9678 12.2863C19.9678 9.02922 17.6733 6.2907 14.9161 5.53888ZM9.6903 17.4372C9.92101 15.8431 11.298 14.63 12.9366 14.63C14.5765 14.63 15.9541 15.8449 16.1834 17.4407C15.2428 18.0354 14.1293 18.38 12.9366 18.38C11.7854 18.38 10.6571 18.0457 9.6903 17.4372Z" fill="white"/>
</g>
<defs>
<clipPath id="clip0_413_961">
<rect width="24" height="24" fill="white" transform="translate(0.936523 0.286377)"/>
</clipPath>
</defs>
</svg>
