<svg width="59" height="38" viewBox="0 0 59 38" fill="none" xmlns="http://www.w3.org/2000/svg">
<path d="M47.6284 21.4382C49.3389 20.0104 50.4412 17.792 50.4412 15.3033C50.4412 11.0061 47.1588 7.51012 43.1242 7.51012C39.0902 7.51012 35.8083 11.0061 35.8083 15.3033C35.8083 17.7905 36.9091 20.0076 38.6175 21.4355C36.8204 22.0373 35.1404 23.0001 33.659 24.2882C31.2307 21.0924 27.9418 18.8076 24.2855 17.7083C26.6207 16.0018 28.1562 13.1397 28.1562 9.90179C28.1562 4.68521 24.1717 0.441406 19.2741 0.441406C14.3764 0.441406 10.392 4.68533 10.392 9.90179C10.392 13.1375 11.9254 15.998 14.2581 17.7047C6.49009 20.0395 0.780273 27.6569 0.780273 36.6685C0.780273 37.3298 1.28362 37.8662 1.90454 37.8662H36.6436H56.9893C57.6103 37.8662 58.1136 37.3298 58.1136 36.6685C58.1136 29.5353 53.6995 23.4801 47.6284 21.4382ZM38.0569 15.3033C38.0569 12.3269 40.3301 9.90549 43.1242 9.90549C45.9188 9.90549 48.1926 12.327 48.1926 15.3033C48.1926 18.2795 45.9188 20.7011 43.1242 20.7011C40.3302 20.7011 38.0569 18.2797 38.0569 15.3033ZM12.6407 9.90179C12.6407 6.00618 15.6164 2.83677 19.2741 2.83677C22.9318 2.83677 25.9075 6.00618 25.9075 9.90179C25.9075 13.7981 22.9318 16.968 19.2741 16.968C15.6164 16.968 12.6407 13.7981 12.6407 9.90179ZM3.06734 35.4708C3.6466 26.4852 10.6942 19.3634 19.2741 19.3634C24.5472 19.3634 29.5095 22.106 32.5555 26.7006C32.5573 26.7035 32.5594 26.7061 32.5612 26.7089C32.5659 26.716 32.5708 26.7228 32.5755 26.7299C34.2856 29.3232 35.2798 32.3233 35.481 35.4708H3.06734ZM37.7341 35.4708C37.5494 32.1821 36.605 29.0298 34.9683 26.2416C37.2563 24.2066 40.1186 23.0965 43.1243 23.0965C49.7707 23.0965 55.2437 28.5462 55.8149 35.4708H37.7341Z" fill="white"/>
</svg>
