<svg width="25" height="25" viewBox="0 0 25 25" fill="none" xmlns="http://www.w3.org/2000/svg">
<g clip-path="url(#clip0_413_941)">
<path d="M12.9367 7.0127C12.6778 7.0127 12.4679 7.22255 12.4679 7.48145V8.41716C11.4123 8.63457 10.6162 9.57104 10.6162 10.69C10.6162 11.9695 11.6572 13.0104 12.9367 13.0104C13.6992 13.0104 14.3196 13.6308 14.3196 14.3934C14.3196 15.156 13.6992 15.7764 12.9367 15.7764C12.4174 15.7764 11.9464 15.4896 11.7075 15.028C11.5885 14.7982 11.3056 14.7083 11.0757 14.8273C10.8458 14.9463 10.7559 15.2291 10.875 15.4591C11.2022 16.0912 11.7892 16.5277 12.4679 16.6665V17.602C12.4679 17.8609 12.6778 18.0707 12.9367 18.0707C13.1956 18.0707 13.4054 17.8609 13.4054 17.602V16.6663C14.461 16.4489 15.2571 15.5124 15.2571 14.3934C15.2571 13.1139 14.2162 12.0729 12.9367 12.0729C12.1741 12.0729 11.5537 11.4526 11.5537 10.69C11.5537 9.92743 12.1741 9.30704 12.9367 9.30704C13.4559 9.30704 13.9269 9.59377 14.1659 10.0554C14.2849 10.2853 14.5677 10.3751 14.7976 10.2561C15.0275 10.1371 15.1174 9.85426 14.9984 9.62434C14.6712 8.99218 14.0842 8.55577 13.4055 8.41698V7.48145C13.4054 7.22255 13.1956 7.0127 12.9367 7.0127Z" fill="white"/>
<path d="M20.5413 12.9073C20.7347 13.0689 21.0462 13.034 21.2003 12.8352L22.4356 11.2964C22.5977 11.0945 22.5654 10.7994 22.3635 10.6374C22.1616 10.4753 21.8666 10.5076 21.7045 10.7095L21.214 11.3206C21.1596 10.9554 21.0819 10.5929 20.9794 10.2355C20.3634 8.0872 18.9476 6.30731 16.9929 5.22379C15.0381 4.14032 12.7785 3.88279 10.6302 4.49887C8.40833 5.13595 6.53169 6.68291 5.4814 8.74307C5.36384 8.9737 5.45548 9.25602 5.68611 9.37359C5.91683 9.4912 6.19901 9.39946 6.31662 9.16888C7.24925 7.33945 8.9157 5.96573 10.8886 5.40004C12.7962 4.85301 14.8027 5.08166 16.5384 6.04373C18.2741 7.00584 19.5312 8.58627 20.0782 10.4939C20.1738 10.827 20.2458 11.1649 20.2942 11.5053L19.5911 10.9396C19.3893 10.7774 19.0942 10.8094 18.932 11.0111C18.7698 11.2128 18.8017 11.5079 19.0034 11.6701L20.541 12.907C20.541 12.9071 20.5411 12.9072 20.5413 12.9073Z" fill="white"/>
<path d="M6.57525 14.2473C6.71232 14.2473 6.84821 14.1875 6.94078 14.0724C7.10302 13.8707 7.07105 13.5756 6.86935 13.4133L5.3318 12.1764C5.13844 12.0152 4.82644 12.0488 4.67246 12.2482L3.43721 13.7871C3.27516 13.989 3.30741 14.284 3.50935 14.4461C3.59588 14.5155 3.69952 14.5493 3.80246 14.5493C3.93971 14.5493 4.07574 14.4893 4.16832 14.3739L4.65886 13.7628C4.71319 14.128 4.79091 14.4905 4.89342 14.8479C5.50946 16.9963 6.92522 18.7761 8.87991 19.8596C10.1387 20.5574 11.5236 20.9125 12.9242 20.9125C13.6985 20.9125 14.4778 20.8039 15.2426 20.5845C17.4645 19.9475 19.3411 18.4005 20.3914 16.3403C20.509 16.1097 20.4173 15.8274 20.1867 15.7098C19.9561 15.5923 19.6738 15.6839 19.5562 15.9145C18.6236 17.744 16.9571 19.1177 14.9842 19.6834C13.0765 20.2303 11.0701 20.0017 9.33441 19.0397C7.59872 18.0776 6.34158 16.4971 5.7946 14.5895C5.69907 14.2564 5.62702 13.9185 5.5786 13.5781L6.28177 14.1438C6.36835 14.2135 6.47213 14.2473 6.57525 14.2473Z" fill="white"/>
<path d="M15.1312 0.741974C14.8766 0.695099 14.6321 0.863146 14.585 1.11772C14.538 1.3723 14.7062 1.6168 14.9608 1.66386C20.1979 2.63202 23.999 7.20679 23.999 12.5417C23.999 18.6416 19.0364 23.6042 12.9365 23.6042C6.83663 23.6042 1.87402 18.6416 1.87402 12.5417C1.87402 7.20679 5.67516 2.63202 10.9123 1.66386C11.1669 1.6168 11.3351 1.37225 11.2881 1.11772C11.241 0.863146 10.9966 0.695099 10.7419 0.741974C5.06026 1.7923 0.936523 6.75477 0.936523 12.5417C0.936523 15.747 2.18471 18.7604 4.45126 21.0269C6.71776 23.2934 9.73121 24.5417 12.9365 24.5417C16.1418 24.5417 19.1553 23.2934 21.4218 21.0269C23.6883 18.7604 24.9365 15.747 24.9365 12.5417C24.9365 6.75477 20.8128 1.7923 15.1312 0.741974Z" fill="white"/>
<path d="M12.9365 1.47925C13.1954 1.47925 13.4053 1.26938 13.4053 1.0105C13.4053 0.751615 13.1954 0.541748 12.9365 0.541748C12.6776 0.541748 12.4678 0.751615 12.4678 1.0105C12.4678 1.26938 12.6776 1.47925 12.9365 1.47925Z" fill="white"/>
</g>
<defs>
<clipPath id="clip0_413_941">
<rect width="24" height="24" fill="white" transform="translate(0.936523 0.541748)"/>
</clipPath>
</defs>
</svg>
