<svg width="21" height="21" viewBox="0 0 21 21" fill="none" xmlns="http://www.w3.org/2000/svg">
<g clip-path="url(#clip0_1275_1425)">
<path d="M12.6187 6.125C12.6187 6.41797 12.5568 6.69141 12.4331 6.94531C12.3094 7.19922 12.1304 7.41732 11.896 7.59961L15.7729 19.25H14.4644L13.6245 16.75H7.86279L7.02295 19.25H5.71436L9.59131 7.59961C9.36344 7.42383 9.18766 7.20898 9.06396 6.95508C8.94027 6.70117 8.87516 6.42448 8.86865 6.125C8.86865 5.86458 8.91748 5.62044 9.01514 5.39258C9.11279 5.16471 9.24626 4.96615 9.41553 4.79688C9.5848 4.6276 9.78337 4.49414 10.0112 4.39648C10.2391 4.29883 10.4832 4.25 10.7437 4.25C11.0041 4.25 11.2482 4.29883 11.4761 4.39648C11.7039 4.49414 11.9025 4.6276 12.0718 4.79688C12.241 4.96615 12.3745 5.16471 12.4722 5.39258C12.5698 5.62044 12.6187 5.86458 12.6187 6.125ZM10.7437 5.5C10.5744 5.5 10.4279 5.56185 10.3042 5.68555C10.1805 5.80924 10.1187 5.95573 10.1187 6.125C10.1187 6.29427 10.1805 6.44076 10.3042 6.56445C10.4279 6.68815 10.5744 6.75 10.7437 6.75C10.9129 6.75 11.0594 6.68815 11.1831 6.56445C11.3068 6.44076 11.3687 6.29427 11.3687 6.125C11.3687 5.95573 11.3068 5.80924 11.1831 5.68555C11.0594 5.56185 10.9129 5.5 10.7437 5.5ZM10.7437 8.09766L9.52295 11.75H11.9644L10.7437 8.09766ZM13.2144 15.5L12.3745 13H9.11279L8.27295 15.5H13.2144Z" fill="black"/>
<path d="M13.6343 7.11133C13.478 7.47591 13.2534 7.79818 12.9604 8.07812L13.8296 8.97656C14.2528 8.56641 14.575 8.10417 14.7964 7.58984C15.0177 7.07552 15.1284 6.52865 15.1284 5.94922C15.1219 5.36328 15.008 4.81315 14.7866 4.29883C14.5653 3.78451 14.2463 3.32552 13.8296 2.92188L12.9604 3.82031C13.2599 4.10026 13.4878 4.42253 13.644 4.78711C13.8003 5.15169 13.8784 5.53906 13.8784 5.94922C13.8719 6.35938 13.7905 6.74674 13.6343 7.11133Z" fill="black"/>
<path d="M16.437 2.15039C16.1831 1.7793 15.8934 1.4375 15.5679 1.125L14.6987 2.02344C15.2456 2.55078 15.6623 3.14974 15.9487 3.82031C16.2352 4.49089 16.3784 5.20052 16.3784 5.94922C16.3719 6.70443 16.2254 7.41732 15.939 8.08789C15.6525 8.75846 15.2391 9.35417 14.6987 9.875L15.5679 10.7734C15.8999 10.4609 16.1929 10.1191 16.4468 9.74805C16.7007 9.37695 16.9155 8.98633 17.0913 8.57617C17.2671 8.16602 17.4006 7.73958 17.4917 7.29688C17.5828 6.85417 17.6284 6.40495 17.6284 5.94922C17.6219 5.49349 17.5763 5.04427 17.4917 4.60156C17.4071 4.15885 17.2736 3.73242 17.0913 3.32227C16.909 2.91211 16.6909 2.52148 16.437 2.15039Z" fill="black"/>
<path d="M6.68115 7.59961C6.90251 8.11393 7.22152 8.57292 7.63818 8.97656L8.50732 8.07812C8.20785 7.79818 7.97998 7.47591 7.82373 7.11133C7.66748 6.74674 7.58936 6.35938 7.58936 5.94922C7.59587 5.53906 7.67725 5.15169 7.8335 4.78711C7.98975 4.42253 8.21436 4.10026 8.50732 3.82031L7.63818 2.92188C7.21501 3.33203 6.89274 3.79427 6.67139 4.30859C6.45003 4.82292 6.33936 5.36979 6.33936 5.94922C6.34587 6.53516 6.4598 7.08529 6.68115 7.59961Z" fill="black"/>
<path d="M5.03076 9.74805C5.28467 10.1191 5.57438 10.4609 5.8999 10.7734L6.76904 9.875C6.22217 9.34766 5.8055 8.7487 5.51904 8.07812C5.23258 7.40755 5.08936 6.69792 5.08936 5.94922C5.09587 5.19401 5.24235 4.48112 5.52881 3.81055C5.81527 3.13997 6.22868 2.54427 6.76904 2.02344L5.8999 1.125C5.56787 1.4375 5.2749 1.7793 5.021 2.15039C4.76709 2.52148 4.55225 2.91211 4.37646 3.32227C4.20068 3.73242 4.06722 4.15885 3.97607 4.60156C3.88493 5.04427 3.83936 5.49349 3.83936 5.94922C3.84587 6.40495 3.89144 6.85417 3.97607 7.29688C4.06071 7.73958 4.19417 8.16602 4.37646 8.57617C4.55876 8.98633 4.77686 9.37695 5.03076 9.74805Z" fill="black"/>
<path d="M-1.16064 -1.5L23.5894 23.25" stroke="#EA0029" stroke-width="2" stroke-linecap="round" stroke-linejoin="round"/>
</g>
<defs>
<clipPath id="clip0_1275_1425">
<rect width="20" height="20" fill="white" transform="translate(0.714355 0.5)"/>
</clipPath>
</defs>
</svg>
