<svg width="24" height="24" viewBox="0 0 24 24" fill="none" xmlns="http://www.w3.org/2000/svg">
<path d="M22 11.99C22 6.475 17.52 2 12 2C6.48 2 2 6.475 2 11.99C2 15.0275 3.38 17.765 5.54 19.6025C5.56 19.6225 5.58 19.6225 5.58 19.6425C5.76 19.7825 5.94 19.9225 6.14 20.0625C6.24 20.1225 6.32 20.2012 6.42 20.2812C8.07325 21.4003 10.0236 21.9989 12.02 22C14.0164 21.9989 15.9667 21.4003 17.62 20.2812C17.72 20.2212 17.8 20.1425 17.9 20.0813C18.08 19.9425 18.28 19.8025 18.46 19.6625C18.48 19.6425 18.5 19.6425 18.5 19.6225C20.62 17.7637 22 15.0275 22 11.99ZM12 20.7413C10.12 20.7413 8.4 20.1412 6.98 19.1425C7 18.9825 7.04 18.8238 7.08 18.6638C7.19957 18.2303 7.37433 17.8139 7.6 17.425C7.82 17.045 8.08 16.705 8.4 16.405C8.7 16.105 9.06 15.8263 9.42 15.6063C9.8 15.3863 10.2 15.2262 10.64 15.1062C11.0836 14.9874 11.5408 14.9273 12 14.9275C13.3634 14.9172 14.6769 15.4402 15.66 16.385C16.12 16.845 16.48 17.3846 16.74 18.0038C16.88 18.3638 16.98 18.7433 17.04 19.1425C15.564 20.1802 13.8043 20.7384 12 20.7413ZM8.94 11.4912C8.76414 11.0877 8.67554 10.6515 8.68 10.2112C8.68 9.7725 8.76 9.3325 8.94 8.9325C9.12 8.5325 9.36 8.17375 9.66 7.87375C9.96 7.57375 10.32 7.335 10.72 7.155C11.12 6.975 11.56 6.895 12 6.895C12.46 6.895 12.88 6.975 13.28 7.155C13.68 7.335 14.04 7.575 14.34 7.87375C14.64 8.17375 14.88 8.53375 15.06 8.9325C15.24 9.3325 15.32 9.7725 15.32 10.2112C15.32 10.6712 15.24 11.0913 15.06 11.49C14.8873 11.8846 14.6432 12.244 14.34 12.55C14.0339 12.8527 13.6745 13.0964 13.28 13.2688C12.4534 13.6077 11.5266 13.6077 10.7 13.2688C10.3055 13.0964 9.94612 12.8527 9.64 12.55C9.33656 12.2483 9.0983 11.8888 8.94 11.4912ZM18.22 18.1238C18.22 18.0838 18.2 18.0638 18.2 18.0238C18.0037 17.3979 17.7137 16.8053 17.34 16.2663C16.966 15.7232 16.5067 15.2441 15.98 14.8475C15.5776 14.5447 15.1413 14.2896 14.68 14.0875C14.8889 13.9478 15.0832 13.7874 15.26 13.6087C15.5582 13.3144 15.82 12.9854 16.04 12.6288C16.4845 11.9017 16.7133 11.0633 16.7 10.2112C16.7065 9.58061 16.584 8.9553 16.34 8.37375C16.0994 7.81331 15.7531 7.30447 15.32 6.875C14.8865 6.45131 14.3778 6.11218 13.82 5.875C13.2376 5.63107 12.6114 5.50898 11.98 5.51625C11.3485 5.50937 10.7223 5.63189 10.14 5.87625C9.57605 6.11054 9.0657 6.45716 8.64 6.895C8.2141 7.32621 7.87466 7.83494 7.64 8.39375C7.39597 8.9753 7.27346 9.60061 7.28 10.2313C7.28 10.6713 7.34 11.0908 7.46 11.49C7.58 11.91 7.74 12.29 7.96 12.6488C8.16 13.0088 8.44 13.3288 8.74 13.6288C8.92 13.8088 9.12 13.9683 9.34 14.1075C8.87662 14.3138 8.44008 14.5757 8.04 14.8875C7.52 15.2875 7.06 15.7662 6.68 16.2862C6.30284 16.8233 6.01262 17.4164 5.82 18.0438C5.8 18.0838 5.8 18.1237 5.8 18.1437C4.22 16.545 3.24 14.3875 3.24 11.99C3.24 7.175 7.18 3.23875 12 3.23875C16.82 3.23875 20.76 7.175 20.76 11.99C20.7574 14.2899 19.8441 16.4953 18.22 18.1238Z" fill="white" stroke="white" stroke-width="0.5"/>
</svg>
