<svg width="32" height="33" viewBox="0 0 32 33" fill="none" xmlns="http://www.w3.org/2000/svg">
<circle cx="16" cy="16.3147" r="16" fill="#EA0033"/>
<g clip-path="url(#clip0_196_843)">
<path d="M7.66667 10.898V9.6422C7.66819 9.42335 7.75575 9.21388 7.91043 9.05905C8.0651 8.90421 8.27448 8.81644 8.49333 8.8147H23.5067C23.9633 8.8147 24.3333 9.18553 24.3333 9.6422V22.9872C24.3318 23.206 24.2443 23.4155 24.0896 23.5703C23.9349 23.7252 23.7255 23.813 23.5067 23.8147H8.49333C8.27401 23.8145 8.06375 23.7272 7.90874 23.572C7.75374 23.4169 7.66667 23.2065 7.66667 22.9872V22.148H22.6667V12.398L16 18.398L7.66667 10.898ZM6 14.648H10.1667V16.3147H6V14.648ZM6 18.8147H12.6667V20.4814H6V18.8147Z" fill="white"/>
</g>
<defs>
<clipPath id="clip0_196_843">
<rect width="20" height="20" fill="white" transform="translate(6 6.3147)"/>
</clipPath>
</defs>
</svg>
