<svg width="24" height="24" viewBox="0 0 24 24" fill="none" xmlns="http://www.w3.org/2000/svg">
<path d="M2 6.44439C2 5.85502 2.23413 5.28979 2.65087 4.87304C3.06762 4.45629 3.63285 4.22217 4.22222 4.22217H19.7778C20.3671 4.22217 20.9324 4.45629 21.3491 4.87304C21.7659 5.28979 22 5.85502 22 6.44439V17.5555C22 18.1449 21.7659 18.7101 21.3491 19.1268C20.9324 19.5436 20.3671 19.7777 19.7778 19.7777H4.22222C3.63285 19.7777 3.06762 19.5436 2.65087 19.1268C2.23413 18.7101 2 18.1449 2 17.5555V6.44439Z" stroke="white" stroke-width="2" stroke-linecap="round" stroke-linejoin="round"/>
<path d="M2 6.44434L12 13.111L22 6.44434" stroke="white" stroke-width="2" stroke-linecap="round" stroke-linejoin="round"/>
</svg>
