<svg width="24" height="24" viewBox="0 0 24 24" fill="none" xmlns="http://www.w3.org/2000/svg">
<path d="M18.75 3.2V20.8H5.25V8.48L10.65 3.2H18.75ZM18.75 1H9.75L3 7.6V20.8C3 22.01 4.0125 23 5.25 23H18.75C19.9875 23 21 22.01 21 20.8V3.2C21 1.99 19.9875 1 18.75 1ZM9.1875 19.7H6.9375V17.5H9.1875V19.7ZM17.0625 19.7H14.8125V17.5H17.0625V19.7ZM9.1875 15.3H6.9375V10.9H9.1875V15.3ZM13.125 19.7H10.875V15.3H13.125V19.7ZM13.125 13.1H10.875V10.9H13.125V13.1ZM17.0625 15.3H14.8125V10.9H17.0625V15.3Z" fill="white"/>
</svg>
