<svg width="24" height="24" viewBox="0 0 24 24" fill="none" xmlns="http://www.w3.org/2000/svg">
<path d="M18.9766 12.8759C19.633 12.3285 20.056 11.478 20.056 10.5239C20.056 8.87646 18.7964 7.53616 17.2482 7.53616C15.7003 7.53616 14.441 8.87646 14.441 10.5239C14.441 11.4774 14.8634 12.3274 15.5189 12.8748C14.8294 13.1055 14.1847 13.4747 13.6163 13.9685C12.6844 12.7433 11.4225 11.8674 10.0194 11.4459C10.9155 10.7917 11.5047 9.6944 11.5047 8.45307C11.5047 6.45315 9.97579 4.82617 8.09646 4.82617C6.21714 4.82617 4.68822 6.4532 4.68822 8.45307C4.68822 9.69358 5.27664 10.7902 6.17172 11.4445C3.19098 12.3396 1 15.26 1 18.7149C1 18.9684 1.19314 19.174 1.43141 19.174H14.7615H22.5686C22.8069 19.174 23 18.9684 23 18.7149C23 15.9801 21.3062 13.6587 18.9766 12.8759ZM15.3038 10.5239C15.3038 9.38279 16.1761 8.45449 17.2482 8.45449C18.3206 8.45449 19.1931 9.38284 19.1931 10.5239C19.1931 11.6649 18.3206 12.5933 17.2482 12.5933C16.1761 12.5933 15.3038 11.665 15.3038 10.5239ZM5.55108 8.45307C5.55108 6.95958 6.69293 5.7445 8.09646 5.7445C9.49999 5.7445 10.6418 6.95958 10.6418 8.45307C10.6418 9.94684 9.49999 11.1621 8.09646 11.1621C6.69293 11.1621 5.55108 9.94684 5.55108 8.45307ZM1.87759 18.2557C2.09987 14.8108 4.8042 12.0804 8.09646 12.0804C10.1199 12.0804 12.024 13.1319 13.1928 14.8934L13.195 14.8966C13.1968 14.8993 13.1987 14.9019 13.2005 14.9046C13.8567 15.8988 14.2382 17.049 14.3154 18.2557H1.87759ZM15.1799 18.2557C15.1091 16.9949 14.7467 15.7863 14.1187 14.7174C14.9966 13.9372 16.0949 13.5116 17.2483 13.5116C19.7987 13.5116 21.8988 15.6009 22.1179 18.2557H15.1799Z" fill="white" stroke="white" stroke-width="0.5"/>
<path d="M11.1784 16.6594H7.74296C7.48304 16.6594 7.27234 16.8702 7.27234 17.13C7.27234 17.3899 7.48304 17.6007 7.74296 17.6007H11.1784C11.4384 17.6007 11.6491 17.3899 11.6491 17.13C11.6491 16.8702 11.4384 16.6594 11.1784 16.6594Z" fill="white" stroke="white" stroke-width="0.5"/>
<path d="M12.9621 16.6594C12.3565 16.6594 12.3555 17.6007 12.9621 17.6007C13.5678 17.6007 13.5688 16.6594 12.9621 16.6594Z" fill="white" stroke="white" stroke-width="0.5"/>
</svg>
