<svg width="25" height="25" viewBox="0 0 25 25" fill="none" xmlns="http://www.w3.org/2000/svg">
<g clip-path="url(#clip0_413_895)">
<path d="M20.5474 13.5025C21.2634 12.8906 21.7248 11.9399 21.7248 10.8733C21.7248 9.03165 20.3508 7.53336 18.6619 7.53336C16.9733 7.53336 15.5994 9.03165 15.5994 10.8733C15.5994 11.9392 16.0602 12.8894 16.7754 13.5014C16.0231 13.7593 15.3198 14.1719 14.6997 14.7239C13.6832 13.3543 12.3065 12.3751 10.7759 11.904C11.7534 11.1726 12.3962 9.94602 12.3962 8.55836C12.3962 6.32268 10.7283 4.50391 8.67812 4.50391C6.62795 4.50391 4.96004 6.32273 4.96004 8.55836C4.96004 9.9451 5.60195 11.171 6.5784 11.9025C3.32668 12.9031 0.936523 16.1677 0.936523 20.0298C0.936523 20.3132 1.14723 20.5431 1.40715 20.5431H15.9491H24.4659C24.7258 20.5431 24.9365 20.3132 24.9365 20.0298C24.9365 16.9727 23.0888 14.3776 20.5474 13.5025ZM16.5407 10.8733C16.5407 9.59767 17.4923 8.55994 18.6619 8.55994C19.8317 8.55994 20.7835 9.59772 20.7835 10.8733C20.7835 12.1488 19.8317 13.1867 18.6619 13.1867C17.4923 13.1867 16.5407 12.1489 16.5407 10.8733ZM5.90134 8.55836C5.90134 6.88881 7.14699 5.53049 8.67812 5.53049C10.2092 5.53049 11.4549 6.88881 11.4549 8.55836C11.4549 10.2282 10.2092 11.5867 8.67812 11.5867C7.14699 11.5867 5.90134 10.2282 5.90134 8.55836ZM1.8939 19.5165C2.13638 15.6655 5.08655 12.6133 8.67812 12.6133C10.8855 12.6133 12.9627 13.7887 14.2378 15.7578C14.2385 15.7591 14.2394 15.7602 14.2402 15.7614C14.2421 15.7644 14.2442 15.7674 14.2462 15.7704C14.962 16.8818 15.3782 18.1676 15.4624 19.5165H1.8939ZM16.4056 19.5165C16.3283 18.1071 15.9329 16.7561 15.2478 15.5611C16.2055 14.689 17.4037 14.2132 18.6619 14.2132C21.4441 14.2132 23.7352 16.5488 23.9743 19.5165H16.4056V19.5165Z" fill="white"/>
<path d="M12.1151 17.1829H8.67961C8.41969 17.1829 8.20898 17.3936 8.20898 17.6535C8.20898 17.9134 8.41969 18.1241 8.67961 18.1241H12.1151C12.375 18.1241 12.5857 17.9134 12.5857 17.6535C12.5857 17.3936 12.375 17.1829 12.1151 17.1829Z" fill="white"/>
<path d="M13.8985 17.1829C13.2928 17.1829 13.2918 18.1242 13.8985 18.1242C14.5041 18.1242 14.5051 17.1829 13.8985 17.1829Z" fill="white"/>
</g>
<defs>
<clipPath id="clip0_413_895">
<rect width="24" height="24" fill="white" transform="translate(0.936523 0.523438)"/>
</clipPath>
</defs>
</svg>
