<svg width="165" height="32" viewBox="0 0 165 32" fill="none" xmlns="http://www.w3.org/2000/svg">
<path d="M38.3861 7.38379H35.6574C34.5706 7.38379 33.6919 8.26257 33.6919 9.34947V29.6307C33.6919 30.7176 34.5706 31.5964 35.6574 31.5964H38.3861C39.4729 31.5964 40.3516 30.7176 40.3516 29.6307V9.3726C40.3747 8.26257 39.4729 7.38379 38.3861 7.38379Z" fill="#EA0029"/>
<path d="M28.5582 7.38379C26.8239 7.38379 25.3902 8.42445 24.6734 9.90449L17.3893 25.3525C17.2275 25.7225 16.8806 26.3237 16.58 26.3237C16.3025 26.3237 15.9556 25.7225 15.7707 25.3525L8.48662 9.90449C7.76977 8.42445 6.33609 7.38379 4.6018 7.38379H0.370117L11.909 29.7463C13.042 31.9433 15.4007 31.897 16.6031 31.897C18.268 31.897 20.2104 31.8045 21.2279 29.7463L32.7667 7.38379H28.5582Z" fill="#EA0029"/>
<path d="M156.064 3.6837C156.064 2.59679 155.185 1.71802 154.098 1.71802H151.369C150.283 1.71802 149.404 2.59679 149.404 3.6837V23.7106C149.404 26.7631 150.491 28.567 152.433 29.8389C154.329 31.0645 156.48 31.6195 160.55 31.6195H162.746C163.833 31.6195 164.712 30.7408 164.712 29.6539V27.5032H163.047C161.844 27.5032 159.324 27.4569 157.844 26.4625C155.902 25.1906 156.064 22.9012 156.064 21.2592V3.6837Z" fill="#EA0029"/>
<path d="M113.284 27.5031C112.082 27.5031 109.561 27.4569 108.081 26.4625C106.139 25.1905 106.301 22.9011 106.301 21.2592V11.5001H112.775C113.862 11.5001 114.741 10.6214 114.741 9.53445V7.38376H106.278V3.68365C106.278 2.59674 105.399 1.71796 104.312 1.71796H101.583C100.497 1.71796 99.6179 2.59674 99.6179 3.68365V7.40689H85.6742V3.68365C85.6742 2.59674 84.7955 1.71796 83.7087 1.71796H80.9801C79.8701 1.69484 78.9914 2.59674 78.9914 3.68365V7.40689H74.8291V9.55758C74.8291 10.6445 75.7078 11.5233 76.7946 11.5233H78.9914V23.7336C78.9914 26.8093 80.0782 28.59 82.0206 29.8619C83.9168 31.0876 86.0673 31.6426 90.1371 31.6426H92.3339C93.4207 31.6426 94.2994 30.7638 94.2994 29.6769V27.5262H92.6345C91.4321 27.5262 88.9116 27.48 87.4316 26.4856C85.4892 25.2137 85.6511 22.9242 85.6511 21.2823V11.5001H99.5948V23.7105C99.5948 26.7862 100.682 28.5669 102.624 29.8388C104.52 31.0645 106.671 31.6195 110.741 31.6195H112.937C114.024 31.6195 114.903 30.7407 114.903 29.6538V27.5031H113.284Z" fill="#EA0029"/>
<path d="M72.3551 29.6541V27.5034H57.5557C55.1046 27.5034 52.3066 27.2259 51.451 24.6358C51.2198 23.8958 51.0579 22.3464 51.0579 21.3057H68.6552C69.8577 21.3057 70.9907 21.1207 71.9157 20.3807C73.1644 19.3863 73.3494 17.9525 73.3494 16.7269C73.3494 13.6743 72.6094 10.6448 69.0715 8.86412C66.2735 7.45345 62.6199 7.3147 59.0819 7.3147C56.2146 7.3147 51.081 7.3147 47.7743 9.60414C44.4676 11.8936 44.167 15.2237 44.167 19.7563C44.167 22.9477 44.3289 26.3009 46.3406 28.5903C48.8611 31.4117 52.5147 31.6429 55.5902 31.6429H70.4127C71.4764 31.6198 72.3551 30.741 72.3551 29.6541ZM66.4122 15.7556C66.4122 16.4031 66.2503 17.1662 64.9323 17.1662H55.4283C53.0235 17.1662 51.0579 18.2763 51.0579 19.6407V17.1662C51.1042 15.5706 51.0579 14.2524 52.4222 13.0036C54.249 11.3617 57.0008 11.4079 58.7582 11.4079C60.6544 11.4079 62.8049 11.5004 64.4698 12.4949C65.441 13.0961 66.4122 14.2524 66.4122 15.7556Z" fill="#EA0029"/>
<path d="M144.64 29.6541V27.5034H129.841C127.39 27.5034 124.592 27.2259 123.736 24.6358C123.505 23.8958 123.343 22.3464 123.343 21.3057H140.94C142.143 21.3057 143.276 21.1207 144.201 20.3807C145.45 19.3863 145.635 17.9525 145.635 16.7269C145.635 13.6743 144.895 10.6448 141.357 8.86412C138.559 7.45345 134.905 7.3147 131.367 7.3147C128.5 7.3147 123.366 7.3147 120.059 9.60414C116.753 11.8936 116.452 15.2237 116.452 19.7563C116.452 22.9477 116.614 26.3009 118.626 28.5903C121.146 31.4117 124.8 31.6429 127.875 31.6429H142.698C143.762 31.6198 144.64 30.741 144.64 29.6541ZM138.697 15.7556C138.697 16.4031 138.535 17.1662 137.217 17.1662H127.714C125.285 17.1662 123.343 18.2763 123.343 19.6407V17.1662C123.389 15.5706 123.343 14.2524 124.707 13.0036C126.534 11.3617 129.286 11.4079 131.043 11.4079C132.94 11.4079 135.09 11.5004 136.755 12.4949C137.726 13.0961 138.697 14.2524 138.697 15.7556Z" fill="#EA0029"/>
<path d="M38.3861 0.60791H35.6574C34.5706 0.60791 33.6919 1.48669 33.6919 2.57359V3.12861V7.38374H33.715C33.9 6.27371 35.1718 5.0943 37.0217 5.0943H38.3861C39.4729 5.0943 40.3516 4.21552 40.3516 3.12861V2.57359C40.3747 1.48669 39.4729 0.60791 38.3861 0.60791Z" fill="#EA0029"/>
</svg>
