<svg width="64" height="64" viewBox="0 0 64 64" fill="none" xmlns="http://www.w3.org/2000/svg">
<path fill-rule="evenodd" clip-rule="evenodd" d="M55.8272 53.8839H53.1797V56.2581C53.1797 57.1871 52.2589 58.0129 51.2229 58.0129C50.1869 58.0129 49.2661 57.1871 49.2661 56.2581V53.8839H46.6186C45.5826 53.8839 44.6617 53.0581 44.6617 52.129C44.6617 51.2 45.5826 50.3742 46.6186 50.3742H49.2661V48C49.2661 47.0709 50.1869 46.2451 51.2229 46.2451H51.338C52.374 46.2451 53.2948 47.0709 53.2948 48V50.3742H55.9423C56.5179 50.3742 56.9783 50.5806 57.3236 50.8903C57.6689 51.2 57.8992 51.6129 57.8992 52.129C57.784 53.1613 56.8632 53.8839 55.8272 53.8839ZM64 48.6195C63.7697 47.0711 62.964 45.7292 61.6978 44.6969C60.892 43.9744 59.9712 43.355 59.0503 42.9421C55.9424 41.3937 52.4892 40.0518 48.9208 38.9163C48.6906 38.8131 48.4604 38.8131 48.2302 38.7098C48 38.6066 47.6546 38.5034 47.4244 38.5034C46.6187 38.2969 45.6978 38.0905 44.8921 37.884C44.6618 38.1937 44.4316 38.6066 44.0863 38.9163C43.2805 39.9485 42.4748 40.8776 41.7841 41.9098C40.518 43.4582 39.3669 44.9034 38.1007 46.3485C37.41 47.1743 36.7194 47.8969 36.0288 48.7227L35.9136 48.826C35.9136 48.826 35.9136 48.826 35.9136 48.9292C35.7985 49.1356 35.6834 49.2389 35.4532 49.4453C35.4532 49.1356 35.3381 48.7227 35.3381 48.4131C34.8777 45.4195 34.5324 42.9421 34.5324 42.5292V42.426C34.6475 42.1163 34.7626 41.8066 34.9928 41.6002V41.4969L35.1079 41.3937C35.223 41.2905 35.223 41.084 35.3381 40.9808L35.4532 40.8776V40.7744L35.5683 40.6711C35.6834 40.4647 35.7985 40.155 35.7985 39.8453C35.7985 39.5357 35.6834 39.3292 35.5683 39.1228L35.4532 38.9163C35.4532 38.9163 35.4532 38.9163 35.4532 38.8131C35.4532 38.7099 35.3381 38.7099 35.3381 38.6066C35.223 38.5034 35.223 38.4002 35.1079 38.4002C34.9928 38.2969 34.7626 38.2969 34.6475 38.2969H34.4173C34.3021 38.2969 34.187 38.2969 34.187 38.2969C34.0719 38.2969 33.7266 38.2969 33.3813 38.2969C33.1511 38.2969 32.9208 38.2969 32.5755 38.2969C32.1151 38.2969 31.7698 38.2969 31.4244 38.2969C31.3093 38.2969 31.1942 38.2969 31.1942 38.2969C31.0791 38.2969 31.0791 38.2969 31.0791 38.2969H30.964C30.8489 38.2969 30.7338 38.2969 30.7338 38.2969H30.6187C30.6187 38.2969 30.6187 38.2969 30.5036 38.2969C30.5036 38.2969 30.3885 38.2969 30.2734 38.2969H30.0431C29.928 38.2969 29.8129 38.2969 29.5827 38.4002C29.4676 38.5034 29.3525 38.5034 29.3525 38.6066C29.2374 38.7098 29.2374 38.8131 29.2374 38.8131V38.9163L28.6619 38.8131C28.5468 39.0195 28.4316 39.226 28.4316 39.5356C28.4316 39.8453 28.5468 40.155 28.6619 40.3615L28.777 40.4647C28.777 40.4647 28.777 40.4647 28.777 40.5679L28.8921 40.6711C29.0072 40.7743 29.0072 40.9808 29.1223 41.084L29.2374 41.1873V41.2905C29.3525 41.6001 29.4676 41.8066 29.6978 42.1163V42.2195C29.6978 42.5292 29.3525 45.1098 28.8921 48.1034C28.8921 48.413 28.777 48.8259 28.777 49.1356C28.6619 48.9292 28.5468 48.8259 28.3165 48.6195C27.5108 47.7937 26.8201 46.9679 26.0144 46.0388C24.7482 44.5937 23.482 43.1485 22.3309 41.6001C21.295 40.2582 20.259 39.0195 19.223 37.5743C18.0719 37.7808 17.036 38.0905 15.8849 38.4001C12.0863 39.5356 8.40288 40.9808 5.06475 42.6324C4.02878 43.1485 3.22302 43.6647 2.41727 44.3872C1.26619 45.5227 0.345324 46.7614 0.115107 48.3098C0.115107 48.6195 3.63402e-06 48.8259 3.63402e-06 49.1356V58.2195C0.805759 64.0001 4.83453 64.0001 5.06475 64.0001H59.2806C59.2806 64.0001 59.2806 64.0001 59.3957 64.0001H59.5108C59.9712 63.8969 60.777 63.7937 61.6978 63.1743C61.8129 63.0711 61.928 62.9679 62.0432 62.9679L62.1583 62.8647C62.5036 62.555 62.8489 62.1421 63.0791 61.7292C63.1942 61.626 63.1942 61.5227 63.1942 61.4195C63.1942 61.3163 63.3093 61.2131 63.3093 61.1098C63.6547 60.3872 63.8849 59.5614 64 58.5292V49.4453C64 49.1356 64 48.8259 64 48.6195L64 48.6195Z" fill="black"/>
<path fill-rule="evenodd" clip-rule="evenodd" d="M45.9231 15.0672V11.7705H44.085C44.1999 12.2856 44.3148 12.8007 44.3148 13.4189C44.3148 14.037 44.1999 14.5521 44.085 15.0672H45.9231Z" fill="#EE0033"/>
<path fill-rule="evenodd" clip-rule="evenodd" d="M18.7636 11.7705V15.0672H30.8458C30.7307 14.5521 30.6157 14.037 30.6157 13.4189C30.6157 12.8007 30.7307 12.2856 30.8458 11.7705H18.7636Z" fill="#EE0033"/>
<path fill-rule="evenodd" clip-rule="evenodd" d="M37.4099 14.8645C36.6042 14.8645 35.7984 14.2451 35.7984 13.4193C35.7984 12.6968 36.4891 11.9742 37.4099 11.9742C38.3308 11.9742 39.0214 12.5935 39.0214 13.4193C39.0214 14.1419 38.3308 14.8645 37.4099 14.8645ZM37.4103 8.67111C35.1081 8.67111 33.1513 10.0131 32.3456 11.7679C32.1153 12.284 32.0002 12.8001 32.0002 13.4195C32.0002 14.0389 32.1153 14.555 32.3456 15.0711C33.1513 16.9292 35.1081 18.1679 37.4103 18.1679C39.7125 18.1679 41.6693 16.826 42.4751 15.0711C42.7053 14.555 42.8204 14.0389 42.8204 13.4195C42.8204 12.8001 42.7053 12.284 42.4751 11.7679C41.6693 9.90982 39.7125 8.67111 37.4103 8.67111Z" fill="#EE0033"/>
<path fill-rule="evenodd" clip-rule="evenodd" d="M17.1526 18.479C17.1526 18.8919 17.2677 19.3049 17.2677 19.7179C17.2677 19.9243 17.3828 20.1308 17.3828 20.3373C17.613 22.1956 18.6489 23.5377 20.1451 24.2604C20.2602 24.2604 20.2602 24.3636 20.2602 24.3636C21.6414 29.1126 25.9 32.726 30.8492 33.4486C31.4247 33.5519 32.0002 33.5519 32.5757 33.5519C36.3739 33.5519 39.8268 31.6936 42.1288 28.3899C42.5892 27.7705 42.9345 27.0478 43.3949 26.2219C43.51 25.9122 43.6251 25.6025 43.7401 25.2927C43.8553 24.8798 43.9703 24.6733 44.0854 24.4668C44.3156 24.2604 44.5458 24.0539 44.8911 23.8474L45.3515 23.5377C46.5025 22.5053 46.8478 21.3697 46.9629 20.3373C46.9629 20.1308 47.078 19.9243 47.078 19.7179C47.1931 19.3049 47.1931 18.8919 47.1931 18.479C47.1931 18.1693 47.1931 17.8596 47.1931 17.5498V17.4466C47.1931 17.0336 47.078 16.5174 46.9629 16.1045H43.7401C43.6251 16.2077 43.6251 16.311 43.51 16.4142C43.9703 16.6207 44.4307 16.7239 44.6609 16.7239C44.776 16.8272 44.8911 17.0336 44.8911 17.2401V17.3434V17.5498C44.8911 17.7563 44.8911 18.066 44.8911 18.2725C44.8911 18.5822 44.776 18.9952 44.776 19.3049C44.776 19.5114 44.6609 19.7179 44.6609 20.0276C44.5458 20.9567 44.3156 21.4729 43.8552 21.7826C43.7401 21.8859 43.625 21.9891 43.3948 22.0923L43.2798 22.1956C43.1647 22.2988 43.1647 22.4021 43.1647 22.5053C42.9345 22.9183 42.4741 23.7442 42.4741 23.7442C41.7835 25.2927 40.9778 26.8413 39.7117 28.0802C37.64 30.4547 34.7625 31.5903 31.6549 31.1774C30.2737 30.9709 29.0077 30.5579 27.8567 29.8353C25.7849 28.9061 24.0585 26.8413 23.1377 24.983C23.0226 24.7766 22.332 23.0215 21.9867 22.4021L21.8716 22.2988C21.8716 22.2988 21.7565 22.2988 21.7565 22.1956C20.7206 21.6794 20.3753 20.5438 20.3753 19.9243C20.3753 19.7178 20.2602 19.5114 20.2602 19.2017C20.1451 18.8919 20.1451 18.479 20.1451 18.1693C20.1451 17.9628 20.1451 17.6531 20.1451 17.4466V17.2401C20.1451 17.0336 20.2602 16.7239 20.2602 16.7239C20.3753 16.7239 20.4904 16.7239 20.4904 16.7239C20.6055 16.7239 20.7206 16.7239 20.8357 16.7239C20.9508 16.7239 21.0659 16.7239 21.181 16.7239L21.5263 16.6207C21.7565 16.5174 21.8716 16.4142 21.9867 16.2077C21.9867 16.2077 21.9867 16.1045 22.1018 16.1045H17.9583C17.7281 16.5174 17.7281 16.9304 17.7281 17.4466V17.5498C17.1526 17.8596 17.1526 18.1693 17.1526 18.479H17.1526Z" fill="black"/>
<path fill-rule="evenodd" clip-rule="evenodd" d="M31.424 10.6313C32.5749 8.67022 34.8768 7.22519 37.524 7.22519C40.1711 7.22519 42.473 8.56701 43.624 10.6313H45.9258C45.9258 10.3217 46.0409 10.012 46.0409 9.70239C46.156 5.98658 44.0843 2.99329 40.4013 1.54825C39.9409 1.34181 39.5957 1.2386 39.2504 1.13538C36.8334 0.309648 34.5315 -9.51008e-06 32.1146 -9.51008e-06C31.6542 -9.51008e-06 31.0787 -9.51008e-06 30.6183 -9.51008e-06C29.1221 0.103203 27.1655 0.206426 25.4391 0.928944C25.2089 1.03216 25.0938 1.13538 24.8636 1.13538C24.1731 1.54825 23.5976 1.96111 23.2523 2.68363H23.1372C22.4467 3.0965 21.8712 3.61258 21.4108 4.12867C20.7203 4.43832 20.1448 4.85119 19.6844 5.47049C19.1089 6.29622 18.8787 7.43161 18.7637 8.67021C18.7637 9.39273 18.7637 10.012 18.7637 10.6313H31.424L31.424 10.6313Z" fill="black"/>
</svg>
