<svg width="64" height="64" viewBox="0 0 64 64" fill="none" xmlns="http://www.w3.org/2000/svg">
<path d="M5.33325 16C5.33325 11.9867 7.41325 7.78671 10.6666 5.33337C10.6666 7.58671 12.5066 10.6667 15.9999 10.6667C18.1217 10.6667 20.1565 11.5096 21.6568 13.0099C23.1571 14.5101 23.9999 16.545 23.9999 18.6667C23.9999 19.696 23.7893 20.672 23.4346 21.576C25.4126 23.1459 27.3605 24.7533 29.2773 26.3974L23.7306 31.944C22.0871 30.0268 20.4798 28.0789 18.9093 26.1014C17.9836 26.4708 16.9966 26.6626 15.9999 26.6667C10.1066 26.6667 5.33325 21.8934 5.33325 16ZM37.7386 34.2614L41.3146 30.6854C42.9706 31.5379 44.8041 31.9883 46.6666 32C49.8492 32 52.9014 30.7358 55.1519 28.4853C57.4023 26.2349 58.6666 23.1826 58.6666 20C58.6666 18.0667 58.1653 16.264 57.3519 14.648L47.9999 24L42.6666 18.6667L52.0186 9.31471C50.3626 8.46218 48.5291 8.01179 46.6666 8.00004C43.484 8.00004 40.4317 9.26432 38.1813 11.5148C35.9309 13.7652 34.6666 16.8174 34.6666 20C34.6666 21.9334 35.1679 23.736 35.9813 25.352L7.99992 53.3334L13.3333 58.6667L31.5946 40.4054C36.6169 45.5584 41.9391 50.4104 47.5333 54.936L51.3333 58L55.3333 54L52.2693 50.2C47.7436 44.6058 42.8916 39.2837 37.7386 34.2614Z" fill="black"/>
<path d="M10.6666 5.33337C7.41325 7.78671 5.33325 11.9867 5.33325 16C5.33325 21.8934 10.1066 26.6667 15.9999 26.6667C16.9966 26.6626 17.9836 26.4708 18.9093 26.1014C20.4798 28.0789 22.0871 30.0268 23.7306 31.944L29.2773 26.3974C27.3605 24.7533 25.4126 23.1459 23.4346 21.576C23.7893 20.672 23.9999 19.696 23.9999 18.6667C23.9999 16.545 23.1571 14.5101 21.6568 13.0099C20.1565 11.5096 18.1217 10.6667 15.9999 10.6667C12.5066 10.6667 10.6666 7.58671 10.6666 5.33337Z" fill="#EE0033"/>
</svg>
