<svg width="16" height="16" viewBox="0 0 16 16" fill="none" xmlns="http://www.w3.org/2000/svg">
<path d="M15.5556 0H5.7778C5.53214 0 5.33334 0.198792 5.33334 0.444458C5.33334 0.690125 5.53214 0.888917 5.7778 0.888917H14.4827L0.130219 15.2413C-0.0434062 15.415 -0.0434062 15.6962 0.130219 15.8698C0.21701 15.9566 0.33076 16 0.444469 16C0.558177 16 0.671885 15.9566 0.758719 15.8698L15.1111 1.51737V10.2222C15.1111 10.4679 15.3099 10.6667 15.5556 10.6667C15.8013 10.6667 16.0001 10.4679 16.0001 10.2222V0.444458C16 0.198792 15.8012 0 15.5556 0Z" fill="#EE0033"/>
</svg>
