<svg width="20" height="25" viewBox="0 0 20 25" fill="none" xmlns="http://www.w3.org/2000/svg">
<path d="M18.9235 2.86938H16.5839V0.707031C16.5839 0.448141 16.374 0.238281 16.1152 0.238281H0.953125C0.694281 0.238281 0.484375 0.448141 0.484375 0.707031V21.1386C0.484375 21.3975 0.694281 21.6074 0.953125 21.6074H3.77125V23.7695C3.77125 24.0284 3.98116 24.2383 4.24 24.2383H18.9235C19.1823 24.2383 19.3922 24.0284 19.3922 23.7695V3.33812C19.3923 3.07923 19.1823 2.86938 18.9235 2.86938V2.86938ZM1.42188 1.17578H15.6464V20.6697L1.42188 20.6698V1.17578ZM18.4548 23.3008H4.7088V21.6074H16.1152C16.3706 21.6074 16.5841 21.3939 16.5841 21.1385V3.80687H18.4548V23.3008Z" fill="#EA0033"/>
<path d="M9.73828 4.80078H13.1114C13.3702 4.80078 13.5802 4.59092 13.5802 4.33203C13.5802 4.07314 13.3702 3.86328 13.1114 3.86328H9.73828C9.47944 3.86328 9.26953 4.07314 9.26953 4.33203C9.26953 4.59092 9.47944 4.80078 9.73828 4.80078Z" fill="#EA0033"/>
<path d="M9.73828 7.94922H13.1114C13.3702 7.94922 13.5802 7.73936 13.5802 7.48047C13.5802 7.22158 13.3702 7.01172 13.1114 7.01172H9.73828C9.47944 7.01172 9.26953 7.22158 9.26953 7.48047C9.26953 7.73936 9.47944 7.94922 9.73828 7.94922Z" fill="#EA0033"/>
<path d="M9.73828 11.1406H13.1114C13.3702 11.1406 13.5802 10.9308 13.5802 10.6719C13.5802 10.413 13.3702 10.2031 13.1114 10.2031H9.73828C9.47944 10.2031 9.26953 10.413 9.26953 10.6719C9.26953 10.9308 9.47944 11.1406 9.73828 11.1406Z" fill="#EA0033"/>
<path d="M4.07813 14.2852H13.1127C13.3715 14.2852 13.5814 14.0753 13.5814 13.8164C13.5814 13.5575 13.3715 13.3477 13.1127 13.3477H4.07813C3.81928 13.3477 3.60938 13.5575 3.60938 13.8164C3.60938 14.0753 3.81928 14.2852 4.07813 14.2852Z" fill="#EA0033"/>
<path d="M10.9773 17.4297C11.2362 17.4297 11.4461 17.2198 11.4461 16.9609C11.4461 16.702 11.2362 16.4922 10.9773 16.4922H4.07813C3.81928 16.4922 3.60938 16.702 3.60938 16.9609C3.60938 17.2198 3.81928 17.4297 4.07813 17.4297H10.9773Z" fill="#EA0033"/>
<path d="M13.5451 16.7923C13.4468 16.5566 13.1693 16.4409 12.933 16.5387C12.6973 16.6363 12.5815 16.9153 12.6794 17.1509C12.7772 17.3867 13.0556 17.5024 13.2915 17.4045C13.5281 17.3064 13.642 17.0289 13.5451 16.7923Z" fill="#EA0033"/>
<path d="M4.12842 10.8618C4.12842 11.2423 4.58072 11.4666 4.88362 11.2329L5.98238 10.3846L7.08159 11.2329C7.38403 11.4664 7.8367 11.243 7.8367 10.8618V7.46439C8.16089 7.05855 8.35533 6.54484 8.35533 5.98623C8.35533 4.67777 7.2908 3.61328 5.98233 3.61328C4.67386 3.61328 3.60938 4.67777 3.60938 5.98623C3.60938 6.54503 3.80395 7.05892 4.12833 7.46481V10.8618H4.12842ZM6.26873 9.42128C6.10195 9.29252 5.8627 9.29261 5.69588 9.42133L5.06592 9.9077V8.17492C5.34806 8.29352 5.65767 8.35919 5.98242 8.35919C6.30727 8.35919 6.61706 8.29342 6.8993 8.17478V9.90789L6.26873 9.42128ZM5.98242 4.55078C6.77395 4.55078 7.41792 5.1947 7.41792 5.98623C7.41792 6.75302 6.81356 7.38133 6.0562 7.41986C5.25023 7.46008 4.54697 6.7938 4.54697 5.98623C4.54697 5.1947 5.19089 4.55078 5.98242 4.55078Z" fill="#EA0033"/>
</svg>
