<svg width="25" height="25" viewBox="0 0 25 25" fill="none" xmlns="http://www.w3.org/2000/svg">
<g clip-path="url(#clip0_2186_18038)">
<path d="M24.3082 12.2367C24.3076 12.0676 24.216 11.912 24.0685 11.8293L20.0748 9.59176L24.0713 7.31748C24.2963 7.18942 24.3749 6.90324 24.2468 6.67824C24.1187 6.4532 23.8326 6.37468 23.6076 6.50265L12.9392 12.5738L2.98683 6.91004L12.9393 1.24632L19.2919 4.86053C19.5169 4.98849 19.803 4.90993 19.9311 4.68489C20.0591 4.45989 19.9805 4.17367 19.7555 4.04565L13.171 0.299588C13.0273 0.217838 12.8511 0.217838 12.7073 0.299635L1.80722 6.50265C1.66078 6.58599 1.57031 6.74157 1.57031 6.91004C1.57031 7.07856 1.66078 7.23409 1.80722 7.31743L5.80369 9.59171L1.80998 11.8293C1.66252 11.9119 1.57088 12.0676 1.57036 12.2367C1.5698 12.4057 1.66031 12.562 1.80727 12.6457L5.80373 14.9199L1.81003 17.1575C1.66256 17.2402 1.57092 17.3958 1.57041 17.5649C1.56984 17.7339 1.66036 17.8902 1.80731 17.9739L12.7075 24.177C12.7793 24.2178 12.8594 24.2383 12.9393 24.2383C13.0193 24.2383 13.0993 24.2179 13.1712 24.177L24.0712 17.9739C24.2182 17.8903 24.3087 17.734 24.3082 17.5649C24.3076 17.3958 24.216 17.2402 24.0685 17.1575L20.0748 14.9199L24.0713 12.6457C24.2182 12.562 24.3087 12.4058 24.3082 12.2367ZM22.8861 17.5697L12.9392 23.2302L2.99241 17.5697L6.7552 15.4614L12.7074 18.8487C12.7792 18.8896 12.8593 18.91 12.9392 18.91C13.0192 18.91 13.0992 18.8896 13.1711 18.8487L19.1233 15.4614L22.8861 17.5697ZM12.9392 17.9019L2.99241 12.2415L6.7552 10.1333L12.7074 13.5205C12.7792 13.5614 12.8593 13.5819 12.9392 13.5819C13.0192 13.5819 13.0992 13.5614 13.1711 13.5205L19.1233 10.1333L22.8861 12.2415L12.9392 17.9019Z" fill="#EA0033"/>
<path d="M21.3548 5.97122C21.1593 5.97122 20.9791 5.84475 20.9135 5.66034C20.8487 5.47847 20.904 5.27006 21.0516 5.14519C21.2057 5.01478 21.4306 4.99903 21.6021 5.10468C21.7661 5.2057 21.8522 5.40567 21.8142 5.59434C21.7705 5.81067 21.5757 5.97122 21.3548 5.97122Z" fill="#EA0033"/>
</g>
<defs>
<clipPath id="clip0_2186_18038">
<rect width="24" height="24" fill="white" transform="translate(0.9375 0.238281)"/>
</clipPath>
</defs>
</svg>
