<svg width="25" height="25" viewBox="0 0 25 25" fill="none" xmlns="http://www.w3.org/2000/svg">
<g clip-path="url(#clip0_2186_18037)">
<path d="M12.9376 6.71094C12.6788 6.71094 12.4689 6.9208 12.4689 7.17969V8.11541C11.4133 8.33281 10.6172 9.26928 10.6172 10.3882C10.6172 11.6677 11.6581 12.7087 12.9376 12.7087C13.7002 12.7087 14.3206 13.3291 14.3206 14.0916C14.3206 14.8542 13.7002 15.4746 12.9376 15.4746C12.4184 15.4746 11.9474 15.1879 11.7085 14.7263C11.5895 14.4964 11.3066 14.4065 11.0767 14.5255C10.8468 14.6445 10.7569 14.9274 10.8759 15.1573C11.2032 15.7895 11.7902 16.2259 12.4689 16.3647V17.3002C12.4689 17.5591 12.6788 17.769 12.9376 17.769C13.1965 17.769 13.4064 17.5591 13.4064 17.3002V16.3645C14.462 16.1471 15.2581 15.2106 15.2581 14.0917C15.2581 12.8121 14.2171 11.7712 12.9376 11.7712C12.1751 11.7712 11.5547 11.1508 11.5547 10.3882C11.5547 9.62567 12.1751 9.00528 12.9376 9.00528C13.4569 9.00528 13.9278 9.29201 14.1668 9.75359C14.2859 9.98351 14.5687 10.0734 14.7986 9.95436C15.0285 9.83534 15.1184 9.5525 14.9994 9.32258C14.6722 8.69042 14.0851 8.25402 13.4064 8.11522V7.17969C13.4064 6.9208 13.1965 6.71094 12.9376 6.71094Z" fill="#EA0033"/>
<path d="M20.5408 12.6035C20.7342 12.7652 21.0457 12.7303 21.1998 12.5315L22.4351 10.9926C22.5972 10.7908 22.5649 10.4957 22.363 10.3337C22.1611 10.1716 21.8661 10.2039 21.704 10.4058L21.2135 11.0169C21.1592 10.6517 21.0814 10.2892 20.9789 9.93181C20.3629 7.78348 18.9471 6.00359 16.9924 4.92008C15.0377 3.83661 12.778 3.57908 10.6297 4.19516C8.40784 4.83223 6.5312 6.3792 5.48092 8.43936C5.36335 8.66998 5.45499 8.95231 5.68562 9.06988C5.91634 9.18748 6.19853 9.09575 6.31613 8.86517C7.24876 7.03573 8.91521 5.66202 10.8881 5.09633C12.7958 4.5493 14.8022 4.77795 16.5379 5.74002C18.2736 6.70213 19.5308 8.28256 20.0777 10.1902C20.1733 10.5233 20.2453 10.8612 20.2937 11.2016L19.5906 10.6359C19.3888 10.4737 19.0937 10.5057 18.9315 10.7074C18.7693 10.9091 18.8012 11.2041 19.0029 11.3664L20.5405 12.6033C20.5405 12.6034 20.5406 12.6035 20.5408 12.6035Z" fill="#EA0033"/>
<path d="M6.57721 13.9426C6.71427 13.9426 6.85016 13.8828 6.94274 13.7677C7.10497 13.566 7.073 13.2709 6.8713 13.1086L5.33375 11.8717C5.14039 11.7105 4.82839 11.7441 4.67441 11.9436L3.43916 13.4824C3.27711 13.6843 3.30936 13.9793 3.5113 14.1414C3.59783 14.2109 3.70147 14.2446 3.80441 14.2446C3.94166 14.2446 4.07769 14.1846 4.17027 14.0692L4.66082 13.4581C4.71514 13.8233 4.79286 14.1858 4.89538 14.5432C5.51141 16.6916 6.92718 18.4714 8.88186 19.5549C10.1406 20.2527 11.5256 20.6078 12.9261 20.6078C13.7004 20.6078 14.4797 20.4992 15.2446 20.2799C17.4664 19.6428 19.3431 18.0958 20.3934 16.0357C20.5109 15.805 20.4193 15.5227 20.1887 15.4051C19.9581 15.2876 19.6758 15.3792 19.5582 15.6098C18.6255 17.4393 16.9591 18.813 14.9862 19.3787C13.0785 19.9256 11.0721 19.6971 9.33636 18.735C7.60068 17.7729 6.34353 16.1925 5.79655 14.2848C5.70102 13.9517 5.62897 13.6138 5.58055 13.2734L6.28372 13.8391C6.3703 13.9088 6.47408 13.9426 6.57721 13.9426Z" fill="#EA0033"/>
<path d="M15.1321 0.43753C14.8776 0.390655 14.6331 0.558702 14.586 0.81328C14.5389 1.06786 14.7072 1.31236 14.9618 1.35942C20.1989 2.32758 24 6.90234 24 12.2372C24 18.3371 19.0374 23.2997 12.9375 23.2997C6.83761 23.2997 1.875 18.3371 1.875 12.2372C1.875 6.90234 5.67614 2.32758 10.9133 1.35942C11.1679 1.31236 11.3361 1.06781 11.289 0.81328C11.242 0.558702 10.9975 0.390655 10.7429 0.43753C5.06123 1.48786 0.9375 6.45033 0.9375 12.2372C0.9375 15.4425 2.18569 18.456 4.45223 20.7225C6.71873 22.989 9.73219 24.2372 12.9375 24.2372C16.1428 24.2372 19.1563 22.989 21.4228 20.7225C23.6893 18.456 24.9375 15.4425 24.9375 12.2372C24.9375 6.45033 20.8138 1.48786 15.1321 0.43753Z" fill="#EA0033"/>
<path d="M12.9375 1.17578C13.1964 1.17578 13.4062 0.965915 13.4062 0.707031C13.4062 0.448148 13.1964 0.238281 12.9375 0.238281C12.6786 0.238281 12.4688 0.448148 12.4688 0.707031C12.4688 0.965915 12.6786 1.17578 12.9375 1.17578Z" fill="#EA0033"/>
</g>
<defs>
<clipPath id="clip0_2186_18037">
<rect width="24" height="24" fill="white" transform="translate(0.9375 0.238281)"/>
</clipPath>
</defs>
</svg>
