<svg width="424" height="311" viewBox="0 0 424 311" fill="none" xmlns="http://www.w3.org/2000/svg">
<path d="M194.433 311C301.695 311 388.648 302.571 388.648 292.173C388.648 281.775 301.695 273.346 194.433 273.346C87.1704 273.346 0.217285 281.775 0.217285 292.173C0.217285 302.571 87.1704 311 194.433 311Z" fill="#D50834"/>
<path d="M114.588 153.417C114.942 153.797 115.546 153.813 115.923 153.459L121.8 147.931C122.18 147.576 122.197 146.972 121.842 146.595C121.487 146.215 120.884 146.199 120.507 146.553L114.629 152.081C114.25 152.436 114.233 153.04 114.588 153.417Z" fill="#FF967E"/>
<path d="M112.931 151.654C113.286 152.034 113.889 152.051 114.266 151.696L120.839 145.514C121.219 145.16 121.236 144.556 120.881 144.179C120.524 143.799 119.923 143.782 119.546 144.137L112.973 150.319C112.593 150.676 112.576 151.277 112.931 151.654Z" fill="#FF967E"/>
<path d="M109.065 154.397L109.397 154.445C110.02 154.534 110.601 154.101 110.694 153.478L111.571 147.419C111.66 146.796 111.227 146.215 110.604 146.126L110.272 146.079C109.649 145.989 109.068 146.425 108.976 147.045L108.099 153.104C108.009 153.727 108.445 154.308 109.065 154.4V154.397Z" fill="#FF967E"/>
<path d="M111.272 149.891C111.627 150.271 112.23 150.288 112.607 149.933L117.876 144.978C118.255 144.623 118.272 144.02 117.917 143.643C117.56 143.263 116.959 143.246 116.582 143.601L111.314 148.556C110.934 148.914 110.917 149.514 111.272 149.891Z" fill="#FF967E"/>
<path d="M112.367 157.76C112.367 157.76 117.632 156.562 119.272 153.093C119.839 151.891 114.817 146.838 113.395 147.28C111.973 147.721 108.741 151.414 108.741 151.414L112.367 157.763V157.76Z" fill="#FF967E"/>
<path d="M116.23 155.171C116.585 155.548 117.185 155.568 117.562 155.213L122.82 150.269C123.197 149.914 123.216 149.313 122.861 148.936C122.507 148.559 121.906 148.539 121.529 148.894L116.272 153.838C115.895 154.193 115.875 154.794 116.23 155.171Z" fill="#FF967E"/>
<path d="M108.537 149.841C99.1961 154.727 85.397 161.017 72.6929 163.249C69.7488 163.766 68.6175 163.92 66.8632 163.975C65.4526 164.02 63.9219 166.556 63.9693 168.973C64.014 171.241 65.609 173.191 67.3102 173.459C68.5811 173.657 69.9192 173.562 73.2097 173.04C84.64 171.224 97.6542 166.163 113.096 157.559L108.537 149.844V149.841Z" fill="#FF967E"/>
<path d="M55.7099 284.745C55.7099 284.745 55.7853 287.79 57.8468 288.648C59.9055 289.505 65.8748 290.282 63.6458 292.24C62.3664 293.363 56.3356 292.637 54.6317 292.637C52.9277 292.637 51.3299 293.38 50.0645 292.24C48.6735 290.986 50.0645 284.745 50.0645 284.745C50.0645 284.745 51.5338 285.511 52.8551 285.477C54.7602 285.427 55.7099 284.745 55.7099 284.745Z" fill="#66192D"/>
<path d="M32.0502 284.743C32.0502 284.743 32.1256 287.787 34.1871 288.645C36.2486 289.503 42.2152 290.279 39.9861 292.237C38.7067 293.36 32.6759 292.634 30.972 292.634C29.2681 292.634 27.6703 293.377 26.4049 292.237C25.0138 290.983 26.4049 284.743 26.4049 284.743C26.4049 284.743 27.8742 285.508 29.1954 285.474C31.1005 285.424 32.0502 284.743 32.0502 284.743Z" fill="#66192D"/>
<path d="M71.0197 201.286C71.0197 201.286 71.3996 214.029 67.3325 238.477C64.3967 256.125 60.9302 273.91 59.229 282.435C58.6201 285.486 56.0558 287.715 53.0167 287.838L51.3826 287.902C48.0948 288.033 45.4272 285.209 45.6674 281.854L49.7932 224.172L50.8099 205.186L71.0169 201.286H71.0197Z" fill="#FFBA41"/>
<path d="M35.3154 210.979C35.3154 212.54 44.0446 213.409 54.8688 213.348C65.693 213.289 74.2993 212.797 74.2993 211.236C74.2993 209.674 65.693 207.63 54.8716 207.691C44.0474 207.75 35.3182 209.417 35.3182 210.979H35.3154Z" fill="#66192D"/>
<path d="M62.5173 212.141L35.7655 284.03C34.8046 287.111 32.0308 289.226 28.8687 289.279L27.4916 289.301C24.2374 289.357 21.7513 286.349 22.3435 283.075L36.2906 211.823C36.4722 211.001 39.3689 210.621 40.1929 210.554C47.017 209.987 62.9391 209.096 62.5173 212.141Z" fill="#FFBA41"/>
<path d="M44.9665 169.436C44.9665 169.436 49.2152 161.38 59.9137 163.325C64.9697 164.244 70.3496 165.936 71.5787 175.244C72.6821 183.601 75.5592 195.065 74.2994 211.239C74.2994 211.239 57.2489 204.828 35.3184 210.848C35.3184 210.848 36.134 187.107 40.0698 173.601C41.1788 169.8 43.5392 172.006 44.9693 169.439L44.9665 169.436Z" fill="#B30700"/>
<path d="M36.2344 164.637L44.3993 173.814C44.3993 173.814 69.165 180.839 71.6986 176.14C75.4389 169.202 71.4584 162.414 71.4584 162.414C71.4584 162.414 62.3102 162.746 57.852 162.819C56.2347 162.847 52.4106 162.501 50.8212 162.45C39.7428 162.087 36.2372 164.637 36.2372 164.637H36.2344Z" fill="#B20700"/>
<path d="M47.74 252.404L47.3657 252.318L53.0055 228.214C54.1479 224.736 56.4916 221.848 59.6061 220.063L59.7989 220.398C56.7681 222.136 54.4859 224.948 53.377 228.317L47.74 252.404Z" fill="#020202"/>
<path d="M62.5782 160.741L62.5503 160.618C62.5642 160.615 63.9553 160.305 64.3659 159.369C64.5782 158.883 64.4944 158.308 64.1117 157.66C63.933 157.355 63.7682 157.079 63.6145 156.827C62.5698 155.087 62.1815 154.433 62.5028 153.034L62.6257 153.062C62.3128 154.414 62.6676 155.006 63.7207 156.763C63.8715 157.014 64.0363 157.291 64.2179 157.598C64.6201 158.283 64.7095 158.897 64.4777 159.422C64.0419 160.417 62.6341 160.73 62.5726 160.744L62.5782 160.741Z" fill="#66192D"/>
<path d="M62.57 153.048C62.57 153.048 62.0449 155.216 63.4416 157.526C64.8382 159.836 63.2349 161.47 61.2963 160.554C59.3577 159.637 58.5616 162.115 56.0895 160.688C53.6174 159.26 62.5672 153.048 62.5672 153.048H62.57Z" fill="#66192D"/>
<path d="M50.8211 162.448C51.9049 162.353 52.8546 161.693 53.3044 160.704L54.715 157.604L55.1228 156.704L57.5279 151.414L57.0195 156.936L56.7122 160.249L56.6257 161.193C56.5558 161.964 57.081 162.657 57.8408 162.811H57.8547C58.2514 163.487 58.7877 164.85 57.0893 165.353C55.0949 165.945 51.9189 164.319 50.8071 162.448C50.8127 162.448 50.8183 162.448 50.8239 162.448H50.8211Z" fill="#FF967E"/>
<path d="M54.7122 157.514C54.7122 157.545 54.7122 157.576 54.715 157.607C54.81 159.392 56.7011 160.263 56.7011 160.263L56.7123 160.255L57.0195 156.942C56.4413 156.716 55.6145 156.481 55.1256 156.71C54.8686 156.83 54.7038 157.076 54.7122 157.517V157.514Z" fill="#66192D"/>
<path d="M62.9583 152.411C63.031 148.872 60.7628 145.956 57.8912 145.897C55.0225 145.838 52.637 148.662 52.5671 152.202C52.4945 155.741 54.7627 158.657 57.6342 158.716C60.503 158.774 62.8885 155.95 62.9583 152.411Z" fill="#FF967E"/>
<path d="M53.24 153.182C53.8182 153.755 54.6395 153.83 55.0752 153.347C55.511 152.864 55.3965 152.009 54.821 151.436C54.2428 150.864 53.4216 150.788 52.9858 151.271C52.5501 151.755 52.6646 152.609 53.24 153.185V153.182Z" fill="#FF967E"/>
<path d="M60.475 156.512C60.475 156.512 58.6985 156.517 56.9387 155.858C56.9387 155.858 56.7571 157.604 58.6761 157.76C59.7935 157.85 60.4778 156.512 60.4778 156.512H60.475Z" fill="#DB6B49"/>
<path d="M60.4748 156.512C60.4748 156.512 60.0391 156.861 59.0363 156.836C58.0335 156.811 56.9385 155.858 56.9385 155.858C56.9385 155.858 59.0642 156.489 60.4748 156.512Z" fill="white"/>
<path d="M58.2627 152.38C58.2962 152.372 58.327 152.347 58.3437 152.311C58.3689 152.249 58.3437 152.182 58.2823 152.154C58.2459 152.14 57.461 151.716 56.7459 152.464C56.7012 152.512 56.7012 152.584 56.7459 152.632C56.7934 152.679 56.8577 152.665 56.9135 152.632C57.4638 152.277 58.1594 152.361 58.1901 152.372C58.2152 152.383 58.2404 152.383 58.2655 152.378L58.2627 152.38Z" fill="#060633"/>
<path d="M57.3017 153.66C57.2877 153.942 57.4413 154.179 57.6452 154.188C57.8492 154.196 58.0279 153.978 58.0419 153.696C58.0559 153.414 57.9022 153.176 57.6983 153.165C57.4944 153.154 57.3156 153.375 57.3017 153.657V153.66Z" fill="#060633"/>
<path d="M62.4697 153.082C62.506 153.087 62.5423 153.076 62.5702 153.048C62.6177 153.003 62.6177 152.928 62.5702 152.88C62.5423 152.852 61.978 152.16 61.0311 152.581C60.9724 152.609 60.9417 152.676 60.9668 152.735C60.992 152.797 61.0562 152.811 61.1233 152.799C61.7657 152.682 62.3803 153.023 62.4026 153.045C62.4222 153.065 62.4445 153.076 62.4697 153.079V153.082Z" fill="#060633"/>
<path d="M61.0924 153.897C60.9723 154.151 61.0226 154.431 61.2097 154.517C61.3969 154.604 61.6427 154.47 61.7628 154.216C61.8829 153.961 61.8326 153.682 61.6455 153.595C61.4611 153.509 61.2125 153.643 61.0924 153.897Z" fill="#060633"/>
<path d="M60.0727 147.104C60.0727 147.104 59.9162 149.324 57.1313 149.648C54.3463 149.972 52.4077 151.109 52.7401 153.115C53.0725 155.123 57.4665 159.364 54.1424 160.906C50.8211 162.447 51.5809 159.464 47.9998 160.087C44.4188 160.71 43.8713 155.933 46.3825 153.218C48.8937 150.503 48.0473 143.168 57.2514 143.679C66.4554 144.19 62.933 151.47 62.933 151.47C62.933 151.47 60.0168 149.559 60.0727 147.104Z" fill="#66192D"/>
<path d="M53.1873 161.299L53.1622 161.23C53.8465 160.97 54.2544 160.587 54.408 160.065C54.8326 158.618 53.151 156.344 51.6677 154.341C51.2739 153.811 50.9024 153.308 50.5727 152.827C49.6565 151.492 49.6062 149.922 50.4387 148.727C51.3633 147.4 53.0812 146.863 54.922 147.33C58.3271 148.193 59.7991 146.162 59.8131 146.14L59.8746 146.182C59.8606 146.201 58.3578 148.274 54.9052 147.4C53.0951 146.942 51.408 147.464 50.5001 148.766C49.6733 149.953 49.7236 151.453 50.6342 152.783C50.9638 153.26 51.3325 153.763 51.7264 154.294C53.2208 156.313 54.9136 158.601 54.4778 160.084C54.3186 160.623 53.8856 161.031 53.1873 161.297V161.299Z" fill="white"/>
<path d="M62.0226 157.274C61.746 157.269 61.4807 157.188 61.232 157.026C60.1287 156.308 59.7488 154.202 60.3885 152.333C60.7795 151.188 61.4835 150.338 62.2684 150.067C62.7377 149.905 63.2041 149.956 63.6148 150.229C64.7181 150.945 65.098 153.048 64.4612 154.919C64.0701 156.068 63.3662 156.917 62.5812 157.188C62.3941 157.252 62.2069 157.28 62.0254 157.277L62.0226 157.274ZM60.6063 152.408C60.0002 154.182 60.3382 156.165 61.3605 156.833C61.7041 157.056 62.1008 157.098 62.503 156.967C63.2237 156.718 63.8718 155.922 64.2405 154.844C64.8466 153.067 64.5086 151.081 63.4891 150.419C63.1427 150.196 62.7488 150.151 62.3438 150.285C61.6231 150.534 60.9751 151.327 60.6063 152.408Z" fill="#FF4848"/>
<g opacity="0.3">
<path d="M54.4026 150.986C53.95 152.808 54.5758 154.785 55.802 155.406C57.0283 156.026 58.3915 155.048 58.844 153.227C59.2965 151.405 58.6708 149.428 57.4445 148.808C56.2182 148.188 54.8551 149.165 54.4026 150.986Z" fill="white"/>
</g>
<g opacity="0.3">
<path d="M60.3354 152.484C59.8801 154.313 60.3968 156.319 61.489 156.961C62.5812 157.604 63.8354 156.643 64.2907 154.813C64.7461 152.984 64.2293 150.978 63.1371 150.336C62.0449 149.693 60.7907 150.654 60.3354 152.486V152.484Z" fill="white"/>
</g>
<path d="M56.6734 155.651C56.3941 155.646 56.1175 155.576 55.8494 155.442C54.4946 154.777 53.7991 152.649 54.2935 150.702C54.5784 149.57 55.2041 148.707 56.0086 148.336C56.57 148.079 57.1511 148.087 57.6958 148.355C59.0477 149.026 59.7461 151.151 59.2516 153.095C58.9639 154.23 58.3382 155.093 57.531 155.464C57.2488 155.593 56.9583 155.657 56.6734 155.651ZM56.8689 148.378C56.6119 148.372 56.3578 148.428 56.1064 148.542C55.3773 148.883 54.7823 149.71 54.5169 150.757C54.0477 152.604 54.6929 154.612 55.9499 155.235C56.4276 155.464 56.9416 155.473 57.4332 155.255C58.165 154.92 58.7628 154.087 59.0282 153.037C59.4947 151.19 58.8522 149.182 57.5952 148.559C57.3578 148.445 57.1147 148.383 56.8689 148.378Z" fill="#FF4848"/>
<path d="M60.5672 153.174C60.5197 153.174 60.4694 153.154 60.4303 153.121C60.408 153.101 59.8577 152.651 58.8884 152.816C58.7739 152.83 58.6594 152.757 58.637 152.64C58.6147 152.523 58.6957 152.411 58.813 152.394C59.9834 152.174 60.6817 152.769 60.7125 152.794C60.8019 152.872 60.8102 153.009 60.732 153.098C60.6901 153.151 60.6259 153.176 60.5644 153.174H60.5672Z" fill="#FF4848"/>
<path d="M36.1788 164.699C35.3185 165.529 36.1844 167.883 39.0839 170.716C41.9806 173.545 43.3381 174.573 44.5923 173.185C45.422 172.266 45.327 168.481 42.3325 166.098C40.0085 164.246 36.7933 164.11 36.1788 164.699Z" fill="#66192D"/>
<path d="M40.5947 210.521C40.5947 210.521 55.2374 208.096 69.5561 211.253C70.2125 211.398 70.6622 212.01 70.598 212.677L70.0896 218.021L55.1061 214.292L40.5947 210.518V210.521Z" fill="#FFBA41"/>
<path d="M13.3711 211.557C12.8571 211.482 12.3739 211.839 12.2985 212.356L11.1253 220.339C11.0499 220.853 11.4074 221.337 11.9242 221.412C12.4381 221.487 12.9214 221.13 12.9968 220.613L14.17 212.63C14.2454 212.116 13.8879 211.632 13.3739 211.557H13.3711Z" fill="#FF967E"/>
<path d="M15.7647 211.909C15.2507 211.834 14.7675 212.191 14.6921 212.705L13.3792 221.633C13.3038 222.147 13.6613 222.63 14.1753 222.705C14.6893 222.781 15.1725 222.423 15.2479 221.909L16.5608 212.982C16.6362 212.468 16.2787 211.984 15.7619 211.909H15.7647Z" fill="#FF967E"/>
<path d="M17.092 207.356L16.8015 207.523C16.2568 207.839 16.0724 208.543 16.388 209.085L19.4635 214.378C19.7792 214.923 20.4831 215.107 21.025 214.792L21.3155 214.624C21.8602 214.309 22.0446 213.605 21.7289 213.063L18.6534 207.769C18.3378 207.225 17.6339 207.04 17.092 207.356Z" fill="#FF967E"/>
<path d="M18.1587 212.261C17.6447 212.186 17.1615 212.543 17.0861 213.057L16.033 220.214C15.9576 220.728 16.3151 221.211 16.8319 221.286C17.3459 221.362 17.8291 221.004 17.9045 220.487L18.9576 213.331C19.033 212.817 18.6755 212.334 18.1587 212.258V212.261Z" fill="#FF967E"/>
<path d="M12.4155 206.772C12.4155 206.772 9.03272 210.982 9.90145 214.719C10.2031 216.012 17.2787 216.856 18.1195 215.627C18.9602 214.398 19.1977 209.496 19.1977 209.496L12.4155 206.772Z" fill="#FF967E"/>
<path d="M10.994 211.2C10.48 211.124 9.99953 211.482 9.92411 211.996L8.87381 219.138C8.79839 219.652 9.15594 220.133 9.66992 220.208C10.1839 220.283 10.6643 219.926 10.7398 219.412L11.7901 212.269C11.8655 211.755 11.5079 211.275 10.994 211.2Z" fill="#FF967E"/>
<path d="M20.332 210.599C24.6198 200.97 31.5277 187.467 40.1005 177.83C42.0865 175.599 42.877 174.774 44.2178 173.643C45.2961 172.733 44.9218 169.794 43.3826 167.931C41.9385 166.182 39.4775 165.643 37.9775 166.489C36.8574 167.124 35.8686 168.029 33.6143 170.481C25.7846 179.004 18.7258 191.054 11.9688 207.384L20.332 210.599Z" fill="#FF967E"/>
<g opacity="0.5">
<path d="M25.1784 189.476C24.9661 189.476 24.7594 189.428 24.5723 189.331C24.2594 189.166 24.0332 188.875 23.9186 188.493C23.7315 187.867 23.8628 187.057 24.2678 186.328C24.9494 185.099 26.1505 184.484 27.0025 184.931C27.3153 185.096 27.5416 185.386 27.6561 185.769C27.8433 186.395 27.712 187.205 27.3069 187.934C26.7762 188.892 25.9298 189.476 25.1784 189.476ZM26.4019 185.25C25.8237 185.25 25.1058 185.763 24.67 186.551C24.3237 187.174 24.2091 187.85 24.36 188.359C24.4158 188.54 24.5332 188.789 24.7846 188.92C25.3907 189.238 26.36 188.683 26.8991 187.708C27.2455 187.085 27.36 186.409 27.2092 185.9C27.1533 185.719 27.036 185.47 26.7846 185.339C26.6673 185.277 26.5388 185.25 26.4019 185.25Z" fill="#E08B65"/>
</g>
<path d="M115.392 149.439L116.303 156.224C116.652 158.819 119.035 160.64 121.63 160.291L129.879 159.188C132.474 158.841 134.298 156.456 133.949 153.861L133.306 149.062C133.03 146.992 134.139 144.984 136.041 144.12C136.404 143.956 136.764 143.785 137.122 143.606C138.868 142.738 140.971 143.07 142.401 144.391L145.63 147.372C147.555 149.148 150.555 149.028 152.332 147.104L157.977 140.986C159.751 139.064 159.633 136.067 157.712 134.291L154.482 131.305C153.055 129.983 152.558 127.916 153.281 126.109C153.429 125.74 153.572 125.369 153.706 124.994C154.413 123.028 156.329 121.757 158.415 121.869L163.248 122.126C165.863 122.265 168.094 120.26 168.234 117.645L168.678 109.329C168.818 106.715 166.812 104.483 164.2 104.343L157.362 103.975C155.519 103.877 153.913 102.709 153.217 101C152.63 99.5611 151.941 98.1588 151.15 96.7985C150.094 94.9856 150.315 92.6978 151.739 91.1559L155.396 87.1978C157.172 85.2731 157.052 82.2759 155.128 80.4993L149.013 74.8568C147.088 73.0802 144.091 73.2003 142.315 75.1249L137.398 80.4518C136.15 81.8038 134.231 82.3373 132.479 81.7731C132.058 81.6362 131.63 81.5105 131.203 81.3904C129.387 80.8848 128.057 79.3289 127.806 77.4602L126.784 69.8008C126.437 67.2058 124.052 65.3818 121.457 65.7309L113.202 66.8343C110.607 67.1807 108.786 69.5662 109.133 72.1612L110.012 78.7395C110.283 80.7591 109.23 82.72 107.404 83.6195C107.384 83.6279 107.364 83.639 107.345 83.6502C105.591 84.5217 103.479 84.2089 102.038 82.8793L97.4592 78.6501C95.5346 76.8736 92.5346 76.9909 90.758 78.9183L85.1099 85.0385C83.3333 86.9631 83.4562 89.9632 85.3808 91.7369L89.9591 95.9605C91.4005 97.2901 91.8809 99.3683 91.1519 101.19C91.1435 101.212 91.1323 101.234 91.1239 101.259C90.3697 103.153 88.4982 104.357 86.4647 104.248L79.8416 103.894C77.2271 103.754 74.9924 105.762 74.8527 108.377L74.4114 116.695C74.2745 119.31 76.2801 121.539 78.8947 121.679L86.6127 122.089C88.4954 122.19 90.1519 123.391 90.7999 125.162C90.9508 125.578 91.1128 125.992 91.2832 126.399C91.9843 128.101 91.6044 130.056 90.3558 131.408L85.4367 136.732C83.6601 138.654 83.7775 141.654 85.7021 143.43L91.8195 149.079C93.7441 150.855 96.7413 150.735 98.5179 148.813L102.177 144.852C103.602 143.31 105.859 142.908 107.75 143.816C109.166 144.495 110.621 145.067 112.099 145.537C113.862 146.095 115.152 147.604 115.398 149.433L115.392 149.439ZM109.135 127.388C102.032 120.83 102.253 105.849 108.811 98.7482C115.362 91.6531 127.859 92.8766 134.954 99.4354C142.055 105.986 139.979 118.69 133.421 125.793C126.87 132.897 116.239 133.95 109.135 127.391V127.388Z" fill="#C80000"/>
<path d="M136.474 245.697C137.161 247.817 137.999 249.901 138.99 251.932C140.314 254.642 139.756 257.89 137.557 259.955L131.901 265.253C129.155 267.826 129.015 272.139 131.588 274.885L139.77 283.62C142.342 286.366 146.655 286.505 149.401 283.933L157.005 276.807C158.935 274.999 161.742 274.432 164.192 275.424C164.784 275.661 165.379 275.891 165.977 276.103C168.53 277.016 170.273 279.385 170.438 282.089L171.105 293.176C171.332 296.93 174.558 299.793 178.315 299.567L190.265 298.849C194.022 298.623 196.885 295.391 196.656 291.634L196.078 282.117C195.899 279.192 197.614 276.491 200.326 275.388C200.36 275.374 200.391 275.36 200.424 275.349C203.03 274.282 206.028 274.952 207.95 277.008L214.067 283.544C216.637 286.293 220.95 286.435 223.698 283.863L232.439 275.681C235.187 273.108 235.327 268.795 232.754 266.047L226.629 259.51C224.704 257.454 224.232 254.424 225.467 251.893C225.48 251.865 225.494 251.837 225.508 251.806C226.785 249.172 229.592 247.639 232.497 248.007L241.964 249.203C245.696 249.675 249.107 247.03 249.579 243.298L251.079 231.421C251.551 227.686 248.905 224.278 245.171 223.806L234.154 222.415C231.464 222.077 229.215 220.18 228.472 217.574C228.296 216.962 228.109 216.353 227.911 215.744C227.084 213.233 227.83 210.468 229.76 208.658L237.363 201.535C240.109 198.962 240.252 194.652 237.679 191.906L229.503 183.174C226.93 180.428 222.617 180.286 219.871 182.858L214.218 188.155C212.017 190.219 208.732 190.56 206.114 189.06C204.153 187.934 202.128 186.959 200.056 186.132C197.592 185.149 195.899 182.853 195.74 180.205L195.142 170.378C194.913 166.623 191.684 163.763 187.93 163.992L175.983 164.716C172.225 164.945 169.365 168.174 169.594 171.928L170.016 178.872C170.198 181.872 168.393 184.635 165.572 185.674C165.038 185.87 164.505 186.076 163.977 186.294C161.387 187.353 158.412 186.66 156.499 184.621L152.175 180.009C149.602 177.266 145.295 177.126 142.549 179.696L133.814 187.875C131.066 190.448 130.926 194.761 133.499 197.507L137.817 202.116C139.733 204.16 140.231 207.18 138.999 209.697C138.747 210.214 138.504 210.733 138.27 211.255C137.049 213.999 134.175 215.616 131.197 215.236L124.292 214.362C120.557 213.89 117.146 216.532 116.677 220.267L115.177 232.136C114.705 235.868 117.348 239.275 121.079 239.75L130.842 240.988C133.476 241.323 135.658 243.164 136.476 245.692L136.474 245.697ZM164.639 214.842C174.781 205.342 193.016 202.225 202.505 212.364C212.005 222.493 213.894 240.443 203.762 249.932C193.62 259.432 172.094 259.904 162.594 249.762C153.094 239.619 154.499 224.328 164.639 214.842Z" fill="#AE0000"/>
<path d="M391.38 200.116C389.589 200.116 388.061 198.775 387.821 196.998L387.151 192.004C386.994 190.842 386.184 189.872 385.086 189.532C384.793 189.44 384.494 189.342 384.198 189.236C383.883 189.124 383.553 189.065 383.218 189.065C382.385 189.065 381.584 189.417 381.017 190.034L377.374 193.984C376.695 194.719 375.732 195.144 374.732 195.144C373.826 195.144 372.963 194.806 372.299 194.194L368.039 190.269C367.332 189.618 366.921 188.73 366.882 187.772C366.843 186.811 367.181 185.895 367.832 185.188L370.961 181.8C371.832 180.853 372.002 179.456 371.382 178.325L371.36 178.283C370.835 177.319 369.832 176.724 368.734 176.724C368.6 176.724 368.466 176.733 368.332 176.752L364.041 177.33C363.882 177.353 363.717 177.364 363.558 177.364C361.768 177.364 360.24 176.026 359.999 174.249L359.226 168.509C359.097 167.556 359.349 166.612 359.93 165.85C360.513 165.087 361.357 164.596 362.31 164.467L366.603 163.892C367.826 163.727 368.838 162.813 369.117 161.621L369.128 161.576C369.427 160.319 368.893 159.017 367.804 158.336L363.891 155.889C363.078 155.38 362.511 154.584 362.293 153.648C362.078 152.713 362.24 151.749 362.748 150.936L365.818 146.025C366.48 144.967 367.62 144.335 368.868 144.335C369.542 144.335 370.198 144.525 370.771 144.883L375.324 147.732C375.804 148.031 376.354 148.19 376.919 148.19C377.528 148.19 378.109 148.009 378.603 147.662C378.857 147.486 379.12 147.31 379.382 147.143C380.352 146.525 380.877 145.375 380.72 144.213L380.05 139.218C379.787 137.254 381.17 135.441 383.131 135.179L388.866 134.408C389.025 134.386 389.19 134.374 389.349 134.374C391.14 134.374 392.668 135.715 392.905 137.489L393.405 141.201C393.581 142.514 394.592 143.545 395.916 143.763C396.997 143.942 398.075 144.199 399.123 144.528C399.422 144.623 399.732 144.671 400.042 144.671C400.88 144.671 401.682 144.322 402.246 143.71L405.475 140.21C406.154 139.475 407.115 139.053 408.118 139.053C409.023 139.053 409.888 139.391 410.553 140.006L414.808 143.93C415.514 144.581 415.922 145.467 415.961 146.428C416 147.386 415.662 148.305 415.011 149.009L412.729 151.481C411.827 152.461 411.673 153.889 412.352 155.034C412.495 155.274 412.632 155.517 412.766 155.763C413.28 156.71 414.28 157.297 415.377 157.297C415.511 157.297 415.646 157.288 415.78 157.269L418.81 156.864C418.97 156.841 419.132 156.83 419.291 156.83C421.079 156.83 422.609 158.168 422.847 159.945L423.618 165.679C423.746 166.632 423.495 167.576 422.914 168.339C422.333 169.101 421.486 169.593 420.534 169.721L417.506 170.129C416.28 170.294 415.271 171.199 414.995 172.381C414.93 172.654 414.861 172.928 414.788 173.199C414.439 174.481 414.961 175.819 416.093 176.523L418.947 178.308C419.763 178.816 420.33 179.613 420.545 180.548C420.76 181.484 420.601 182.448 420.09 183.261L417.023 188.166C416.361 189.224 415.221 189.856 413.972 189.856C413.302 189.856 412.643 189.666 412.073 189.311L408.037 186.789C407.562 186.493 407.017 186.336 406.458 186.336C405.9 186.336 405.302 186.504 404.807 186.825C403.886 187.42 402.916 187.953 401.922 188.412C400.701 188.973 400 190.233 400.176 191.546L400.676 195.261C400.805 196.213 400.553 197.158 399.972 197.92C399.388 198.683 398.545 199.174 397.592 199.303L391.855 200.074C391.695 200.096 391.533 200.107 391.371 200.107L391.38 200.116ZM383.22 188.473C383.623 188.473 384.022 188.54 384.402 188.677C384.69 188.777 384.98 188.875 385.268 188.965C386.586 189.372 387.559 190.534 387.746 191.926L388.416 196.92C388.614 198.403 389.891 199.521 391.383 199.521C391.517 199.521 391.651 199.512 391.785 199.493L397.522 198.722C398.316 198.616 399.02 198.205 399.506 197.571C399.992 196.934 400.201 196.146 400.092 195.353L399.592 191.638C399.38 190.065 400.221 188.557 401.679 187.884C402.648 187.437 403.595 186.917 404.492 186.339C405.084 185.956 405.766 185.755 406.467 185.755C407.168 185.755 407.793 185.942 408.363 186.297L412.4 188.819C412.877 189.118 413.425 189.275 413.984 189.275C415.025 189.275 415.975 188.75 416.528 187.867L419.595 182.962C420.02 182.283 420.154 181.478 419.975 180.699C419.796 179.92 419.322 179.255 418.643 178.83L415.788 177.045C414.436 176.199 413.808 174.599 414.227 173.059C414.299 172.797 414.366 172.531 414.428 172.263C414.76 170.841 415.972 169.755 417.439 169.557L420.467 169.149C421.26 169.043 421.964 168.632 422.45 167.998C422.936 167.361 423.146 166.573 423.037 165.78L422.266 160.045C422.067 158.565 420.791 157.447 419.299 157.447C419.165 157.447 419.031 157.456 418.897 157.475L415.866 157.88C415.707 157.903 415.545 157.911 415.386 157.911C414.07 157.911 412.869 157.204 412.252 156.065C412.12 155.824 411.986 155.587 411.849 155.352C411.037 153.978 411.218 152.266 412.302 151.09L414.584 148.618C415.126 148.028 415.408 147.266 415.375 146.464C415.341 145.665 415 144.925 414.411 144.383L410.157 140.458C409.601 139.947 408.88 139.665 408.126 139.665C407.291 139.665 406.489 140.017 405.922 140.629L402.693 144.129C402.017 144.861 401.056 145.28 400.05 145.28C399.679 145.28 399.31 145.224 398.953 145.112C397.93 144.791 396.88 144.539 395.827 144.366C394.24 144.104 393.031 142.869 392.821 141.294L392.321 137.581C392.123 136.101 390.846 134.983 389.355 134.983C389.221 134.983 389.084 134.992 388.95 135.011L383.215 135.782C381.578 136.003 380.424 137.514 380.645 139.151L381.315 144.146C381.503 145.537 380.871 146.914 379.706 147.657C379.45 147.822 379.195 147.992 378.947 148.162C378.352 148.576 377.651 148.796 376.922 148.796C376.246 148.796 375.584 148.606 375.008 148.246L370.455 145.397C369.977 145.098 369.43 144.939 368.868 144.939C367.826 144.939 366.877 145.467 366.324 146.347L363.254 151.257C362.829 151.936 362.695 152.741 362.874 153.52C363.053 154.299 363.527 154.964 364.206 155.389L368.12 157.836C369.427 158.654 370.067 160.213 369.709 161.718L369.698 161.763C369.36 163.196 368.148 164.291 366.681 164.489L362.388 165.065C361.594 165.171 360.888 165.582 360.404 166.218C359.921 166.855 359.709 167.643 359.818 168.436L360.592 174.177C360.79 175.657 362.067 176.775 363.558 176.775C363.692 176.775 363.829 176.766 363.963 176.747L368.254 176.168C368.413 176.146 368.575 176.135 368.737 176.135C370.053 176.135 371.259 176.85 371.885 178.001L371.91 178.043C372.653 179.403 372.449 181.076 371.402 182.21L368.273 185.599C367.729 186.188 367.449 186.953 367.48 187.752C367.514 188.554 367.854 189.291 368.444 189.836L372.704 193.761C373.259 194.272 373.98 194.554 374.734 194.554C375.57 194.554 376.374 194.202 376.938 193.588L380.581 189.638C381.26 188.9 382.223 188.476 383.22 188.476V188.473Z" fill="#580000"/>
<path d="M392.405 180.498C385.93 180.498 378.721 174.126 377.846 167.632C377.414 164.411 378.559 161.129 381.07 158.383C383.439 155.794 386.718 154.051 390.062 153.604C390.472 153.548 390.889 153.52 391.302 153.52C397.763 153.52 402.995 160.163 403.83 166.369C404.28 169.705 403.509 172.981 401.657 175.599C399.769 178.266 396.928 179.979 393.662 180.417C393.255 180.473 392.83 180.501 392.405 180.501V180.498ZM391.305 154.118C390.919 154.118 390.528 154.143 390.143 154.196C386.933 154.626 383.788 156.299 381.511 158.785C379.12 161.397 378.031 164.512 378.439 167.551C378.833 170.478 380.64 173.565 383.397 176.018C386.171 178.484 389.453 179.898 392.405 179.898C392.805 179.898 393.199 179.872 393.581 179.819C396.682 179.403 399.378 177.78 401.171 175.247C402.936 172.755 403.671 169.626 403.241 166.442C402.442 160.487 397.453 154.109 391.305 154.109V154.118Z" fill="#580000"/>
<path d="M348.228 115.891L362.061 115.517C367.348 115.374 371.519 110.972 371.379 105.684L370.932 88.8681C370.79 83.5775 366.388 79.4043 361.097 79.5468L351.312 79.8093C347.091 79.9239 343.295 77.2618 341.965 73.2534C341.711 72.488 341.446 71.7282 341.164 70.9684C339.792 67.2756 340.909 63.1191 343.873 60.5241L350.558 54.6749C354.541 51.1888 354.943 45.1356 351.457 41.1523L340.373 28.4957C336.89 24.518 330.839 24.113 326.859 27.5935L320.166 33.4455C317.205 36.0349 312.943 36.5908 309.468 34.7472C308.758 34.3701 308.043 34.007 307.322 33.6578C303.521 31.8142 301.378 27.694 302.051 23.5208L303.607 13.8614C304.448 8.63786 300.895 3.71879 295.671 2.878L279.048 0.201977C273.825 -0.638818 268.908 2.91151 268.068 8.13506L265.864 21.8029C265.269 25.4873 262.584 28.4622 258.998 29.4957C255.984 30.3644 253.011 31.4483 250.109 32.75C246.238 34.4846 241.69 33.5489 238.897 30.3561L231.723 22.1604C228.237 18.1771 222.184 17.7749 218.201 21.2637L205.547 32.3449C201.567 35.831 201.164 41.8814 204.65 45.8647L214.301 56.89C216.751 59.6889 217.413 63.661 215.905 67.0633C215.542 67.8846 215.192 68.7114 214.863 69.5438C213.458 73.0858 210.047 75.4266 206.237 75.5271L190.625 75.9406C185.334 76.0802 181.158 80.4825 181.301 85.7731L181.751 102.603C181.89 107.894 186.295 112.067 191.583 111.924L204.994 111.567C209.109 111.458 212.824 113.991 214.246 117.857C214.262 117.899 214.276 117.941 214.293 117.983C215.667 121.698 214.586 125.874 211.606 128.483L202.125 136.777C198.142 140.263 197.74 146.319 201.226 150.299L212.318 162.964C215.804 166.945 221.86 167.347 225.841 163.858L235.307 155.562C238.288 152.953 242.57 152.433 246.07 154.285C246.115 154.308 246.159 154.333 246.201 154.355C249.847 156.274 251.866 160.294 251.213 164.361L249.078 177.599C248.235 182.825 251.794 187.744 257.02 188.585L273.643 191.252C278.867 192.09 283.783 188.534 284.621 183.311L287.099 167.889C287.702 164.126 290.476 161.054 294.171 160.132C295.04 159.917 295.903 159.682 296.764 159.428C300.331 158.383 304.183 159.565 306.63 162.364L316.278 173.395C319.761 177.378 325.817 177.783 329.8 174.297L342.465 163.213C346.449 159.727 346.851 153.674 343.365 149.693L336.186 141.492C333.393 138.302 333.066 133.676 335.295 130.067C336.965 127.366 338.426 124.567 339.683 121.695C341.18 118.274 344.491 116 348.222 115.899L348.228 115.891ZM302.568 123.743C287.864 136.615 257.805 132.958 244.933 118.254C232.078 103.567 237.215 78.7143 251.919 65.8594C266.607 52.9877 291.694 59.8872 304.563 74.5914C317.434 89.2787 317.272 110.871 302.565 123.743H302.568Z" fill="#FFF0F0"/>
<path d="M276.685 201.931C276.16 201.931 275.632 201.889 275.11 201.806L258.487 199.138C255.883 198.719 253.598 197.314 252.051 195.174C250.506 193.037 249.886 190.426 250.305 187.822L252.439 174.585C253.073 170.646 251.121 166.746 247.579 164.878L247.445 164.808C246.123 164.107 244.632 163.738 243.134 163.738C240.88 163.738 238.704 164.556 237.006 166.045L227.539 174.342C225.737 175.92 223.43 176.788 221.039 176.788C218.193 176.788 215.486 175.562 213.612 173.422L202.519 160.758C200.782 158.774 199.921 156.232 200.097 153.601C200.273 150.97 201.461 148.565 203.447 146.827L212.927 138.534C215.807 136.014 216.855 131.922 215.533 128.352L215.486 128.226C214.114 124.494 210.489 122.019 206.514 122.123L193.103 122.48C187.597 122.628 183.12 118.355 182.974 112.877L182.525 96.047C182.455 93.4101 183.416 90.9073 185.229 88.9938C187.041 87.0804 189.494 85.9882 192.128 85.9184L207.74 85.505C211.464 85.4072 214.746 83.1306 216.106 79.7032C216.438 78.868 216.79 78.03 217.154 77.2115C218.601 73.9517 217.989 70.0774 215.598 67.3455L205.947 56.3202C202.363 52.2251 202.779 45.9792 206.871 42.3954L219.525 31.3142C221.324 29.7387 223.634 28.87 226.022 28.87C228.872 28.87 231.578 30.0991 233.453 32.2388L240.626 40.4344C242.383 42.4401 244.928 43.5909 247.615 43.5909C248.961 43.5909 250.269 43.3088 251.506 42.7557C254.392 41.4624 257.394 40.3618 260.431 39.4875C263.908 38.4847 266.52 35.5545 267.09 32.0237L269.294 18.3559C270.071 13.5486 274.163 10.0569 279.026 10.0569C279.551 10.0569 280.085 10.0988 280.607 10.1826L297.225 12.8586C299.828 13.2776 302.11 14.6854 303.655 16.8224C305.2 18.9593 305.82 21.5682 305.398 24.1716L303.842 33.831C303.186 37.9093 305.242 41.859 308.957 43.6607C309.68 44.0127 310.404 44.3786 311.113 44.7557C312.409 45.4429 313.873 45.806 315.348 45.806C317.599 45.806 319.781 44.9848 321.488 43.4931L328.183 37.6411C329.982 36.0685 332.287 35.2025 334.675 35.2025C337.521 35.2025 340.228 36.4288 342.102 38.5713L353.186 51.2279C354.924 53.2112 355.784 55.7531 355.608 58.3844C355.432 61.0158 354.245 63.4208 352.259 65.1583L345.575 71.0075C342.689 73.5327 341.633 77.6026 342.946 81.1362C343.228 81.896 343.499 82.6697 343.75 83.4295C345.038 87.315 348.697 89.8961 352.815 89.7871L362.6 89.5246C368.111 89.3737 372.586 93.6503 372.731 99.1281L373.181 115.944C373.326 121.383 369.019 125.925 363.583 126.073L349.751 126.447C346.17 126.545 342.918 128.751 341.466 132.073C340.197 134.969 338.714 137.799 337.058 140.481C334.87 144.02 335.217 148.475 337.921 151.565L345.1 159.766C346.837 161.749 347.695 164.291 347.521 166.922C347.345 169.554 346.158 171.956 344.172 173.693L331.507 184.777C329.708 186.353 327.401 187.219 325.013 187.219C322.164 187.219 319.454 185.99 317.58 183.847L307.931 172.816C306.147 170.774 303.585 169.604 300.906 169.604C300.043 169.604 299.188 169.727 298.361 169.97C297.501 170.221 296.624 170.459 295.758 170.677C292.183 171.571 289.49 174.523 288.898 178.199L286.42 193.621C285.646 198.434 281.554 201.926 276.688 201.926L276.685 201.931ZM243.137 163.165C244.729 163.165 246.31 163.559 247.715 164.302L247.847 164.372C251.609 166.355 253.682 170.495 253.009 174.679L250.875 187.917C250.478 190.37 251.062 192.828 252.517 194.842C253.973 196.856 256.123 198.18 258.576 198.574L275.199 201.241C275.691 201.32 276.191 201.359 276.682 201.359C281.263 201.359 285.118 198.071 285.847 193.537L288.325 178.115C288.954 174.21 291.814 171.073 295.613 170.124C296.473 169.908 297.342 169.674 298.194 169.422C299.074 169.165 299.982 169.034 300.901 169.034C303.744 169.034 306.465 170.277 308.359 172.445L318.007 183.476C319.772 185.492 322.323 186.649 325.007 186.652C327.256 186.652 329.429 185.836 331.122 184.353L343.787 173.269C345.656 171.635 346.776 169.369 346.94 166.892C347.105 164.414 346.295 162.023 344.661 160.154L337.482 151.953C334.611 148.674 334.242 143.944 336.563 140.187C338.206 137.528 339.678 134.724 340.935 131.852C342.477 128.33 345.929 125.986 349.731 125.883L363.564 125.508C368.684 125.369 372.737 121.092 372.6 115.972L372.15 99.156C372.013 93.9995 367.804 89.9771 362.611 90.114L352.826 90.3765C348.466 90.4939 344.566 87.748 343.2 83.6222C342.949 82.868 342.681 82.1027 342.401 81.3485C341.007 77.5914 342.128 73.2673 345.192 70.5885L351.876 64.7393C353.745 63.1052 354.865 60.8398 355.03 58.3621C355.195 55.8844 354.385 53.4905 352.748 51.6246L341.664 38.9679C339.898 36.9539 337.348 35.7975 334.669 35.7975C332.421 35.7975 330.25 36.6132 328.557 38.0936L321.862 43.9457C320.049 45.5295 317.736 46.401 315.345 46.401C313.775 46.401 312.219 46.0155 310.839 45.2837C310.138 44.9122 309.42 44.5462 308.702 44.1999C304.755 42.2864 302.574 38.0908 303.272 33.7584L304.828 24.099C305.222 21.6492 304.641 19.1911 303.186 17.1771C301.73 15.1659 299.582 13.8391 297.13 13.4452L280.512 10.7692C280.02 10.691 279.518 10.6491 279.023 10.6491C274.445 10.6491 270.59 13.9368 269.861 18.4648L267.657 32.1326C267.051 35.8841 264.277 38.9931 260.587 40.0573C257.576 40.9261 254.598 42.0155 251.738 43.2976C250.428 43.8842 249.04 44.1831 247.612 44.1831C244.76 44.1831 242.056 42.9624 240.19 40.8311L233.017 32.6354C231.252 30.6187 228.701 29.4622 226.02 29.4622C223.768 29.4622 221.595 30.2807 219.902 31.7639L207.248 42.8451C203.394 46.2194 203.003 52.1022 206.377 55.957L216.028 66.9823C218.567 69.8818 219.215 73.9964 217.676 77.4601C217.316 78.2702 216.966 79.1026 216.64 79.9295C215.195 83.5692 211.707 85.991 207.754 86.0944L192.145 86.5078C189.662 86.572 187.354 87.6028 185.648 89.4045C183.938 91.2062 183.036 93.5637 183.1 96.047L183.55 112.877C183.687 118.033 187.907 122.053 193.089 121.919L206.5 121.561C210.709 121.45 214.573 124.081 216.028 128.039L216.075 128.165C217.478 131.958 216.366 136.305 213.307 138.978L203.827 147.271C201.958 148.905 200.838 151.171 200.673 153.648C200.508 156.126 201.318 158.52 202.955 160.389L214.047 173.054C215.813 175.068 218.36 176.224 221.042 176.224C223.293 176.224 225.467 175.406 227.162 173.92L236.629 165.624C238.433 164.042 240.743 163.174 243.137 163.174V163.165Z" fill="#330000"/>
<path d="M256.584 86.0804C255.93 87.2452 249.366 97.4102 250.74 107.354L257.883 104.771L261.148 91.3682L256.584 86.0804Z" fill="#FF967E"/>
<path d="M285.11 81.9127C285.11 81.9127 280.721 74.0411 270.037 76.2171C259.352 78.3931 253.522 93.6839 256.419 123.972C256.419 123.972 273.391 117.223 295.459 122.665C295.459 122.665 291.827 93.3319 285.107 81.9127H285.11Z" fill="#B20700"/>
<path d="M293.258 78.7339L285.749 86.2312C285.749 86.2312 266.498 91.4324 261.151 91.371C255.805 91.3095 253.699 87.4016 253.699 87.4016C253.699 87.4016 258.213 80.2535 267.344 77.0216C268.202 76.7171 269.098 76.449 270.04 76.2227C271.615 75.8456 273.219 75.6249 274.811 75.5299C284.263 74.9685 293.261 78.7367 293.261 78.7367L293.258 78.7339Z" fill="#B20700"/>
<path d="M293.258 78.7339C294.459 80.0384 292.607 81.463 290.534 83.5328C288.462 85.6027 286.319 86.8094 285.749 86.2284C285.18 85.6474 286.4 83.4993 288.473 81.4295C290.546 79.3596 292.708 78.1333 293.258 78.7339Z" fill="#66192D"/>
<path d="M286.747 86.2591C286.747 86.2591 286.635 84.7619 288.518 82.8513C289.652 81.7004 291.085 80.9462 292.049 80.53C292.621 80.2814 293.28 80.5607 293.51 81.1445L294.113 82.6976L291.308 84.5021L286.75 86.2591H286.747Z" fill="#FF967E"/>
<path d="M273.478 114.028C273.478 114.028 296.646 101.474 304.948 115.167C311.096 125.304 301.856 134.746 267.582 133.788C267.582 133.788 264.193 132.201 265.02 123.972C265.347 120.712 273.478 114.028 273.478 114.028Z" fill="#FFBA41"/>
<path d="M273.478 114.028C273.478 114.028 242.623 101.388 236.52 109.29C229.503 118.371 236.232 133.788 268.755 128.277L272.718 123.972L273.478 114.028Z" fill="#FFBA41"/>
<path d="M267.546 133.841C263.741 131.126 264.945 124.033 264.956 123.961L264.962 123.925L264.998 123.911L288.42 115.385L288.465 115.508L265.079 124.02C264.99 124.573 264.023 131.168 267.621 133.735L267.546 133.841Z" fill="#020202"/>
<path d="M264.825 126.237C264.825 126.237 259.138 126.469 256.467 127.779C253.797 129.089 255.221 132.288 260.646 132.201C266.071 132.115 265.657 131.307 265.657 131.307C265.657 131.307 264.626 128.5 264.825 126.237Z" fill="#66192D"/>
<path d="M272.101 114.631C270.218 114.631 268.671 114.156 267.417 113.209C265.048 111.422 264.609 108.572 264.953 106.678L267.218 105.36C267.33 104.737 271.704 107.05 271.696 107.047C271.716 107.053 273.783 107.651 280.953 103.988C285.942 101.438 288.459 97.818 288.64 92.9241C288.78 89.2341 287.135 87.1614 286.747 86.262C286.693 86.1418 289.157 83.6725 289.087 83.4211L290.934 82.4826C290.875 82.2703 292.71 81.5468 292.682 81.4854L294.107 82.7005C294.811 84.3262 296.305 88.0609 296.113 93.209C295.911 98.5554 293.705 105.933 284.327 110.726C279.213 113.341 275.202 114.631 272.098 114.631H272.101Z" fill="#FF967E"/>
<path d="M270.582 114.93H250.59C250.171 114.93 249.799 114.665 249.668 114.271L245.514 101.863C245.305 101.237 245.774 100.592 246.436 100.592H265.663C266.54 100.592 267.316 101.148 267.593 101.975L271.506 113.662C271.716 114.288 271.247 114.933 270.585 114.933L270.582 114.93Z" fill="#66192D"/>
<path d="M269.328 114.93H249.333C248.914 114.93 248.542 114.665 248.411 114.271L244.257 101.863C244.048 101.237 244.517 100.592 245.179 100.592H264.406C265.283 100.592 266.059 101.148 266.336 101.975L270.249 113.662C270.459 114.288 269.99 114.933 269.328 114.933V114.93Z" fill="#66192D"/>
<path d="M255.319 107.355C255.319 106.882 255.863 106.693 256.335 106.693C256.808 106.693 257.584 107.209 257.579 107.868C257.573 108.581 257.017 108.673 256.542 108.673C256.067 108.673 255.316 107.955 255.316 107.355H255.319Z" fill="#FFBA41"/>
<path d="M249.324 113.176H276.685C277.325 113.176 277.841 113.695 277.841 114.332V114.341C277.841 114.665 277.579 114.927 277.255 114.927H249.327V113.173L249.324 113.176Z" fill="#66192D"/>
<path d="M267.906 106.866C267.897 106.829 266.914 103.151 266.28 102.008C265.657 100.885 264.883 100.659 264.875 100.656L264.909 100.53C264.942 100.539 265.741 100.771 266.392 101.944C267.034 103.1 267.99 106.681 268.029 106.832L267.903 106.866H267.906Z" fill="#66192D"/>
<path d="M270.861 113.243C270.121 113.243 269.937 112.916 269.928 112.902L268.367 108.237L268.49 108.195L270.048 112.849C270.048 112.849 270.216 113.112 270.861 113.112V113.243Z" fill="#66192D"/>
<path d="M290.076 103.874C289.959 103.874 289.85 103.846 289.755 103.79C289.266 103.505 289.28 102.586 289.786 101.701C290.116 101.123 290.59 100.692 291.021 100.575C291.225 100.519 291.412 100.539 291.565 100.628C292.054 100.913 292.04 101.832 291.535 102.718C291.205 103.296 290.73 103.729 290.3 103.843C290.224 103.863 290.149 103.874 290.076 103.874ZM291.241 100.807C291.194 100.807 291.141 100.815 291.085 100.829C290.724 100.927 290.303 101.318 290.009 101.832C289.588 102.567 289.532 103.363 289.884 103.567C289.976 103.62 290.093 103.631 290.23 103.592C290.59 103.494 291.012 103.103 291.305 102.589C291.727 101.854 291.783 101.058 291.431 100.854C291.375 100.821 291.311 100.807 291.241 100.807Z" fill="#E08B65"/>
<path d="M274.973 75.5104C273.66 75.4713 272.663 75.3372 271.909 74.4489L269.571 71.6975L268.889 70.8958L264.886 66.1862L266.987 71.6919L268.249 74.9964L268.649 76.0411C268.92 76.7506 268.562 77.083 268.308 77.9127C268.205 78.2507 267.515 80.3205 269.314 80.3345C271.551 80.3512 274.384 77.7478 275.006 75.502C274.995 75.502 274.984 75.5076 274.973 75.5076V75.5104Z" fill="#FF967E"/>
<path d="M270.219 69.9293C270.219 69.9293 274.627 65.6946 272.082 62.1191C269.54 58.5436 268.906 67.8566 268.906 67.8566L269.615 70.0103L270.219 69.9293Z" fill="#66192D"/>
<path d="M269.546 71.5997C269.554 71.6305 269.562 71.664 269.568 71.6947C269.976 73.5523 268.263 75.002 268.263 75.002L268.249 74.9964L266.987 71.6919C267.523 71.2897 268.314 70.8036 268.886 70.893C269.188 70.9405 269.428 71.1444 269.546 71.5997Z" fill="#66192D"/>
<path d="M260.216 69.3008C259.221 65.9907 260.621 62.6331 263.339 61.8007C266.057 60.9683 269.068 62.9767 270.059 66.2868C271.054 69.5969 269.654 72.9545 266.936 73.7869C264.219 74.6193 261.207 72.6109 260.216 69.3008Z" fill="#FF967E"/>
<path d="M269.132 65.8091C269.132 65.8091 267.73 66.8287 266.554 65.9683C265.378 65.1052 264.545 64.2867 261.911 65.6136C259.277 66.9404 256.394 66.3454 255.861 64.851C255.327 63.3593 256.581 62.2141 258.238 62.2895C259.892 62.3649 257.889 61.4571 259.04 59.8872C260.19 58.3174 263.11 59.9347 264.556 59.1554C266.003 58.3788 271.16 57.7028 272.087 62.1191L269.135 65.8091H269.132Z" fill="#66192D"/>
<path d="M270.232 66.6918C269.894 67.2142 269.246 67.3901 268.782 67.0857C268.322 66.7812 268.221 66.1108 268.559 65.5884C268.897 65.0661 269.545 64.8901 270.009 65.1946C270.47 65.4991 270.57 66.1695 270.232 66.6918Z" fill="#FF967E"/>
<path d="M258.768 64.3314C258.671 64.3314 258.576 64.3203 258.486 64.2979C257.891 64.1471 257.726 63.837 257.768 63.5968C257.816 63.3203 258.154 63.0549 258.679 63.1108C259.464 63.1918 259.894 62.9264 259.897 62.9236L260 63.0856C259.981 63.0968 259.517 63.3901 258.659 63.3007C258.268 63.2616 257.992 63.4404 257.958 63.6275C257.922 63.8259 258.143 64.0102 258.534 64.108C259.551 64.365 261.299 62.7895 261.316 62.7728L261.444 62.9152C261.375 62.9767 259.875 64.3287 258.768 64.3287V64.3314Z" fill="white"/>
<path d="M263.319 60.6331C262.249 60.6331 261.291 60.1694 261.207 60.0744L261.347 59.9431C261.444 60.0269 263.012 60.7839 264.352 60.2588C264.802 60.0828 265.193 59.8761 265.573 59.675C266.352 59.2643 267.026 58.9068 267.794 59.0576L267.757 59.2476C267.053 59.1107 266.411 59.4515 265.662 59.8453C265.277 60.0493 264.88 60.2588 264.422 60.4403C264.062 60.5828 263.685 60.6359 263.319 60.6359V60.6331Z" fill="white"/>
<path d="M270.746 61.8901C270.45 61.8901 269.936 61.4264 269.808 61.1722C269.705 60.9655 269.808 60.8705 269.858 60.8398C270.246 60.5968 270.802 61.3566 270.911 61.5102L270.925 61.5409C270.987 61.7756 270.889 61.8538 270.825 61.8761C270.8 61.8845 270.774 61.8901 270.746 61.8901ZM270.026 60.985C270.001 60.985 269.981 60.9906 269.962 61.0018C269.953 61.0186 269.967 61.1191 270.154 61.3119C270.417 61.5828 270.691 61.7141 270.752 61.6946C270.752 61.6946 270.755 61.6666 270.741 61.6052C270.545 61.3286 270.213 60.985 270.023 60.985H270.026Z" fill="white"/>
<path d="M264.151 67.9572C264.121 67.9516 264.09 67.9349 264.076 67.9041C264.048 67.8539 264.065 67.7896 264.115 67.7617C264.146 67.7449 264.794 67.2924 265.492 67.8902C265.537 67.9265 265.542 67.9935 265.506 68.0382C265.47 68.0829 265.411 68.0801 265.358 68.0522C264.841 67.7896 264.238 67.9293 264.216 67.9433C264.196 67.9544 264.174 67.9572 264.151 67.9544V67.9572Z" fill="#060633"/>
<path d="M265.115 68.9991C265.154 69.2477 265.042 69.4712 264.864 69.4991C264.685 69.5271 264.509 69.3511 264.47 69.1025C264.431 68.8539 264.542 68.6304 264.721 68.6025C264.9 68.5745 265.076 68.7505 265.115 68.9991Z" fill="#060633"/>
<path d="M260.509 69.2784C260.487 69.284 260.459 69.2784 260.436 69.2533C260.4 69.2142 260.389 69.1499 260.414 69.108C260.428 69.0829 260.732 68.4488 261.431 68.7756C261.475 68.7952 261.503 68.8538 261.492 68.9097C261.481 68.9628 261.439 68.9795 261.394 68.9712C260.939 68.8957 260.562 69.2254 260.548 69.2449C260.537 69.2617 260.523 69.2728 260.506 69.2784H260.509Z" fill="#060633"/>
<path d="M261.816 69.865C261.945 70.0801 261.928 70.3315 261.772 70.4265C261.618 70.5215 261.386 70.4265 261.258 70.2114C261.129 69.9963 261.146 69.7477 261.302 69.6499C261.456 69.555 261.688 69.6499 261.816 69.865Z" fill="#060633"/>
<path d="M264.799 72.5019C264.433 72.5019 264.174 72.4377 264.168 72.4377C264.129 72.4293 264.107 72.3874 264.115 72.3483C264.123 72.3092 264.165 72.2868 264.204 72.2952C264.277 72.3147 265.973 72.7282 266.808 71.2533C266.827 71.217 266.872 71.2058 266.908 71.2253C266.945 71.2449 266.956 71.2896 266.936 71.3259C266.375 72.3203 265.428 72.5047 264.799 72.5047V72.5019Z" fill="#020202"/>
<path d="M267.084 71.5829C267.054 71.5829 267.026 71.5633 267.015 71.5326C266.981 71.432 266.883 71.2756 266.601 71.1136L266.579 71.0996C266.545 71.0773 266.537 71.0326 266.559 70.9991C266.582 70.9655 266.626 70.9572 266.66 70.9795C266.931 71.1359 267.093 71.3035 267.152 71.4851C267.165 71.5242 267.143 71.5661 267.104 71.5773C267.096 71.5773 267.09 71.5801 267.082 71.5801L267.084 71.5829Z" fill="#020202"/>
<path d="M258.809 87.0998L257.628 90.6872L257.934 90.7876L259.114 87.2001L258.809 87.0998Z" fill="#66192D"/>
<path d="M261.23 73.4126C261.16 73.4126 261.09 73.407 261.017 73.3986C260.244 73.2953 259.442 72.6416 258.869 71.65C257.939 70.0382 257.897 68.0214 258.777 67.1499C259.104 66.8259 259.517 66.689 259.978 66.7505C260.752 66.8538 261.554 67.5075 262.126 68.4991C263.057 70.1109 263.098 72.1304 262.219 72.9992C261.945 73.2701 261.604 73.4126 261.227 73.4126H261.23ZM259.769 66.9544C259.45 66.9544 259.163 67.0745 258.928 67.3036C258.115 68.1108 258.171 70.0103 259.057 71.541C259.596 72.474 260.339 73.0886 261.045 73.1835C261.439 73.2366 261.791 73.1193 262.065 72.8455C262.878 72.0383 262.822 70.1388 261.936 68.608C261.397 67.6751 260.652 67.0605 259.948 66.9656C259.886 66.9572 259.827 66.9544 259.769 66.9544Z" fill="white"/>
<g opacity="0.3">
<path d="M267.367 66.1303C268.121 67.7337 267.911 69.6807 266.9 70.4851C265.889 71.2896 264.459 70.6388 263.707 69.0382C262.953 67.4376 263.163 65.4879 264.171 64.6862C265.182 63.8845 266.613 64.5325 267.364 66.1331L267.367 66.1303Z" fill="white"/>
</g>
<g opacity="0.3">
<path d="M262.205 68.6276C262.962 70.2366 262.858 72.1891 261.976 72.9908C261.093 73.7897 259.766 73.1333 259.009 71.5243C258.252 69.9153 258.355 67.9628 259.238 67.1611C260.121 66.3622 261.448 67.0187 262.205 68.6276Z" fill="white"/>
</g>
<path d="M265.772 70.9153C265.626 70.9153 265.481 70.8986 265.333 70.8623C264.523 70.6723 263.785 69.9879 263.313 68.9907C262.501 67.2812 262.746 65.1806 263.861 64.3091C264.311 63.9571 264.841 63.8426 265.397 63.9739C266.207 64.1638 266.945 64.8454 267.417 65.8426C268.23 67.5522 267.984 69.6527 266.869 70.5243C266.54 70.7813 266.165 70.9125 265.772 70.9125V70.9153ZM264.959 64.1415C264.612 64.1415 264.283 64.256 263.992 64.4823C262.953 65.2951 262.735 67.2756 263.506 68.8985C263.945 69.8231 264.646 70.4768 265.38 70.65C265.869 70.7645 266.339 70.6639 266.732 70.3539C267.772 69.541 267.989 67.5605 267.219 65.9376C266.78 65.013 266.079 64.3594 265.344 64.1862C265.213 64.1555 265.084 64.1387 264.959 64.1387V64.1415Z" fill="white"/>
<path d="M262.073 69.3119C262.028 69.3119 261.986 69.298 261.95 69.27C261.861 69.203 261.844 69.0745 261.914 68.9879C261.936 68.96 262.461 68.2868 263.584 68.2589H263.59C263.699 68.2589 263.791 68.3454 263.794 68.4572C263.797 68.5689 263.707 68.6611 263.595 68.6639C262.676 68.6862 262.255 69.2114 262.238 69.2337C262.199 69.284 262.137 69.3119 262.079 69.3119H262.073Z" fill="white"/>
<path d="M206.827 294.712C206.827 294.712 206.922 297.452 208.782 298.209C210.645 298.966 216.025 299.614 214.033 301.396C212.891 302.419 207.452 301.815 205.919 301.829C204.385 301.843 202.952 302.525 201.801 301.508C200.536 300.391 201.74 294.759 201.74 294.759C201.74 294.759 203.07 295.435 204.26 295.394C205.975 295.332 206.824 294.712 206.824 294.712H206.827Z" fill="#66192D"/>
<path d="M223.195 293.329C223.195 293.329 223.318 296.07 225.19 296.804C227.058 297.542 232.447 298.131 230.475 299.933C229.343 300.966 223.899 300.422 222.366 300.452C220.832 300.483 219.405 301.179 218.245 300.176C216.969 299.072 218.111 293.427 218.111 293.427C218.111 293.427 219.449 294.089 220.637 294.036C222.352 293.958 223.195 293.327 223.195 293.327V293.329Z" fill="#66192D"/>
<path d="M221.919 295.581C225.089 295.257 227.447 292.494 227.265 289.312C226.237 271.332 224.667 262.262 218.684 254.706C214.84 249.851 209.198 245.222 202.393 242.65C196.527 240.432 191.577 239.465 185.136 239.569C174.633 239.736 169.823 241.661 169.823 241.661C163.192 258.569 175.647 259.818 184.776 259.583C185.077 259.575 185.379 259.569 185.683 259.566C191.214 259.502 201.108 260.17 205.223 265.365C208.48 269.477 210.969 275.407 213 291.033C213.388 294.03 216.089 296.179 219.097 295.871L221.919 295.584V295.581Z" fill="#FFBA41"/>
<path d="M206.837 297.642C210.008 297.318 212.365 294.556 212.184 291.374C211.156 273.393 209.586 264.323 203.603 256.767C199.759 251.912 194.262 248.44 187.267 246.451C182.276 245.03 176.479 244.362 170.038 244.465C159.535 244.633 154.742 243.722 154.742 243.722C147.839 265.248 178.463 258.502 187.186 266.801C190.988 270.418 195.89 277.469 197.918 293.095C198.307 296.092 201.008 298.24 204.013 297.933L206.835 297.645L206.837 297.642Z" fill="#FFBA41"/>
<path d="M187.049 213.579C187.865 214.658 195.846 223.96 195.829 234.124L188.306 232.513L183.192 219.513L187.047 213.579H187.049Z" fill="#FF967E"/>
<path d="M157.856 213.311C157.856 213.311 161.18 204.811 172.2 205.529C183.217 206.247 190.913 210.686 192.159 241.474C192.159 241.474 176.954 240.435 159.44 250.474C156.49 252.164 151.923 251.764 151.775 248.368C151.479 241.605 153.018 228.714 157.859 213.311H157.856Z" fill="#B72C00"/>
<path d="M148.155 214.549L157.806 217.73C157.806 217.73 177.837 220.309 183.195 219.513C188.553 218.716 190.128 214.507 190.128 214.507C190.128 214.507 184.62 207.954 175.013 205.962C174.111 205.775 173.172 205.627 172.2 205.529C170.566 205.367 168.996 205.197 167.39 205.347C151.686 206.811 148.158 214.549 148.158 214.549H148.155Z" fill="#B72C00"/>
<path d="M148.155 214.549C147.622 215.7 149.879 216.809 152.65 217.87C155.421 218.934 157.898 219.169 158.186 218.398C158.474 217.627 156.46 216.138 153.692 215.077C150.921 214.012 148.502 213.8 148.155 214.549Z" fill="#66192D"/>
<path d="M175.396 244.356C177.284 244.099 178.773 243.407 179.902 242.287C182.033 240.169 182.083 237.25 181.48 235.395L179.025 234.384C178.826 233.775 174.754 236.694 174.762 236.692C174.742 236.7 172.751 237.585 165.055 234.893C159.697 233.018 156.678 229.731 155.823 224.845C155.178 221.161 156.396 219.289 156.661 218.334C156.697 218.208 156.019 216.596 153.158 215.613C150.072 214.552 148.935 215.339 148.935 215.339C148.451 217.068 147.463 221.021 148.362 226.158C149.298 231.493 152.524 238.597 162.589 242.119C168.077 244.041 172.281 244.787 175.396 244.362V244.356Z" fill="#FF967E"/>
<path d="M177.078 245.239L197.324 244.918C197.748 244.912 198.12 244.636 198.248 244.234L202.257 231.602C202.458 230.965 201.975 230.32 201.301 230.331L181.832 230.638C180.944 230.652 180.167 231.228 179.899 232.069L176.122 243.965C175.921 244.602 176.404 245.248 177.078 245.236V245.239Z" fill="#66192D"/>
<path d="M178.348 245.22L198.594 244.898C199.019 244.893 199.39 244.616 199.519 244.214L203.527 231.583C203.728 230.946 203.245 230.3 202.572 230.312L183.102 230.619C182.214 230.633 181.438 231.208 181.169 232.049L177.396 243.946C177.195 244.583 177.678 245.228 178.351 245.217L178.348 245.22Z" fill="#66192D"/>
<path d="M192.413 237.326C192.404 236.848 191.851 236.664 191.371 236.669C190.89 236.678 190.114 237.214 190.131 237.881C190.147 238.602 190.712 238.689 191.192 238.68C191.673 238.672 192.421 237.932 192.413 237.326Z" fill="#FFBA41"/>
<path d="M170.873 243.563L198.578 243.125L198.605 244.901L170.326 245.348C169.996 245.354 169.725 245.091 169.722 244.761V244.753C169.711 244.105 170.228 243.574 170.876 243.563H170.873Z" fill="#66192D"/>
<path d="M179.658 237.03L179.53 236.999C179.569 236.845 180.477 233.205 181.111 232.024C181.753 230.826 182.558 230.577 182.591 230.569L182.628 230.694C182.628 230.694 181.84 230.94 181.225 232.085C180.6 233.253 179.667 236.993 179.655 237.032L179.658 237.03Z" fill="#66192D"/>
<path d="M176.77 243.535V243.404C177.432 243.393 177.591 243.116 177.594 243.113L179.094 238.387L179.22 238.426L177.717 243.164C177.706 243.189 177.524 243.524 176.773 243.535H176.77Z" fill="#66192D"/>
<g opacity="0.3">
<path d="M155.775 236.035C155.736 236.035 155.697 236.035 155.658 236.027C155.211 235.971 154.678 235.602 154.264 235.066C153.633 234.247 153.496 233.328 153.946 232.974C154.085 232.862 154.272 232.82 154.485 232.845C154.932 232.901 155.465 233.27 155.879 233.806C156.507 234.624 156.647 235.543 156.197 235.898C156.083 235.988 155.94 236.032 155.775 236.032V236.035ZM154.367 233.105C154.264 233.105 154.178 233.133 154.11 233.183C153.786 233.437 153.951 234.228 154.474 234.907C154.837 235.381 155.317 235.719 155.692 235.764C155.834 235.784 155.948 235.759 156.035 235.692C156.359 235.437 156.194 234.647 155.672 233.968C155.309 233.493 154.828 233.155 154.454 233.11C154.423 233.108 154.395 233.105 154.367 233.105Z" fill="#E08B65"/>
</g>
<path d="M170.228 204.021L171.924 201.113L172.415 200.266L175.315 195.286L174.304 200.671L173.695 203.903L173.502 204.926C173.371 205.621 173.756 205.861 174.13 206.577C174.281 206.867 175.265 208.641 173.611 208.956C171.549 209.35 168.34 207.292 167.39 205.345C167.401 205.345 169.683 204.956 170.231 204.018L170.228 204.021Z" fill="#FF967E"/>
<path d="M180.055 194.258C180.055 194.258 180.094 195.635 179.379 197.182C178.664 198.733 177.932 194.35 177.932 194.35L180.055 194.258Z" fill="#56335B"/>
<path d="M179.469 197.699C179.782 194.456 177.857 191.618 175.167 191.358C172.477 191.099 170.044 193.518 169.731 196.758C169.418 200.001 171.343 202.839 174.033 203.099C176.723 203.359 179.156 200.94 179.469 197.696V197.699Z" fill="#FF967E"/>
<path d="M169.991 195.088L172.354 195.381C172.874 195.445 173.402 195.28 173.773 194.914C174.416 194.283 175.072 194.034 177.206 194.613C179.907 195.345 182.083 194.135 182.706 192.777C183.343 191.392 182.175 190.082 180.647 190.462C179.12 190.839 180.1 189.275 178.823 188.789C176.441 187.884 175.544 189.674 173.544 189.146C170.921 188.456 165.728 189.37 166.899 194.537L169.991 195.09V195.088Z" fill="#66192D"/>
<path d="M174.907 197.046C174.935 197.034 174.96 197.012 174.968 196.981C174.985 196.928 174.957 196.872 174.904 196.856C174.873 196.847 174.183 196.551 173.644 197.233C173.611 197.275 173.616 197.339 173.658 197.372C173.7 197.406 173.753 197.392 173.798 197.358C174.231 197.02 174.82 197.037 174.845 197.046C174.868 197.051 174.887 197.051 174.907 197.046Z" fill="#250000"/>
<path d="M174.2 198.188C174.208 198.426 174.357 198.61 174.527 198.604C174.7 198.599 174.831 198.4 174.82 198.163C174.809 197.926 174.664 197.741 174.493 197.747C174.323 197.752 174.192 197.951 174.2 198.188Z" fill="#250000"/>
<path d="M178.547 197.585C178.569 197.585 178.594 197.574 178.611 197.548C178.639 197.507 178.636 197.445 178.603 197.409C178.583 197.389 178.184 196.859 177.592 197.294C177.555 197.322 177.539 197.381 177.558 197.428C177.578 197.476 177.62 197.481 177.661 197.467C178.072 197.314 178.485 197.546 178.502 197.562C178.516 197.576 178.53 197.585 178.547 197.585Z" fill="#250000"/>
<path d="M177.438 198.372C177.357 198.596 177.421 198.822 177.583 198.881C177.745 198.94 177.941 198.808 178.022 198.585C178.103 198.364 178.038 198.135 177.876 198.076C177.714 198.018 177.519 198.149 177.438 198.372Z" fill="#250000"/>
<path d="M166.901 194.534C166.901 194.534 167.7 198.339 169.901 199.113C169.901 199.113 168.678 196.071 172.899 195.364C172.899 195.364 169.491 193.992 166.901 194.534Z" fill="#66192D"/>
<path d="M169.647 197.166C170.06 197.585 170.697 197.627 171.072 197.258C171.446 196.889 171.415 196.252 171.002 195.833C170.588 195.414 169.951 195.372 169.577 195.741C169.203 196.11 169.234 196.747 169.647 197.166Z" fill="#FF967E"/>
<path d="M172.899 195.364C172.899 195.364 171.924 198.177 172.385 198.859C172.845 199.54 176.67 200.669 178.642 200.386C178.245 202.247 176.561 203.582 174.661 203.468C174.033 203.428 173.407 203.286 172.812 203.035C171.597 202.521 170.485 201.713 170.234 200.417C170.158 200.023 171.128 197.928 171.128 197.928C171.128 197.928 171.6 196.677 171.002 195.833C171.002 195.833 172.049 195.255 172.896 195.364H172.899Z" fill="#66192D"/>
<path d="M177.446 201.208C177.446 201.208 175.868 201.266 174.281 200.736C174.281 200.736 174.172 202.294 175.885 202.373C176.879 202.42 177.446 201.208 177.446 201.208Z" fill="white"/>
<path d="M180.446 190.171C179.689 190.02 179.77 189.367 179.77 189.358L179.901 189.375C179.899 189.397 179.84 189.914 180.471 190.037L180.446 190.168V190.171Z" fill="#66192D"/>
<path d="M178.156 194.023V193.956C178.184 193.956 181.282 193.763 181.745 192.3C181.876 191.886 181.871 191.59 181.728 191.392C181.499 191.079 180.946 191.076 180.46 191.082C180.385 191.082 180.312 191.082 180.242 191.082V191.015C180.312 191.015 180.385 191.015 180.46 191.015C180.963 191.015 181.533 191.015 181.782 191.353C181.938 191.568 181.949 191.884 181.809 192.319C181.611 192.945 180.916 193.439 179.795 193.747C178.955 193.976 178.164 194.023 178.156 194.023Z" fill="white"/>
<path d="M174.412 189.828C173.801 189.828 173.086 189.719 172.287 189.417L172.309 189.356C173.742 189.897 174.884 189.8 175.594 189.624C176.362 189.431 176.795 189.107 176.798 189.104L176.837 189.157C176.837 189.157 175.929 189.828 174.41 189.828H174.412Z" fill="white"/>
<path d="M211.497 281.259H211.377C211.377 281.189 211.446 274.349 208.988 266.974C207.547 262.644 205.527 258.982 202.991 256.086C199.823 252.468 195.829 250.044 191.122 248.879L191.15 248.762C195.882 249.932 199.896 252.371 203.083 256.007C205.631 258.915 207.656 262.594 209.103 266.938C211.567 274.332 211.497 281.189 211.497 281.256V281.259Z" fill="#020202"/>
<path d="M115.347 124.76L94.2494 103.662C89.8862 99.2984 84.0844 96.8961 77.9139 96.8961H51.5225V96.4631H77.9139C84.2017 96.4631 90.1124 98.9101 94.5566 103.357L115.655 124.455L115.347 124.762V124.76Z" fill="#580000"/>
<path d="M49.623 96.7844C49.623 95.885 50.637 95.2118 51.5225 95.0498C52.7181 94.8319 53.151 95.7788 53.151 96.6783C53.151 97.5777 52.422 98.5526 51.5225 98.5526C50.6231 98.5526 49.623 97.6867 49.623 96.7872V96.7844Z" fill="#580000"/>
<path d="M113.736 124.606C113.736 123.707 114.75 123.033 115.635 122.871C116.831 122.653 117.264 123.6 117.264 124.5C117.264 125.399 116.535 126.374 115.635 126.374C114.736 126.374 113.736 125.508 113.736 124.609V124.606Z" fill="#580000"/>
<path d="M120.473 100.324L120.088 100.125L132.42 76.1919C133.862 73.393 135.993 71.094 138.583 69.5465C142.233 67.3621 146.412 66.2085 150.667 66.2085H177.058V66.6443H150.667C146.491 66.6443 142.39 67.7784 138.806 69.9208C136.286 71.4292 134.211 73.6667 132.806 76.393L120.473 100.326V100.324Z" fill="#580000"/>
<path d="M178.957 66.5297C178.957 65.6303 177.943 64.9571 177.058 64.7951C175.862 64.5772 175.429 65.5241 175.429 66.4236C175.429 67.323 176.158 68.2979 177.058 68.2979C177.957 68.2979 178.957 67.432 178.957 66.5325V66.5297Z" fill="#580000"/>
<path d="M122.043 100.223C122.043 99.3235 121.029 98.6503 120.144 98.4883C118.948 98.2704 118.515 99.2174 118.515 100.117C118.515 101.016 119.244 101.991 120.144 101.991C121.043 101.991 122.043 101.125 122.043 100.226V100.223Z" fill="#580000"/>
<path d="M71.0901 56.6833H24.0139C22.6579 56.6833 21.5586 57.7826 21.5586 59.1386V86.3206C21.5586 87.6767 22.6579 88.776 24.0139 88.776H71.0901C72.4461 88.776 73.5454 87.6767 73.5454 86.3206V59.1386C73.5454 57.7826 72.4461 56.6833 71.0901 56.6833Z" fill="#FF5F58"/>
<path d="M49.8162 78.0606L51.5341 74.0131C51.7716 73.4544 52.4671 73.2617 52.9587 73.6164L55.2548 75.2812C55.7772 75.6611 56.5202 75.4153 56.713 74.7952L58.0342 70.5354C58.1934 70.0242 58.7437 69.7476 59.2493 69.9236L60.5147 70.365C60.9058 70.5018 61.3387 70.3678 61.5873 70.0354L61.7885 69.7644C62.3304 69.0326 63.4924 69.4152 63.4924 70.3259V78.4238C63.4924 78.9461 63.0706 79.3679 62.5482 79.3679H50.6849C50.009 79.3679 49.5508 78.6752 49.8162 78.0522V78.0606Z" fill="#FF5F58"/>
<path d="M64.2437 82.044H64.2129L28.8409 81.463C27.9135 81.449 27.1649 80.7367 27.1006 79.8121L26.3827 69.5382C26.3492 69.0494 26.5112 68.5801 26.8436 68.2169C27.1761 67.8538 27.6286 67.6499 28.1202 67.6415L64.2101 66.9572C64.6934 66.946 65.1431 67.1275 65.4867 67.4655C65.8303 67.8035 66.0174 68.2533 66.0174 68.7337V80.2702C66.0174 80.7507 65.8303 81.1976 65.4867 81.5356C65.1515 81.8652 64.7101 82.044 64.2437 82.044ZM64.2437 67.3007H64.2157L28.1258 67.9851C27.7291 67.9935 27.366 68.1583 27.0978 68.4488C26.8297 68.7421 26.6984 69.1192 26.7263 69.5159L27.4442 79.7897C27.4973 80.5356 28.1006 81.1082 28.8465 81.1194L64.2185 81.7004C64.6068 81.7116 64.9699 81.5607 65.2465 81.2898C65.523 81.0188 65.6738 80.6557 65.6738 80.2702V68.7337C65.6738 68.3454 65.523 67.9851 65.2437 67.7114C64.9727 67.446 64.6208 67.3035 64.2437 67.3035V67.3007Z" fill="#6A0000"/>
<path d="M43.9358 75.5131H31.1535C30.8714 75.5131 30.4384 75.2198 30.4021 74.9405C30.3267 74.3678 30.8714 74.2058 31.1535 74.2058L43.9386 74.4907C44.2208 74.4907 44.4498 74.7198 44.4498 75.0019C44.4498 75.284 44.2208 75.5131 43.9386 75.5131H43.9358Z" fill="#6A0000"/>
<path d="M40.6179 73.1108H30.9697C30.7574 73.1108 30.4305 72.8762 30.4026 72.6499C30.344 72.1918 30.7574 72.0605 30.9697 72.0605L40.6179 72.2896C40.8301 72.2896 41.0033 72.474 41.0033 72.7002C41.0033 72.9265 40.8301 73.1108 40.6179 73.1108Z" fill="#6A0000"/>
<path d="M40.6179 77.9321H30.9697C30.7574 77.9321 30.4305 77.6975 30.4026 77.4712C30.344 77.0131 30.7574 76.8818 30.9697 76.8818L40.6179 77.1109C40.8301 77.1109 41.0033 77.2952 41.0033 77.5215C41.0033 77.7478 40.8301 77.9321 40.6179 77.9321Z" fill="#6A0000"/>
<path d="M40.4949 61.6386H27.7126C27.4305 61.6386 26.9975 61.3453 26.9612 61.066C26.8858 60.4934 27.4305 60.3314 27.7126 60.3314L40.4977 60.6163C40.7798 60.6163 41.0089 60.8453 41.0089 61.1275C41.0089 61.4096 40.7798 61.6386 40.4977 61.6386H40.4949Z" fill="#6A0000"/>
<path d="M37.1735 64.0577H27.5253C27.313 64.0577 26.9862 63.823 26.9583 63.5996C26.8996 63.1387 27.313 63.0074 27.5253 63.0074L37.1735 63.2364C37.3858 63.2364 37.559 63.4208 37.559 63.6471C37.559 63.8733 37.3858 64.0577 37.1735 64.0577Z" fill="#6A0000"/>
<path d="M398.62 211.884H351.544C350.188 211.884 349.088 212.983 349.088 214.339V241.521C349.088 242.877 350.188 243.977 351.544 243.977H398.62C399.976 243.977 401.075 242.877 401.075 241.521V214.339C401.075 212.983 399.976 211.884 398.62 211.884Z" fill="#FF5F58"/>
<path d="M377.346 233.261L379.066 229.217C379.304 228.658 379.999 228.465 380.491 228.82L382.787 230.485C383.312 230.865 384.052 230.619 384.245 229.999L385.569 225.739C385.728 225.228 386.279 224.951 386.784 225.127L388.05 225.568C388.441 225.705 388.874 225.571 389.122 225.239L389.323 224.968C389.865 224.236 391.027 224.619 391.027 225.529V233.627C391.027 234.15 390.606 234.571 390.083 234.571H378.22C377.541 234.571 377.086 233.879 377.351 233.256L377.346 233.261Z" fill="#FF5F58"/>
<path d="M391.773 237.245C391.773 237.245 391.754 237.245 391.743 237.245L356.371 236.664C355.443 236.65 354.695 235.94 354.63 235.013L353.913 224.739C353.879 224.25 354.041 223.781 354.373 223.418C354.706 223.054 355.158 222.851 355.65 222.842L391.74 222.158C392.22 222.147 392.673 222.328 393.016 222.666C393.36 223.001 393.547 223.451 393.547 223.932V235.468C393.547 235.949 393.36 236.395 393.016 236.733C392.681 237.063 392.24 237.242 391.773 237.242V237.245ZM391.773 222.501H391.746L355.656 223.186C355.259 223.194 354.893 223.359 354.628 223.649C354.359 223.94 354.228 224.32 354.256 224.714L354.974 234.988C355.027 235.733 355.63 236.306 356.379 236.317L391.751 236.898C392.139 236.904 392.503 236.759 392.776 236.488C393.053 236.217 393.204 235.854 393.204 235.468V223.932C393.204 223.543 393.05 223.183 392.773 222.909C392.503 222.644 392.151 222.501 391.773 222.501Z" fill="#6A0000"/>
<path d="M371.466 230.714H358.683C358.401 230.714 357.968 230.421 357.932 230.141C357.856 229.569 358.401 229.407 358.683 229.407L371.468 229.691C371.751 229.691 371.98 229.921 371.98 230.203C371.98 230.485 371.751 230.714 371.468 230.714H371.466Z" fill="#6A0000"/>
<path d="M368.145 228.312H358.497C358.284 228.312 357.957 228.077 357.929 227.853C357.871 227.393 358.284 227.261 358.497 227.261L368.145 227.49C368.357 227.49 368.53 227.675 368.53 227.901C368.53 228.127 368.357 228.312 368.145 228.312Z" fill="#6A0000"/>
<path d="M368.145 233.133H358.497C358.284 233.133 357.957 232.898 357.929 232.672C357.871 232.211 358.284 232.083 358.497 232.083L368.145 232.312C368.357 232.312 368.53 232.496 368.53 232.722C368.53 232.949 368.357 233.133 368.145 233.133Z" fill="#6A0000"/>
<path d="M368.022 216.839H355.239C354.957 216.839 354.524 216.546 354.488 216.267C354.413 215.694 354.957 215.532 355.239 215.532L368.025 215.817C368.307 215.817 368.536 216.046 368.536 216.328C368.536 216.61 368.307 216.839 368.025 216.839H368.022Z" fill="#6A0000"/>
<path d="M364.703 219.258H355.055C354.843 219.258 354.516 219.024 354.488 218.797C354.429 218.337 354.843 218.208 355.055 218.208L364.706 218.437C364.918 218.437 365.092 218.621 365.092 218.848C365.092 219.074 364.918 219.258 364.706 219.258H364.703Z" fill="#6A0000"/>
<path d="M147.647 44.8479H172.737C173.46 44.8479 174.047 45.4345 174.047 46.158V60.6442C174.047 61.3677 173.46 61.9543 172.737 61.9543H147.647C146.924 61.9543 146.337 61.3677 146.337 60.6442V46.158C146.337 45.4345 146.924 44.8479 147.647 44.8479Z" fill="#FF5F58"/>
<path d="M168.44 54.0966H151.228C150.848 54.0966 150.267 53.7027 150.216 53.3256C150.113 52.5547 150.848 52.334 151.228 52.334L168.443 52.7167C168.823 52.7167 169.133 53.0267 169.133 53.4066C169.133 53.7865 168.823 54.0966 168.443 54.0966H168.44Z" fill="#6A0000"/>
<path d="M163.968 50.862H150.977C150.692 50.862 150.25 50.5435 150.214 50.2418C150.136 49.6217 150.692 49.4457 150.977 49.4457L163.971 49.753C164.256 49.753 164.491 50.0016 164.491 50.3061C164.491 50.6106 164.256 50.8592 163.971 50.8592L163.968 50.862Z" fill="#6A0000"/>
<path d="M163.968 57.3536H150.977C150.692 57.3536 150.25 57.0352 150.214 56.7335C150.136 56.1134 150.692 55.9374 150.977 55.9374L163.971 56.2446C164.256 56.2446 164.491 56.4933 164.491 56.7977C164.491 57.1022 164.256 57.3508 163.971 57.3508L163.968 57.3536Z" fill="#6A0000"/>
<path d="M391.111 100.22H416.201C416.925 100.22 417.511 100.807 417.511 101.53V116.017C417.511 116.74 416.925 117.327 416.201 117.327H391.111C390.388 117.327 389.801 116.74 389.801 116.017V101.53C389.801 100.807 390.388 100.22 391.111 100.22Z" fill="#FF5F58"/>
<path d="M411.908 109.466H394.695C394.315 109.466 393.734 109.072 393.684 108.695C393.581 107.924 394.315 107.704 394.695 107.704L411.911 108.086C412.291 108.086 412.601 108.396 412.601 108.776C412.601 109.156 412.291 109.466 411.911 109.466H411.908Z" fill="#6A0000"/>
<path d="M407.436 106.232H394.444C394.159 106.232 393.718 105.913 393.681 105.611C393.603 104.991 394.159 104.815 394.444 104.815L407.438 105.123C407.723 105.123 407.958 105.371 407.958 105.676C407.958 105.98 407.723 106.229 407.438 106.229L407.436 106.232Z" fill="#6A0000"/>
<path d="M407.436 112.726H394.444C394.159 112.726 393.718 112.408 393.681 112.109C393.603 111.489 394.159 111.313 394.444 111.313L407.438 111.62C407.723 111.62 407.958 111.869 407.958 112.173C407.958 112.478 407.723 112.726 407.438 112.726H407.436Z" fill="#6A0000"/>
<path d="M19.5892 114.771H54.9501C55.9697 114.771 56.7937 115.598 56.7937 116.614V137.031C56.7937 138.05 55.9669 138.877 54.9473 138.877H19.5892C18.5696 138.877 17.7456 138.05 17.7456 137.034V116.617C17.7456 115.598 18.5724 114.771 19.592 114.771H19.5892Z" fill="#FF5F58"/>
<path d="M48.8967 127.805H24.6365C24.103 127.805 23.2818 127.249 23.2091 126.718C23.0639 125.631 24.1002 125.321 24.6337 125.321L48.8967 125.86C49.4302 125.86 49.8687 126.296 49.8687 126.832C49.8687 127.366 49.433 127.805 48.8967 127.805Z" fill="#6A0000"/>
<path d="M42.595 123.246H24.2819C23.8796 123.246 23.2595 122.799 23.2037 122.374C23.0947 121.503 23.8769 121.254 24.2791 121.254L42.5922 121.687C42.9945 121.687 43.3241 122.039 43.3241 122.466C43.3241 122.897 42.9945 123.246 42.5922 123.246H42.595Z" fill="#6A0000"/>
<path d="M42.595 132.397H24.2819C23.8796 132.397 23.2595 131.95 23.2037 131.525C23.0947 130.654 23.8769 130.405 24.2791 130.405L42.5922 130.838C42.9945 130.838 43.3241 131.19 43.3241 131.617C43.3241 132.048 42.9945 132.397 42.5922 132.397H42.595Z" fill="#6A0000"/>
<path d="M282.479 218.873C282.015 219.012 281.75 219.507 281.89 219.968L284.06 227.155C284.2 227.619 284.694 227.884 285.155 227.742C285.619 227.602 285.881 227.11 285.742 226.647L283.574 219.459C283.435 218.996 282.94 218.733 282.479 218.87V218.873Z" fill="#FF967E"/>
<path d="M284.633 218.222C284.169 218.362 283.907 218.856 284.046 219.317L286.474 227.356C286.613 227.82 287.105 228.085 287.569 227.946C288.032 227.806 288.298 227.312 288.155 226.851L285.731 218.811C285.591 218.348 285.097 218.082 284.636 218.222H284.633Z" fill="#FF967E"/>
<path d="M283.951 213.862L283.772 214.119C283.44 214.599 283.56 215.267 284.041 215.599L288.725 218.842C289.205 219.175 289.87 219.054 290.206 218.574L290.384 218.317C290.717 217.837 290.597 217.172 290.116 216.836L285.432 213.593C284.951 213.261 284.284 213.381 283.951 213.862Z" fill="#FF967E"/>
<path d="M286.789 217.571C286.325 217.711 286.063 218.205 286.203 218.666L288.147 225.11C288.286 225.574 288.781 225.837 289.242 225.697C289.705 225.557 289.968 225.063 289.828 224.602L287.884 218.158C287.744 217.694 287.25 217.429 286.789 217.568V217.571Z" fill="#FF967E"/>
<path d="M279.781 215.219C279.781 215.219 278.596 220.105 280.808 222.906C281.574 223.876 287.867 221.786 288.088 220.42C288.309 219.054 286.571 214.831 286.571 214.831L279.781 215.219Z" fill="#FF967E"/>
<path d="M280.336 219.513C279.875 219.652 279.61 220.144 279.75 220.608L281.691 227.038C281.831 227.499 282.322 227.764 282.786 227.624C283.247 227.485 283.512 226.993 283.373 226.529L281.431 220.099C281.292 219.638 280.8 219.373 280.336 219.513Z" fill="#FF967E"/>
<path d="M287.965 215.311C296.163 209.926 288.244 191.398 291.652 179.889C292.443 177.221 292.784 176.216 293.465 174.733C294.013 173.537 292.535 171.213 290.501 170.252C288.593 169.35 284.018 169.945 283.655 170.548C278.135 179.761 276.898 196.61 279.646 215.912C279.646 215.912 284.445 217.624 287.962 215.311H287.965Z" fill="#B20700"/>
<path d="M301.035 283.31C301.035 283.31 300.965 286.086 299.086 286.871C297.206 287.656 291.759 288.363 293.795 290.148C294.963 291.173 300.465 290.511 302.019 290.511C303.572 290.511 305.03 291.187 306.186 290.148C307.457 289.002 306.186 283.31 306.186 283.31C306.186 283.31 304.845 284.008 303.639 283.977C301.901 283.932 301.032 283.31 301.032 283.31H301.035Z" fill="#66192D"/>
<path d="M284.817 199.476C284.817 199.476 284.443 212.012 288.443 236.063C291.331 253.424 294.742 270.921 296.412 279.307C297.01 282.307 299.535 284.5 302.524 284.62L304.13 284.684C307.365 284.812 309.988 282.036 309.753 278.734L305.694 221.99L304.694 203.314L284.814 199.476H284.817Z" fill="#FFBA41"/>
<path d="M324.485 282.91C324.485 282.91 325.566 285.472 324.175 286.958C322.784 288.447 318.114 291.332 320.703 292.123C322.189 292.575 326.932 289.706 328.348 289.067C329.765 288.427 331.374 288.444 331.997 287.019C332.684 285.452 329.181 280.787 329.181 280.787C329.181 280.787 328.248 281.974 327.136 282.444C325.533 283.117 324.488 282.907 324.488 282.907L324.485 282.91Z" fill="#66192D"/>
<path d="M301.429 200.644C301.429 200.644 302.083 213.169 308.041 236.809C312.343 253.876 317.172 271.033 319.527 279.256C320.371 282.198 323.064 284.178 326.055 284.053L327.661 283.986C330.893 283.849 333.282 280.865 332.776 277.594L324.083 221.373L321.555 202.842L301.429 200.646V200.644Z" fill="#FFBA41"/>
<path d="M324.463 213.216C324.424 214.73 315.278 215.331 303.965 214.976C292.652 214.624 283.613 213.06 283.652 211.546C283.691 210.035 292.792 209.146 304.105 209.498C315.418 209.85 324.499 211.702 324.463 213.216Z" fill="#66192D"/>
<path d="M321.695 170.394C321.695 170.394 319.695 162.467 304.935 162.386C283.652 162.269 285.622 181.825 283.652 211.546C283.652 211.546 304.616 208.582 324.471 212.842C324.471 212.842 326.312 182.506 321.692 170.394H321.695Z" fill="#B20700"/>
<path d="M327.142 169.258L317.502 174.59C317.502 174.59 296.396 176.506 290.792 175.584C285.189 174.663 283.652 170.548 283.652 170.548C283.652 170.548 289.619 164.375 299.762 162.727C300.714 162.57 301.703 162.456 302.728 162.389C304.449 162.277 306.172 162.302 307.854 162.492C320.709 163.942 327.139 169.26 327.139 169.26L327.142 169.258Z" fill="#B20700"/>
<path d="M285.437 212.769C285.437 212.769 297.694 209.163 323.077 214.113L323.273 217.764L286.063 219.08L285.437 212.769Z" fill="#FFBA41"/>
<path d="M293.767 211.635C293.767 211.635 299.192 211.501 301.29 215.948C301.29 215.948 300.119 211.51 302.401 211.577C303.345 211.605 301.457 210.968 301.457 210.968L293.767 211.633V211.635Z" fill="#66192D"/>
<path d="M328.991 212.845C328.103 203.077 320.879 177.504 320.038 176.104C319.359 174.978 320.574 172.503 322.488 171.322C324.284 170.213 326.605 168.802 327.144 169.258C334.731 175.654 341.259 199.026 339.2 211.979L328.991 212.845Z" fill="#B20700"/>
<path d="M298.714 147.464C298.714 147.464 298.326 148.953 298.714 150.822C299.102 152.69 301.002 148.098 301.002 148.098L298.714 147.464Z" fill="#56335B"/>
<path d="M309.728 162.732C308.2 164.612 305.46 164.35 303.312 163.4C301.586 162.637 301.834 162.651 302.072 162.375C302.655 161.69 303.139 161.523 303.169 160.735L303.211 159.702L303.217 159.573L303.27 158.224L303.368 155.897L303.619 149.777L305.527 155.931L305.851 156.978L306.966 160.573C307.326 161.735 309.714 162.732 309.728 162.732Z" fill="#FF967E"/>
<path d="M306.15 157.942C306.15 157.942 305.164 159.417 303.214 159.702L303.219 159.573L303.273 158.224C304.326 158.123 306.15 157.942 306.15 157.942Z" fill="#66192D"/>
<path d="M298.487 151.361C298.962 147.749 301.775 145.14 304.77 145.534C307.764 145.928 309.809 149.173 309.334 152.785C308.859 156.397 306.046 159.006 303.052 158.612C300.057 158.218 298.013 154.972 298.487 151.361Z" fill="#FF967E"/>
<path d="M302.817 151.841C302.784 151.833 302.756 151.81 302.742 151.777C302.72 151.721 302.745 151.657 302.801 151.632C302.834 151.618 303.574 151.224 304.239 151.933C304.281 151.978 304.281 152.048 304.239 152.09C304.195 152.132 304.133 152.12 304.083 152.09C303.569 151.755 302.915 151.827 302.887 151.838C302.865 151.847 302.84 151.85 302.817 151.844V151.841Z" fill="#060633"/>
<path d="M299.873 151.813C299.848 151.813 299.823 151.796 299.806 151.766C299.778 151.715 299.789 151.646 299.828 151.612C299.851 151.592 300.348 151.042 300.965 151.581C301.004 151.615 301.016 151.682 300.99 151.735C300.965 151.788 300.915 151.791 300.87 151.768C300.429 151.556 299.946 151.774 299.926 151.791C299.909 151.805 299.893 151.813 299.873 151.81V151.813Z" fill="#060633"/>
<path d="M300.398 154.838C300.398 154.838 302.102 155.299 303.965 155.12C303.965 155.12 303.692 156.847 301.806 156.503C300.711 156.302 300.396 154.841 300.396 154.841L300.398 154.838Z" fill="white"/>
<path d="M304.901 163.704C304.901 163.704 302.309 162.903 301.619 163.526C300.929 164.149 301.438 166.995 302.63 167.249C303.823 167.503 306.08 164.392 304.901 163.704Z" fill="#FFBA41"/>
<path d="M303.379 163.031C303.379 163.031 306.764 161.836 307.424 160.637C308.083 159.442 311.588 162.204 311.527 163.031C311.466 163.855 305.155 168.436 304.742 167.858C304.329 167.28 302.552 163.816 303.379 163.031Z" fill="#FFBA41"/>
<path d="M303.379 163.031C303.379 163.031 302.873 161.774 303.116 161.093C303.116 161.093 303.278 160.492 302.761 160.534C302.245 160.576 299.44 162.534 299.194 163.132C298.946 163.73 298.907 166.534 299.812 166.741C300.719 166.947 302.907 163.933 303.164 163.635C303.421 163.336 303.379 163.028 303.379 163.028V163.031Z" fill="#FFBA41"/>
<path d="M301.904 166.146C301.904 166.146 292.985 189.266 293.58 198.956C293.58 198.956 294.208 204.61 298.217 207.663C298.217 207.663 303.627 204.116 304.354 198.956C304.951 194.716 302.306 170.146 303.834 166.755L301.907 166.146H301.904Z" fill="#FFBA41"/>
<path d="M302.65 167.311C302.65 167.311 302.636 167.311 302.63 167.311C301.843 167.297 301.415 165.758 301.398 165.693L301.519 165.66C301.524 165.674 301.94 167.174 302.633 167.185H302.653C303.359 167.185 303.991 166.528 303.999 166.523L304.088 166.609C304.06 166.637 303.412 167.311 302.653 167.311H302.65Z" fill="#66192D"/>
<path d="M306.234 148.02C306.234 148.02 304.915 150.095 302.027 150.229C302.027 150.229 301.683 150.104 302.181 149.788C302.678 149.472 303.382 148.609 303.195 148.341C303.007 148.073 300.873 150.981 298.65 150.83C298.65 150.83 295.56 150.724 297.354 148.883C298.468 147.74 297.354 143.232 304.734 142.819C305.812 142.757 308.142 142.9 309.007 144.564C309.007 144.564 311.938 144.472 312.535 148.017C313.432 153.35 308.555 155.305 308.555 155.305C308.555 155.305 309.764 150.78 308.432 151.366C306.72 152.12 305.812 151.148 306.555 150.165C307.298 149.182 307.48 147.235 306.234 148.017V148.02Z" fill="#66192D"/>
<path d="M309.323 153.249C308.77 153.601 308.063 153.486 307.748 152.992C307.432 152.498 307.628 151.808 308.181 151.456C308.737 151.104 309.441 151.218 309.756 151.713C310.072 152.207 309.879 152.897 309.323 153.249Z" fill="#FF967E"/>
<path d="M311.331 144.799C311.301 144.799 311.267 144.788 311.245 144.763C310.44 143.958 309.211 144.266 309.197 144.268C309.133 144.285 309.063 144.246 309.046 144.179C309.03 144.112 309.069 144.045 309.136 144.028C309.192 144.014 310.516 143.682 311.421 144.587C311.468 144.634 311.468 144.712 311.421 144.763C311.396 144.788 311.365 144.799 311.334 144.799H311.331Z" fill="#66192D"/>
<path d="M308.753 143.592C308.753 143.592 308.742 143.592 308.736 143.592C308.669 143.584 308.622 143.52 308.63 143.453C308.633 143.425 308.697 142.802 307.734 142.472C307.669 142.45 307.636 142.38 307.655 142.316C307.678 142.252 307.748 142.218 307.812 142.238C308.977 142.637 308.879 143.45 308.873 143.486C308.865 143.548 308.812 143.592 308.75 143.592H308.753Z" fill="#66192D"/>
<path d="M339.201 211.979C339.262 213.395 337.011 214.66 334.175 214.809C331.34 214.957 328.994 213.931 328.932 212.518C328.871 211.105 331.122 209.836 333.958 209.688C336.793 209.54 339.139 210.565 339.201 211.979Z" fill="#66192D"/>
<path d="M338.019 212.635C338.067 213.725 336.332 214.702 334.15 214.817C331.966 214.931 330.159 214.141 330.111 213.052C330.064 211.962 331.798 210.984 333.98 210.87C336.164 210.755 337.972 211.546 338.019 212.635Z" fill="#FF967E"/>
<path d="M335.729 216.554C336.243 216.602 336.622 217.057 336.578 217.571L335.863 225.535C335.818 226.049 335.36 226.429 334.846 226.384C334.332 226.339 333.952 225.881 333.997 225.367L334.709 217.404C334.757 216.89 335.212 216.51 335.726 216.554H335.729Z" fill="#FF967E"/>
<path d="M333.34 216.342C333.854 216.39 334.234 216.845 334.189 217.359L333.39 226.264C333.346 226.778 332.888 227.158 332.374 227.113C331.86 227.069 331.48 226.61 331.525 226.096L332.323 217.191C332.368 216.677 332.826 216.297 333.34 216.342Z" fill="#FF967E"/>
<path d="M333.114 211.649L333.354 211.878C333.804 212.308 333.823 213.029 333.393 213.479L329.206 217.87C328.776 218.32 328.055 218.339 327.605 217.909L327.365 217.68C326.915 217.25 326.896 216.529 327.326 216.079L331.513 211.688C331.943 211.239 332.664 211.219 333.114 211.649Z" fill="#FF967E"/>
<path d="M330.952 216.127C331.466 216.175 331.846 216.63 331.801 217.144L331.162 224.284C331.117 224.798 330.659 225.177 330.145 225.133C329.631 225.085 329.251 224.63 329.296 224.116L329.935 216.976C329.98 216.462 330.438 216.082 330.952 216.127Z" fill="#FF967E"/>
<path d="M337.753 212.166C337.753 212.166 340.041 217.004 338.337 220.406C337.748 221.582 330.734 220.761 330.209 219.381C329.684 218.001 330.586 213.225 330.586 213.225L337.751 212.166H337.753Z" fill="#FF967E"/>
<path d="M338.1 216.761C338.611 216.806 338.994 217.264 338.946 217.775L338.307 224.898C338.259 225.409 337.804 225.792 337.293 225.744C336.782 225.7 336.399 225.242 336.446 224.73L337.086 217.607C337.131 217.096 337.589 216.714 338.1 216.761Z" fill="#FF967E"/>
<path d="M283.532 211.557C283.515 211.345 281.803 190.311 287.904 177.28L288.127 177.383C282.054 190.353 283.761 211.325 283.778 211.535L283.532 211.557Z" fill="#66192D"/>
<path d="M324.717 192.688C323.111 186.127 319.781 181.464 319.748 181.42L319.949 181.274C319.982 181.322 323.34 186.023 324.96 192.629L324.72 192.688H324.717Z" fill="#66192D"/>
<path d="M300.091 153.076C300.122 153.31 300.284 153.484 300.454 153.461C300.624 153.439 300.739 153.232 300.708 152.998C300.678 152.763 300.515 152.59 300.345 152.612C300.175 152.634 300.06 152.841 300.091 153.076Z" fill="#060633"/>
<path d="M302.907 153.157C302.938 153.391 303.1 153.565 303.27 153.542C303.44 153.52 303.555 153.313 303.524 153.079C303.493 152.844 303.331 152.671 303.161 152.693C302.991 152.715 302.876 152.922 302.907 153.157Z" fill="#060633"/>
</svg>
