<svg width="70" height="70" viewBox="0 0 70 70" fill="none" xmlns="http://www.w3.org/2000/svg">
<circle cx="35" cy="35" r="35" fill="#FDD4DC"/>
<path d="M40.3543 26.6354L45.3854 24.1191C45.5952 24.0143 45.8283 23.9649 46.0626 23.9755C46.2968 23.9862 46.5245 24.0566 46.7239 24.1801C46.9233 24.3035 47.0878 24.476 47.2017 24.6809C47.3157 24.8859 47.3753 25.1166 47.375 25.3511V42.9016C47.3749 43.1569 47.3037 43.4071 47.1694 43.6242C47.0351 43.8413 46.843 44.0168 46.6146 44.1309L40.3543 47.2617M29.6458 44.366L24.6146 46.8822C24.4047 46.9871 24.1715 47.0366 23.9371 47.0258C23.7027 47.0151 23.475 46.9446 23.2755 46.8209C23.0761 46.6973 22.9116 46.5247 22.7978 46.3195C22.6839 46.1144 22.6244 45.8835 22.625 45.6489V28.0997C22.6251 27.8445 22.6963 27.5943 22.8306 27.3772C22.9649 27.16 23.157 26.9846 23.3854 26.8705L29.6458 23.7396" stroke="#5C5C5C" stroke-width="2" stroke-linecap="round" stroke-linejoin="round"/>
<path d="M30.875 44.076C31.3017 44.076 31.7226 44.1753 32.1043 44.366L37.8957 47.2618C38.2774 47.4525 38.6983 47.5518 39.125 47.5518V26.9254C38.6983 26.9254 38.2774 26.8261 37.8957 26.6354L35 25.1875L32.1043 23.7396C31.7226 23.5489 31.3017 23.4496 30.875 23.4496V44.0745" stroke="#EA0029" stroke-width="2" stroke-linecap="round" stroke-linejoin="round"/>
</svg>
