<svg width="70" height="70" viewBox="0 0 70 70" fill="none" xmlns="http://www.w3.org/2000/svg">
<circle cx="35" cy="35" r="35" fill="#FDD4DC"/>
<path d="M43.6251 43.2361C45.4126 43.0601 46.6158 42.6628 47.5136 41.7649C49.1251 40.152 49.1251 37.5587 49.1251 32.375C49.1244 31.6771 48.9861 30.9862 48.7181 30.3419C48.4501 29.6975 48.0576 29.1124 47.5631 28.6199L47.196 28.25M27.2654 26.875C27.44 25.0875 27.8374 23.8844 28.7366 22.9865C30.3468 21.375 32.94 21.375 38.1251 21.375C38.823 21.3757 39.5139 21.514 40.1582 21.782C40.8026 22.0501 41.3878 22.4425 41.8803 22.937L42.2501 23.3055" stroke="#5C5C5C" stroke-width="2" stroke-linecap="round"/>
<path d="M21.25 38.25C21.25 33.0649 21.25 30.4716 22.8615 28.8615C24.473 27.2514 27.0649 27.25 32.25 27.25C32.9479 27.2507 33.6388 27.389 34.2831 27.657C34.9275 27.9251 35.5126 28.3175 36.0051 28.812L41.688 34.4949C42.1825 34.9874 42.5749 35.5725 42.843 36.2169C43.111 36.8612 43.2493 37.5521 43.25 38.25C43.25 43.4351 43.25 46.0284 41.6385 47.6385C40.027 49.2486 37.4351 49.25 32.25 49.25C27.0649 49.25 24.4716 49.25 22.8615 47.6385C21.9622 46.7406 21.5649 45.5375 21.3902 43.75" stroke="#EA0029" stroke-width="2" stroke-linecap="round"/>
<path d="M32.25 38.25H30.875C29.5784 38.25 28.9308 38.25 28.5279 38.6529C28.125 39.0558 28.125 39.7034 28.125 41V42.375C28.125 43.6716 28.125 44.3193 28.5279 44.7221C28.9308 45.125 29.5784 45.125 30.875 45.125H32.25M32.25 38.25H33.625C34.9216 38.25 35.5692 38.25 35.9721 38.6529C36.375 39.0558 36.375 39.7034 36.375 41V41.6875M32.25 38.25V41.6875M32.25 45.125H33.625C34.9216 45.125 35.5692 45.125 35.9721 44.7221C36.375 44.3193 36.375 43.6716 36.375 42.375V41.6875M32.25 45.125V41.6875M36.375 41.6875H32.25" stroke="#EA0029" stroke-width="2"/>
</svg>
