<svg width="25" height="25" viewBox="0 0 25 25" fill="none" xmlns="http://www.w3.org/2000/svg">
<g clip-path="url(#clip0_2186_18039)">
<path d="M12.9375 6.14453C13.1906 6.14453 13.3973 5.94348 13.4057 5.69226C13.4062 5.68713 13.4062 5.68146 13.4062 5.67578C13.4062 5.41705 13.1962 5.20703 12.9375 5.20703C12.6788 5.20703 12.4688 5.41705 12.4688 5.67578C12.4688 5.68146 12.4687 5.68713 12.4693 5.69226C12.4777 5.94348 12.6844 6.14453 12.9375 6.14453Z" fill="#EA0033"/>
<path d="M15.75 10.832C15.75 9.28131 14.4884 8.01953 12.9375 8.01953C11.3866 8.01953 10.125 9.28131 10.125 10.832C10.125 12.3829 11.3866 13.6445 12.9375 13.6445C14.4884 13.6445 15.75 12.3829 15.75 10.832ZM12.9375 12.707C11.9037 12.707 11.0625 11.8658 11.0625 10.832C11.0625 9.79821 11.9037 8.95703 12.9375 8.95703C13.9713 8.95703 14.8125 9.79821 14.8125 10.832C14.8125 11.8658 13.9713 12.707 12.9375 12.707Z" fill="#EA0033"/>
<path d="M24.5606 10.3724L22.5153 9.96354C22.2749 8.95189 21.8737 7.98381 21.3191 7.07781L22.5556 5.2603C22.6821 5.07409 22.6587 4.82433 22.4996 4.66521L20.5107 2.67633C20.3514 2.51702 20.1016 2.49359 19.9154 2.62011C19.4914 2.90869 18.5471 3.55102 18.0935 3.85918C17.1945 3.30383 16.2277 2.90155 15.2122 2.6604L14.8033 0.615112C14.7596 0.396118 14.5673 0.238281 14.3437 0.238281H11.5312C11.3078 0.238281 11.1154 0.396118 11.0716 0.615112L10.6628 2.6604C9.64689 2.90173 8.68028 3.30401 7.7816 3.85955C7.35259 3.56786 6.48046 2.9746 5.95952 2.62011C5.77331 2.49359 5.52355 2.51721 5.36425 2.67633L3.37536 4.66521C3.21624 4.82433 3.19262 5.07427 3.31933 5.2603L4.55584 7.07781C4.00121 7.98381 3.59985 8.95189 3.35961 9.96354L1.31433 10.3724C1.09515 10.4162 0.9375 10.6086 0.9375 10.832V13.6445C0.9375 13.8679 1.09515 14.0603 1.31433 14.1041L3.35961 14.513C3.60095 15.529 4.00323 16.4956 4.55877 17.3943C4.26708 17.8231 3.67364 18.6953 3.31933 19.2164C3.19262 19.4024 3.21624 19.6522 3.37536 19.8115L5.36425 21.8004C5.52355 21.9595 5.77331 21.9831 5.95952 21.8564L7.77684 20.6199C8.68303 21.1747 9.65129 21.5759 10.6628 21.8161L11.0716 23.8614C11.1154 24.0806 11.3078 24.2382 11.5312 24.2382H14.3437C14.5673 24.2382 14.7596 24.0806 14.8033 23.8614L15.2122 21.8161C16.2279 21.575 17.1947 21.1727 18.0935 20.617C18.5224 20.9086 19.3947 21.5019 19.9156 21.8564C20.1016 21.9829 20.3514 21.9595 20.5107 21.8004L22.4996 19.8113C22.6587 19.6522 22.6823 19.4024 22.5556 19.2162C22.2013 18.6953 21.6079 17.8231 21.3162 17.3941C21.8719 16.4955 22.2744 15.5287 22.5153 14.513L24.5606 14.1041C24.7798 14.0603 24.9375 13.8679 24.9375 13.6445V10.832C24.9375 10.6086 24.7798 10.4162 24.5606 10.3724ZM24 13.2602L22.0318 13.6537C21.8466 13.6906 21.7018 13.8349 21.6643 14.0197C21.4378 15.1313 21.0003 16.1823 20.364 17.1433C20.2631 17.2954 20.2598 17.4926 20.3558 17.6481C20.3629 17.6598 20.3648 17.6627 21.5623 19.4229L20.122 20.8631C18.3618 19.6657 18.359 19.6639 18.3471 19.6566C18.1919 19.5608 17.9948 19.5639 17.8423 19.6648C16.8814 20.3011 15.8305 20.7387 14.7189 20.965C14.534 21.0028 14.3897 21.1476 14.3527 21.3325L13.9594 23.3007H11.9156L11.5221 21.3325C11.4851 21.1476 11.3408 21.0026 11.156 20.965C10.0497 20.7396 8.99614 20.3029 8.02422 19.6672C7.86583 19.5636 7.66057 19.5652 7.50402 19.6718L5.7528 20.8631L4.31268 19.4229C5.51018 17.6626 5.51183 17.6598 5.51916 17.6481C5.61492 17.4925 5.61181 17.2954 5.51092 17.1431C4.87463 16.1825 4.43719 15.1317 4.21069 14.0197C4.17297 13.8348 4.02813 13.6906 3.84319 13.6537L1.875 13.2602V11.2163L3.84319 10.8229C4.02831 10.7859 4.17297 10.6418 4.21069 10.4568C4.43627 9.35032 4.87279 8.29655 5.50872 7.325C5.61236 7.16661 5.61053 6.96135 5.50396 6.80461L4.31268 5.05358L5.75298 3.61346C7.51317 4.81078 7.51592 4.81261 7.52782 4.81994C7.68328 4.9157 7.8803 4.91259 8.03246 4.8117C8.99339 4.17559 10.0442 3.73797 11.156 3.51147C11.341 3.47375 11.4853 3.32891 11.5223 3.14398L11.9156 1.17578H13.9594L14.3529 3.14416C14.3899 3.3291 14.5342 3.47393 14.7189 3.51147C15.8304 3.73797 16.8812 4.17522 17.8427 4.81133C17.987 4.90691 18.1723 4.91515 18.3244 4.83275C18.3499 4.81902 18.3515 4.81811 20.1222 3.61346L21.5623 5.05376L20.3712 6.8048C20.2646 6.96135 20.2626 7.16661 20.3664 7.32518C21.0022 8.29674 21.4389 9.35051 21.6643 10.457C21.702 10.6418 21.8468 10.7861 22.0318 10.823L24 11.2165V13.2602Z" fill="#EA0033"/>
<path d="M14.9171 5.48931C14.6673 5.4212 14.4097 5.56842 14.3416 5.81817C14.2735 6.06793 14.4207 6.32556 14.6705 6.39367C16.7844 6.97027 19.0313 9.21404 19.0313 12.2367C19.0313 14.0321 18.2507 15.6484 17.0113 16.7646C16.5257 14.9602 14.8735 13.643 12.9375 13.643C11.0018 13.643 9.34978 14.9601 8.864 16.764C7.51452 15.5533 6.76544 13.8191 6.85021 11.9533C6.9793 9.34111 8.73162 7.10632 11.211 6.39184C11.4599 6.32025 11.6034 6.06042 11.5317 5.81176C11.4599 5.56292 11.2002 5.41937 10.9516 5.49115C8.21801 6.27868 6.06781 8.7918 5.91381 11.909C5.7265 16.0283 9.04436 19.268 12.9375 19.268C16.8098 19.268 19.9688 16.1462 19.9688 12.2367C19.9688 8.97966 17.6743 6.24114 14.9171 5.48931ZM9.69127 17.3877C9.92199 15.7936 11.2989 14.5805 12.9375 14.5805C14.5774 14.5805 15.9551 15.7954 16.1844 17.3911C15.2438 17.9859 14.1303 18.3305 12.9375 18.3305C11.7864 18.3305 10.6581 17.9961 9.69127 17.3877Z" fill="#EA0033"/>
</g>
<defs>
<clipPath id="clip0_2186_18039">
<rect width="24" height="24" fill="white" transform="translate(0.9375 0.238281)"/>
</clipPath>
</defs>
</svg>
