<svg width="32" height="33" viewBox="0 0 32 33" fill="none" xmlns="http://www.w3.org/2000/svg">
<circle cx="16" cy="16.3147" r="16" fill="#EA0033"/>
<g clip-path="url(#clip0_196_848)">
<path d="M23.5 19.998V22.9447C23.5001 23.1557 23.4202 23.3588 23.2763 23.5132C23.1325 23.6675 22.9355 23.7616 22.725 23.7764C22.3608 23.8014 22.0633 23.8147 21.8333 23.8147C14.4692 23.8147 8.5 17.8455 8.5 10.4814C8.5 10.2514 8.5125 9.95386 8.53833 9.5897C8.5531 9.37923 8.64715 9.18221 8.8015 9.03837C8.95585 8.89454 9.15902 8.8146 9.37 8.8147H12.3167C12.42 8.81459 12.5197 8.85291 12.5964 8.92221C12.6731 8.99152 12.7213 9.08685 12.7317 9.1897C12.7508 9.38136 12.7683 9.53386 12.785 9.6497C12.9506 10.8055 13.29 11.9296 13.7917 12.9839C13.8708 13.1505 13.8192 13.3497 13.6692 13.4564L11.8708 14.7414C12.9704 17.3034 15.0121 19.3452 17.5742 20.4447L18.8575 18.6497C18.91 18.5764 18.9865 18.5238 19.0737 18.5011C19.161 18.4784 19.2535 18.487 19.335 18.5255C20.3892 19.0263 21.513 19.3648 22.6683 19.5297C22.7842 19.5464 22.9367 19.5647 23.1267 19.583C23.2294 19.5936 23.3245 19.6418 23.3936 19.7185C23.4628 19.7952 23.501 19.8948 23.5008 19.998H23.5Z" fill="white"/>
</g>
<defs>
<clipPath id="clip0_196_848">
<rect width="20" height="20" fill="white" transform="translate(6 6.3147)"/>
</clipPath>
</defs>
</svg>
