<svg width="20" height="21" viewBox="0 0 20 21" fill="none" xmlns="http://www.w3.org/2000/svg">
<path d="M10 20.7662C4.477 20.7662 0 16.2892 0 10.7662C0 5.24324 4.477 0.766235 10 0.766235C15.523 0.766235 20 5.24324 20 10.7662C20 16.2892 15.523 20.7662 10 20.7662ZM10 18.7662C12.1217 18.7662 14.1566 17.9234 15.6569 16.4231C17.1571 14.9228 18 12.888 18 10.7662C18 8.6445 17.1571 6.60967 15.6569 5.10938C14.1566 3.60909 12.1217 2.76624 10 2.76624C7.87827 2.76624 5.84344 3.60909 4.34315 5.10938C2.84285 6.60967 2 8.6445 2 10.7662C2 12.888 2.84285 14.9228 4.34315 16.4231C5.84344 17.9234 7.87827 18.7662 10 18.7662ZM9.003 14.7662L4.76 10.5232L6.174 9.10924L9.003 11.9382L14.659 6.28124L16.074 7.69524L9.003 14.7662Z" fill="#EA0033"/>
</svg>
