<svg width="140" height="52" viewBox="0 0 140 52" fill="none" xmlns="http://www.w3.org/2000/svg">
<path d="M0 32.8771V17.0468C0 16.2196 0.195531 15.6033 0.570298 15.1978C0.945065 14.7923 1.43389 14.5814 2.03678 14.5814C2.65596 14.5814 3.14479 14.7923 3.53585 15.1978C3.91061 15.6033 4.10615 16.2196 4.10615 17.063V32.8771C4.10615 33.7043 3.91061 34.3369 3.53585 34.7424C3.16108 35.1479 2.65596 35.3587 2.03678 35.3587C1.45019 35.3587 0.961359 35.1479 0.586592 34.7424C0.195531 34.3207 0 33.7043 0 32.8771Z" fill="#EC1B2E"/>
<path d="M11.8133 22.2209V22.675C12.4814 21.7992 13.1983 21.1666 13.9804 20.7611C14.7626 20.3556 15.675 20.1448 16.6853 20.1448C17.6792 20.1448 18.5591 20.3556 19.3412 20.7935C20.1234 21.2153 20.71 21.8316 21.0847 22.6101C21.3291 23.0643 21.4921 23.5671 21.5736 24.0861C21.655 24.6214 21.6876 25.2864 21.6876 26.1136V33.0718C21.6876 33.8179 21.5084 34.3856 21.1662 34.7748C20.824 35.1641 20.3678 35.3425 19.8301 35.3425C19.2761 35.3425 18.8198 35.1479 18.4614 34.7586C18.1192 34.3693 17.9399 33.8017 17.9399 33.0718V26.8272C17.9399 25.5945 17.7607 24.6538 17.4185 23.9888C17.0764 23.34 16.392 23.0156 15.3655 23.0156C14.6974 23.0156 14.0782 23.2103 13.5405 23.6158C12.9865 24.0212 12.5791 24.5565 12.3347 25.2539C12.1555 25.8054 12.0577 26.8597 12.0577 28.3843V33.0718C12.0577 33.8341 11.8785 34.4018 11.52 34.7748C11.1615 35.1479 10.7053 35.3425 10.1513 35.3425C9.61359 35.3425 9.15736 35.1479 8.81518 34.7586C8.473 34.3693 8.29376 33.8017 8.29376 33.0718V22.2533C8.29376 21.5396 8.4567 21.0044 8.76629 20.6638C9.07588 20.307 9.49954 20.1285 10.0535 20.1285C10.3794 20.1285 10.689 20.2096 10.9497 20.3556C11.2104 20.5178 11.4223 20.7449 11.5852 21.0531C11.7318 21.3937 11.8133 21.7667 11.8133 22.2209Z" fill="#EC1B2E"/>
<path d="M28.8571 22.2209V22.675C29.5251 21.7992 30.2421 21.1666 31.0242 20.7611C31.8063 20.3556 32.7188 20.1448 33.729 20.1448C34.723 20.1448 35.6029 20.3556 36.385 20.7935C37.1671 21.2153 37.7537 21.8316 38.1285 22.6101C38.3729 23.0643 38.5358 23.5671 38.6173 24.0861C38.6988 24.6214 38.7314 25.2864 38.7314 26.1136V33.0718C38.7314 33.8179 38.5521 34.3856 38.21 34.7748C37.8678 35.1641 37.4115 35.3425 36.8738 35.3425C36.3198 35.3425 35.8636 35.1479 35.5051 34.7586C35.1629 34.3693 34.9837 33.8017 34.9837 33.0718V26.8272C34.9837 25.5945 34.8045 24.6538 34.4623 23.9888C34.1201 23.34 33.4358 23.0156 32.4092 23.0156C31.7412 23.0156 31.122 23.2103 30.5843 23.6158C30.0303 24.0212 29.6229 24.5565 29.3785 25.2539C29.1993 25.8054 29.1015 26.8597 29.1015 28.3843V33.0718C29.1015 33.8341 28.9223 34.4018 28.5638 34.7748C28.2053 35.1479 27.7491 35.3425 27.1951 35.3425C26.6574 35.3425 26.2011 35.1479 25.8589 34.7586C25.5168 34.3693 25.3375 33.8017 25.3375 33.0718V22.2533C25.3375 21.5396 25.5005 21.0044 25.8101 20.6638C26.1196 20.307 26.5433 20.1285 27.0973 20.1285C27.4232 20.1285 27.7328 20.2096 27.9935 20.3556C28.2542 20.5178 28.466 20.7449 28.629 21.0531C28.7756 21.3937 28.8571 21.7667 28.8571 22.2209Z" fill="#EC1B2E"/>
<path d="M77.1206 22.4803L79.5647 30.8496L81.797 23.0805C82.0414 22.2695 82.2043 21.718 82.3347 21.4098C82.4488 21.1179 82.6606 20.8259 82.9865 20.5664C83.2961 20.2907 83.736 20.1609 84.29 20.1609C84.844 20.1609 85.284 20.2907 85.6098 20.5664C85.9194 20.8422 86.1476 21.1341 86.2779 21.4423C86.4083 21.7505 86.5875 22.3019 86.8156 23.0805L89.0479 30.8496L91.5247 22.4803C91.6876 21.8802 91.8179 21.4423 91.932 21.1665C92.0298 20.8908 92.209 20.6637 92.4371 20.4529C92.6815 20.242 93.0237 20.1447 93.4637 20.1447C93.9199 20.1447 94.311 20.3069 94.6368 20.6151C94.9627 20.9233 95.1257 21.2963 95.1257 21.718C95.1257 22.1073 94.979 22.675 94.702 23.4535L91.6387 32.4229C91.378 33.1853 91.1662 33.7367 91.0195 34.0611C90.8729 34.4017 90.6448 34.6937 90.3189 34.9694C89.993 35.2452 89.5693 35.3749 89.0153 35.3749C88.445 35.3749 88.0051 35.2289 87.6792 34.9532C87.3533 34.6775 87.1089 34.3206 86.9623 33.9151C86.7993 33.5097 86.6364 32.9744 86.4571 32.3094L84.3063 25.0106L82.2206 32.3094C81.9436 33.3312 81.6503 34.0936 81.3245 34.6126C80.9986 35.1316 80.4446 35.3911 79.6299 35.3911C79.2225 35.3911 78.864 35.31 78.5707 35.1478C78.2774 34.9856 78.033 34.7586 77.8538 34.4666C77.6583 34.1747 77.4953 33.8178 77.3487 33.4123C77.202 33.0068 77.088 32.6825 77.0065 32.4392L73.9595 23.4697C73.6499 22.6263 73.5032 22.0424 73.5032 21.7342C73.5032 21.3287 73.6662 20.9719 73.9921 20.6475C74.3179 20.3231 74.709 20.1609 75.1815 20.1609C75.8007 20.1609 76.2244 20.3393 76.4525 20.6962C76.6806 21.053 76.8761 21.6207 77.1206 22.4803Z" fill="#EC1B2E"/>
<path d="M106.841 33.2501C105.929 33.9476 105.049 34.4828 104.202 34.8397C103.354 35.1965 102.393 35.3749 101.35 35.3749C100.389 35.3749 99.5414 35.1803 98.8082 34.8072C98.0749 34.4342 97.5209 33.9151 97.1136 33.2664C96.7225 32.6176 96.527 31.9201 96.527 31.1578C96.527 30.136 96.8529 29.2601 97.5046 28.5465C98.1564 27.8166 99.0526 27.3462 100.193 27.0867C100.438 27.038 101.024 26.9083 101.969 26.7136C102.914 26.519 103.729 26.3406 104.397 26.1784C105.065 26.0162 105.798 25.8216 106.597 25.5945C106.548 24.6051 106.352 23.8914 105.994 23.4211C105.635 22.9669 104.902 22.7236 103.794 22.7236C102.833 22.7236 102.116 22.8534 101.643 23.1291C101.155 23.3886 100.747 23.7941 100.405 24.3294C100.063 24.8646 99.8184 25.2052 99.6718 25.3836C99.5251 25.5458 99.2318 25.6432 98.7593 25.6432C98.3356 25.6432 97.9772 25.5134 97.6676 25.2377C97.358 24.9619 97.2113 24.6213 97.2113 24.1996C97.2113 23.5346 97.4395 22.902 97.912 22.2857C98.3845 21.6694 99.1178 21.1503 100.095 20.7448C101.089 20.3394 102.328 20.1447 103.794 20.1447C105.44 20.1447 106.743 20.3394 107.689 20.7286C108.634 21.1179 109.302 21.7342 109.693 22.5777C110.084 23.4211 110.279 24.5402 110.279 25.9189C110.279 26.7947 110.279 27.5408 110.279 28.1572C110.279 28.7735 110.263 29.4548 110.263 30.2009C110.263 30.8983 110.377 31.6444 110.621 32.4067C110.85 33.169 110.98 33.6556 110.98 33.8827C110.98 34.272 110.801 34.6126 110.442 34.937C110.084 35.2451 109.676 35.4073 109.204 35.4073C108.813 35.4073 108.438 35.2289 108.063 34.8721C107.656 34.4666 107.265 33.9314 106.841 33.2501ZM106.597 27.8328C106.043 28.0274 105.244 28.2383 104.202 28.4654C103.142 28.6924 102.425 28.8546 102.018 28.952C101.611 29.0493 101.236 29.2601 100.861 29.5683C100.486 29.8765 100.307 30.2982 100.307 30.8496C100.307 31.4173 100.519 31.9039 100.959 32.2932C101.383 32.6987 101.953 32.8933 102.654 32.8933C103.403 32.8933 104.087 32.7311 104.707 32.4067C105.342 32.0823 105.798 31.6606 106.092 31.1578C106.434 30.5901 106.597 29.6656 106.597 28.368V27.8328Z" fill="#EC1B2E"/>
<path d="M117.204 35.8291L117.547 34.9856L112.919 23.4049C112.642 22.7398 112.495 22.2533 112.495 21.9451C112.495 21.6207 112.577 21.3287 112.74 21.053C112.903 20.7773 113.131 20.5664 113.424 20.388C113.717 20.2258 114.011 20.1447 114.32 20.1447C114.858 20.1447 115.265 20.3231 115.542 20.6637C115.819 21.0044 116.064 21.4909 116.276 22.1397L119.453 31.3525L122.467 22.7885C122.712 22.0911 122.924 21.5558 123.119 21.1503C123.315 20.7611 123.51 20.4853 123.738 20.3556C123.95 20.2258 124.26 20.1447 124.651 20.1447C124.928 20.1447 125.205 20.2258 125.465 20.3718C125.726 20.5178 125.922 20.7286 126.068 20.9881C126.215 21.2476 126.28 21.5072 126.28 21.7991C126.248 21.9775 126.182 22.2208 126.101 22.5452C126.019 22.8696 125.922 23.194 125.791 23.5184L120.903 36.2832C120.479 37.4024 120.072 38.2944 119.665 38.927C119.257 39.5596 118.72 40.0624 118.068 40.403C117.4 40.7436 116.504 40.922 115.379 40.922C114.271 40.922 113.457 40.8085 112.903 40.5652C112.349 40.3219 112.072 39.9002 112.072 39.2676C112.072 38.8459 112.202 38.5053 112.463 38.2782C112.723 38.0511 113.114 37.9214 113.62 37.9214C113.815 37.9214 114.027 37.9538 114.206 38.0025C114.451 38.0511 114.646 38.0836 114.825 38.0836C115.249 38.0836 115.591 38.0187 115.852 37.8889C116.096 37.7592 116.324 37.5321 116.52 37.2239C116.715 36.8995 116.944 36.4454 117.204 35.8291Z" fill="#EC1B2E"/>
<path d="M69.0875 44.5552C69.0875 44.4092 69.1201 44.3119 69.169 44.2632C69.2179 44.1983 69.3156 44.1659 69.4949 44.1659H71.4828C71.7435 44.1659 72.0042 44.2146 72.216 44.2957C72.4441 44.3768 72.6397 44.5065 72.7863 44.6525C72.9493 44.7985 73.0633 44.9931 73.1611 45.204C73.2425 45.431 73.2914 45.6581 73.2914 45.9176C73.2914 46.0798 73.2588 46.2582 73.21 46.4691C73.1611 46.6799 73.0633 46.8746 72.9167 47.0692C72.77 47.2476 72.5745 47.4098 72.3301 47.5396C72.0857 47.6693 71.7761 47.7342 71.4013 47.7342H69.7393V50.1023C69.7393 50.1509 69.723 50.1671 69.7067 50.1834C69.6904 50.1996 69.6578 50.1996 69.6089 50.1996H69.1853C69.1364 50.1996 69.1201 50.1996 69.1038 50.1834C69.0875 50.1671 69.0712 50.1347 69.0712 50.1023L69.0875 44.5552ZM69.7556 47.1341H71.3524C71.7598 47.1341 72.0694 47.0368 72.2812 46.8259C72.5093 46.6151 72.6234 46.3231 72.6234 45.95C72.6234 45.8203 72.6071 45.6905 72.5745 45.5446C72.5256 45.3986 72.4604 45.285 72.3627 45.1553C72.2649 45.0418 72.1345 44.9444 71.9716 44.8796C71.8087 44.8147 71.5968 44.766 71.3524 44.766H69.7719L69.7556 47.1341Z" fill="black"/>
<path d="M77.7723 47.9126C77.7723 48.6749 77.6094 49.2751 77.2509 49.6805C76.9088 50.086 76.4199 50.2969 75.7519 50.2969C75.1164 50.2969 74.6276 50.1023 74.2854 49.6968C73.9432 49.2913 73.7803 48.7074 73.7803 47.9451C73.7803 47.572 73.8292 47.2152 73.9269 46.9394C74.0247 46.6475 74.1713 46.4042 74.3506 46.2096C74.5298 46.0149 74.7416 45.8689 74.986 45.7554C75.2305 45.6581 75.5075 45.6094 75.8008 45.6094C76.4362 45.6094 76.925 45.8203 77.2835 46.2258C77.6094 46.5988 77.7723 47.1827 77.7723 47.9126ZM77.1532 47.9451C77.1532 47.7018 77.1369 47.4909 77.1043 47.2638C77.0554 47.0368 76.9902 46.8421 76.8925 46.6799C76.7947 46.5177 76.648 46.3718 76.4851 46.2744C76.3059 46.1771 76.094 46.1285 75.8333 46.1285C75.5889 46.1285 75.3934 46.1771 75.1979 46.2744C75.0186 46.3718 74.872 46.5015 74.7742 46.6637C74.6602 46.8259 74.5787 47.0205 74.5298 47.2314C74.4809 47.4585 74.4483 47.6693 74.4483 47.9288C74.4483 48.1883 74.4809 48.4479 74.5135 48.6587C74.5624 48.8858 74.6439 49.0804 74.7416 49.2426C74.8394 49.4048 74.986 49.5346 75.1653 49.6319C75.3282 49.7292 75.5563 49.7779 75.8008 49.7779C76.0615 49.7779 76.2733 49.7292 76.4525 49.6157C76.6318 49.5021 76.7784 49.3724 76.8762 49.194C76.9739 49.0318 77.0554 48.8209 77.1043 48.6101C77.1369 48.383 77.1532 48.1559 77.1532 47.9451Z" fill="black"/>
<path d="M81.2267 46.5988L80.8683 47.8964L80.2328 49.9076C80.2002 50.0049 80.1676 50.086 80.1187 50.1509C80.0698 50.1996 79.9884 50.232 79.8743 50.232H79.5973C79.4995 50.232 79.4344 50.1996 79.3692 50.1671C79.3203 50.1185 79.2714 50.0212 79.2388 49.8914L78.2938 45.7392C78.2775 45.6905 78.2938 45.6581 78.3427 45.6581H78.8315C78.8641 45.6581 78.8804 45.6581 78.8967 45.6743C78.913 45.6905 78.9292 45.7067 78.9292 45.723L79.4832 48.4316L79.7114 49.5346H79.7603L80.0698 48.5127L80.7705 46.1609C80.8031 46.096 80.8194 46.0149 80.8846 45.95C80.9334 45.9014 81.0312 45.8527 81.129 45.8527H81.3571C81.4711 45.8527 81.5363 45.8852 81.5852 45.9338C81.6341 45.9825 81.6504 46.0798 81.683 46.1609L82.3673 48.383L82.7095 49.5832H82.7584L83.0028 48.383L83.5568 45.723C83.5731 45.6905 83.5894 45.6743 83.5894 45.6743C83.6057 45.6581 83.622 45.6581 83.6546 45.6581H84.1271C84.176 45.6581 84.2086 45.6905 84.176 45.7392L83.2309 49.8914C83.1983 50.0374 83.1495 50.1347 83.0843 50.1671C83.0191 50.2158 82.9376 50.232 82.8399 50.232H82.5955C82.4814 50.232 82.3999 50.1996 82.351 50.1671C82.3022 50.1185 82.2533 50.0374 82.2207 49.9238L81.5852 47.8964L81.2267 46.615V46.5988Z" fill="black"/>
<path d="M86.6527 45.577C86.9949 45.577 87.2719 45.6257 87.5 45.723C87.7444 45.8203 87.9399 45.9501 88.0866 46.1285C88.2332 46.2907 88.3473 46.5015 88.4288 46.7448C88.4939 46.9881 88.5428 47.2476 88.5428 47.5234C88.5428 47.7667 88.4939 47.9289 88.3799 47.9937C88.2658 48.0748 88.1355 48.1073 87.9725 48.1073H85.3166C85.3166 48.3992 85.3654 48.6587 85.4306 48.8696C85.4958 49.0805 85.6099 49.2426 85.7402 49.3724C85.8706 49.5022 86.0172 49.5995 86.1965 49.6481C86.3757 49.6968 86.5549 49.7292 86.7668 49.7292C86.9623 49.7292 87.1415 49.6968 87.3208 49.6644C87.5 49.6157 87.6629 49.567 87.777 49.5022C87.8422 49.4697 87.9073 49.4697 87.9236 49.5346L88.0703 49.8428C88.1029 49.9076 88.0866 49.9725 88.0214 49.9887C87.8259 50.1185 87.5978 50.1996 87.3696 50.232C87.1415 50.2645 86.9134 50.2969 86.7016 50.2969C86.0661 50.2969 85.5773 50.1185 85.2025 49.7455C84.844 49.3724 84.6648 48.7885 84.6648 47.9613C84.6648 47.572 84.7137 47.2314 84.8114 46.9395C84.9092 46.6475 85.0559 46.4042 85.2188 46.1934C85.398 45.9987 85.6099 45.8528 85.8543 45.7392C86.0987 45.6419 86.3594 45.577 86.6527 45.577ZM87.9399 47.5883C87.9399 47.3936 87.9237 47.199 87.8911 47.0368C87.8422 46.8584 87.777 46.6962 87.6792 46.5664C87.5815 46.4367 87.4511 46.3231 87.2882 46.242C87.1252 46.1609 86.9134 46.1123 86.6527 46.1123C86.4409 46.1123 86.2616 46.1609 86.115 46.2258C85.9683 46.3069 85.8217 46.4042 85.7076 46.5502C85.5936 46.6962 85.5121 46.8422 85.4632 47.0206C85.4143 47.199 85.3654 47.3936 85.3492 47.6045L87.9399 47.5883Z" fill="black"/>
<path d="M92.1602 46.6313C92.1276 46.6638 92.1113 46.68 92.095 46.68C92.0787 46.68 92.0461 46.6638 92.0461 46.6475C91.8832 46.5016 91.7039 46.388 91.4921 46.2907C91.2803 46.1934 91.0522 46.1447 90.7752 46.1447C90.6937 46.1447 90.6122 46.1447 90.4982 46.1609C90.4004 46.1609 90.2863 46.1934 90.1723 46.2096V50.1023C90.1723 50.151 90.156 50.1672 90.1397 50.1996C90.1234 50.2321 90.0908 50.2321 90.0419 50.2321H89.6509C89.602 50.2321 89.5857 50.2158 89.5694 50.1996C89.5531 50.1834 89.5368 50.151 89.5368 50.1023V46.2096C89.5368 46.0312 89.5694 45.9014 89.6346 45.8041C89.6834 45.723 89.8138 45.6581 90.0093 45.6419C90.2701 45.6095 90.5145 45.5933 90.7426 45.5933C91.4107 45.5933 91.9809 45.7879 92.4372 46.1772C92.4861 46.2258 92.4861 46.2583 92.4535 46.3069L92.1602 46.6313Z" fill="black"/>
<path d="M94.6206 45.577C94.9628 45.577 95.2398 45.6257 95.4679 45.723C95.696 45.8203 95.9078 45.9501 96.0545 46.1285C96.2011 46.2907 96.3152 46.5015 96.3967 46.7448C96.4618 46.9881 96.5107 47.2476 96.5107 47.5234C96.5107 47.7667 96.4618 47.9289 96.3478 47.9937C96.2337 48.0748 96.1034 48.1073 95.9404 48.1073H93.2845C93.2845 48.3992 93.3333 48.6587 93.3985 48.8696C93.4637 49.0805 93.5778 49.2426 93.7081 49.3724C93.8385 49.5022 93.9851 49.5995 94.1644 49.6481C94.3436 49.6968 94.5228 49.7292 94.7347 49.7292C94.9302 49.7292 95.1094 49.6968 95.2887 49.6644C95.4679 49.6157 95.6308 49.567 95.7449 49.5022C95.8101 49.4697 95.8752 49.4697 95.8915 49.5346L96.0382 49.8428C96.0708 49.9076 96.0545 49.9725 95.9893 49.9887C95.7938 50.1185 95.5657 50.1996 95.3375 50.232C95.0931 50.2807 94.8813 50.2969 94.6695 50.2969C94.034 50.2969 93.5452 50.1185 93.1704 49.7455C92.8119 49.3724 92.6327 48.7885 92.6327 47.9613C92.6327 47.572 92.6816 47.2314 92.7793 46.9395C92.8771 46.6475 93.0238 46.4042 93.1867 46.1934C93.3659 45.9987 93.5778 45.8528 93.8222 45.7392C94.0666 45.6419 94.3436 45.577 94.6206 45.577ZM95.8915 47.5883C95.8915 47.3936 95.8752 47.199 95.8427 47.0368C95.7938 46.8584 95.7286 46.6962 95.6308 46.5664C95.5331 46.4204 95.4027 46.3231 95.2398 46.242C95.0768 46.1609 94.865 46.1123 94.6043 46.1123C94.3925 46.1123 94.2132 46.1609 94.0666 46.2258C93.9199 46.3069 93.7733 46.4042 93.6592 46.5502C93.5452 46.6962 93.4637 46.8422 93.4148 47.0206C93.3659 47.199 93.317 47.3936 93.3008 47.6045L95.8915 47.5883Z" fill="black"/>
<path d="M97.2603 47.9937C97.2603 47.6693 97.3091 47.3612 97.3906 47.0692C97.4721 46.7773 97.6024 46.5178 97.7654 46.2907C97.9283 46.0636 98.1564 45.8852 98.4009 45.7554C98.6616 45.6095 98.9711 45.5608 99.3296 45.5608C99.4763 45.5608 99.6555 45.577 99.851 45.5932C100.047 45.6095 100.242 45.6419 100.454 45.723V44.0037C100.454 43.9551 100.47 43.9388 100.487 43.9064C100.503 43.8902 100.535 43.874 100.584 43.874H100.992C101.041 43.874 101.057 43.8902 101.073 43.9064C101.089 43.9226 101.106 43.9551 101.106 44.0037V49.8428C101.106 49.9076 101.073 49.9563 101.024 49.9887C100.731 50.1185 100.421 50.1996 100.112 50.232C99.8022 50.2807 99.5252 50.2807 99.2644 50.2807C98.9223 50.2807 98.6127 50.232 98.352 50.1347C98.1075 50.0212 97.8957 49.8752 97.7328 49.6806C97.5861 49.4859 97.4558 49.2426 97.3906 48.9507C97.2928 48.675 97.2603 48.3506 97.2603 47.9937ZM97.9283 47.9937C97.9283 48.3343 97.9609 48.5939 98.0261 48.8209C98.0913 49.048 98.189 49.2264 98.3194 49.3562C98.4497 49.5022 98.5964 49.5995 98.7593 49.6481C98.9386 49.6968 99.1341 49.7292 99.3459 49.7292C99.4111 49.7292 99.4926 49.7292 99.5903 49.713C99.6881 49.6968 99.7859 49.6968 99.8836 49.6806C99.9814 49.6643 100.079 49.6481 100.177 49.6319C100.275 49.5995 100.356 49.5833 100.421 49.5508V46.2907C100.177 46.2096 99.9814 46.1609 99.8022 46.1447C99.6392 46.1285 99.4763 46.1123 99.3459 46.1123C99.1341 46.1123 98.9386 46.1609 98.7593 46.2258C98.5801 46.2907 98.4171 46.4204 98.3031 46.5664C98.1727 46.7124 98.0587 46.907 97.9935 47.1503C97.9609 47.3936 97.9283 47.6693 97.9283 47.9937Z" fill="black"/>
<path d="M108.308 47.8802C108.308 48.2208 108.259 48.5452 108.177 48.8372C108.096 49.1291 107.966 49.3886 107.803 49.5995C107.64 49.8266 107.412 49.9888 107.167 50.1023C106.906 50.232 106.597 50.2807 106.238 50.2807C105.978 50.2807 105.701 50.2645 105.407 50.2321C105.114 50.1834 104.837 50.1185 104.576 50.005C104.511 49.9725 104.479 49.9401 104.479 49.859V44.02C104.479 43.9713 104.495 43.9551 104.511 43.9226C104.527 43.9064 104.56 43.8902 104.609 43.8902H105.016C105.065 43.8902 105.081 43.9064 105.114 43.9226C105.13 43.9389 105.147 43.9713 105.147 44.02V45.8041C105.326 45.7392 105.538 45.6906 105.782 45.6581C106.027 45.6095 106.222 45.6095 106.418 45.6095C106.76 45.6095 107.053 45.6581 107.281 45.7717C107.526 45.8852 107.721 46.0474 107.884 46.242C108.031 46.4529 108.161 46.68 108.226 46.9719C108.291 47.2476 108.308 47.5558 108.308 47.8802ZM105.114 49.5995C105.293 49.6644 105.489 49.713 105.701 49.7292C105.912 49.7617 106.075 49.7617 106.238 49.7617C106.45 49.7617 106.646 49.7292 106.809 49.6644C106.972 49.5995 107.135 49.486 107.249 49.34C107.379 49.194 107.477 48.9994 107.542 48.7723C107.607 48.529 107.656 48.2533 107.656 47.9451C107.656 47.345 107.526 46.907 107.297 46.6151C107.053 46.3069 106.727 46.1609 106.304 46.1609C106.189 46.1609 106.027 46.1772 105.782 46.2096C105.554 46.242 105.342 46.2907 105.114 46.3718V49.5995Z" fill="black"/>
<path d="M110.98 50.9457C110.833 51.3349 110.687 51.6107 110.491 51.7729C110.296 51.9189 110.051 52 109.742 52C109.66 52 109.562 51.9999 109.448 51.9837C109.334 51.9675 109.204 51.9351 109.057 51.9026C108.976 51.8702 108.943 51.8378 108.96 51.7729L109.041 51.4485C109.057 51.3998 109.074 51.3836 109.09 51.3836C109.106 51.3836 109.139 51.3836 109.171 51.3998C109.302 51.4323 109.383 51.4485 109.448 51.4485C109.497 51.4647 109.579 51.4647 109.644 51.4647C109.742 51.4647 109.823 51.4485 109.888 51.4323C109.953 51.416 110.035 51.3836 110.1 51.3512C110.149 51.3025 110.214 51.2538 110.263 51.1728C110.312 51.0917 110.361 50.9943 110.41 50.8646L110.67 50.1509H110.524C110.459 50.1509 110.393 50.1347 110.361 50.1185C110.312 50.086 110.263 50.0212 110.214 49.8914L108.829 45.7392C108.813 45.6905 108.829 45.6581 108.878 45.6581H109.351C109.399 45.6581 109.416 45.6581 109.432 45.6743C109.448 45.6905 109.465 45.7068 109.465 45.723C109.514 45.8527 109.562 46.0311 109.644 46.2582C109.725 46.5015 109.791 46.7448 109.888 46.9881C109.986 47.2314 110.051 47.4909 110.133 47.718C110.198 47.9613 110.279 48.1397 110.312 48.2532C110.328 48.3019 110.361 48.3992 110.393 48.529C110.442 48.6749 110.475 48.8047 110.524 48.9669C110.573 49.1129 110.605 49.2751 110.654 49.4048C110.703 49.5508 110.719 49.6481 110.736 49.6805H110.784C110.817 49.5832 110.85 49.4373 110.915 49.2913C110.964 49.1453 111.013 48.9831 111.061 48.8371C111.11 48.6912 111.159 48.5452 111.192 48.4316C111.241 48.3019 111.241 48.237 111.257 48.2046C111.273 48.1559 111.306 48.0586 111.371 47.8964C111.42 47.7342 111.501 47.5396 111.583 47.2963C111.664 47.053 111.746 46.8097 111.844 46.5339C111.941 46.2582 112.039 45.9825 112.137 45.7067C112.153 45.6743 112.169 45.6581 112.169 45.6419C112.186 45.6257 112.218 45.6094 112.251 45.6094H112.691C112.756 45.6094 112.772 45.6419 112.756 45.6905L110.98 50.9457Z" fill="black"/>
<path d="M118.329 49.9076C118.296 50.005 118.264 50.0861 118.198 50.1347C118.149 50.1834 118.084 50.1996 117.97 50.1996H117.661C117.547 50.1996 117.465 50.1834 117.416 50.1509C117.367 50.1023 117.318 50.0374 117.27 49.9239L115.282 44.247C115.249 44.1821 115.265 44.1497 115.331 44.1497H115.852C115.917 44.1497 115.966 44.1821 115.982 44.2308C115.982 44.2632 116.015 44.3443 116.064 44.4903C116.113 44.6363 116.178 44.8309 116.259 45.058C116.325 45.3013 116.406 45.5446 116.504 45.8203C116.602 46.096 116.699 46.3718 116.781 46.6475C116.879 46.9232 116.96 47.1827 117.058 47.4423C117.139 47.6856 117.221 47.8964 117.286 48.0748C117.302 48.1235 117.335 48.2046 117.367 48.3343C117.416 48.4803 117.465 48.6101 117.514 48.7723C117.563 48.9182 117.612 49.0642 117.661 49.2102C117.71 49.3562 117.742 49.4535 117.758 49.4859H117.807L118.247 48.091L119.567 44.2146C119.583 44.1659 119.616 44.1497 119.616 44.1335C119.632 44.1335 119.665 44.1172 119.714 44.1172H120.219C120.268 44.1172 120.284 44.1497 120.268 44.2146L118.329 49.9076Z" fill="black"/>
<path d="M121.799 44.4254C121.799 44.5552 121.75 44.6525 121.669 44.7336C121.588 44.8147 121.49 44.8633 121.359 44.8633C121.245 44.8633 121.131 44.8147 121.05 44.7336C120.968 44.6525 120.919 44.5552 120.919 44.4254C120.919 44.2957 120.968 44.1983 121.05 44.1172C121.131 44.0361 121.229 43.9875 121.359 43.9875C121.49 43.9875 121.588 44.0361 121.669 44.1172C121.75 44.1983 121.799 44.3119 121.799 44.4254ZM121.685 50.086C121.685 50.1347 121.669 50.1509 121.653 50.1834C121.636 50.1996 121.604 50.2158 121.555 50.2158H121.164C121.115 50.2158 121.099 50.1996 121.066 50.1834C121.05 50.1671 121.033 50.1347 121.033 50.086V45.7879C121.033 45.7392 121.05 45.723 121.066 45.6905C121.082 45.6743 121.115 45.6581 121.164 45.6581H121.555C121.604 45.6581 121.636 45.6743 121.653 45.6905C121.669 45.7068 121.685 45.7392 121.685 45.7879V50.086Z" fill="black"/>
<path d="M124.798 45.577C125.14 45.577 125.417 45.6257 125.645 45.723C125.889 45.8203 126.085 45.9501 126.231 46.1285C126.378 46.2907 126.492 46.5015 126.574 46.7448C126.639 46.9881 126.688 47.2476 126.688 47.5234C126.688 47.7667 126.639 47.9289 126.525 47.9937C126.411 48.0748 126.28 48.1073 126.117 48.1073H123.461C123.461 48.3992 123.51 48.6587 123.575 48.8696C123.641 49.0805 123.755 49.2426 123.885 49.3724C124.015 49.5022 124.162 49.5995 124.341 49.6481C124.521 49.6968 124.7 49.7292 124.912 49.7292C125.107 49.7292 125.286 49.6968 125.466 49.6644C125.645 49.6157 125.808 49.567 125.922 49.5022C125.987 49.4697 126.052 49.4697 126.068 49.5346L126.215 49.8428C126.248 49.9076 126.231 49.9725 126.166 49.9887C125.971 50.1185 125.743 50.1996 125.514 50.232C125.27 50.2807 125.058 50.2969 124.846 50.2969C124.211 50.2969 123.722 50.1185 123.347 49.7455C122.989 49.3724 122.81 48.7885 122.81 47.9613C122.81 47.572 122.859 47.2314 122.956 46.9395C123.054 46.6475 123.201 46.4042 123.364 46.1934C123.543 45.9987 123.755 45.8528 123.999 45.7392C124.244 45.6419 124.504 45.577 124.798 45.577ZM126.068 47.5883C126.068 47.3936 126.052 47.199 126.02 47.0368C125.971 46.8584 125.906 46.6962 125.808 46.5664C125.71 46.4204 125.58 46.3231 125.417 46.242C125.254 46.1609 125.042 46.1123 124.781 46.1123C124.569 46.1123 124.39 46.1609 124.244 46.2258C124.097 46.3069 123.95 46.4042 123.836 46.5502C123.722 46.6962 123.641 46.8422 123.592 47.0206C123.543 47.199 123.494 47.3936 123.478 47.6045L126.068 47.5883Z" fill="black"/>
<path d="M127.307 46.1771C127.258 46.1771 127.242 46.1609 127.225 46.1447C127.209 46.1285 127.209 46.096 127.209 46.0798V45.8689C127.209 45.8203 127.209 45.8041 127.225 45.7878C127.242 45.7716 127.274 45.7554 127.307 45.7392L127.991 45.6257L128.122 44.7985C128.122 44.7498 128.138 44.7174 128.154 44.7011C128.17 44.6849 128.203 44.6687 128.252 44.6525L128.496 44.5714C128.578 44.5552 128.627 44.5876 128.627 44.6687V45.6905H129.637C129.686 45.6905 129.702 45.7067 129.718 45.723C129.735 45.7392 129.735 45.7716 129.735 45.8041V46.096C129.735 46.1285 129.735 46.1447 129.718 46.1771C129.702 46.1933 129.669 46.2096 129.637 46.2096H128.627V49.0966C128.627 49.3075 128.676 49.4697 128.757 49.567C128.838 49.6806 129.001 49.713 129.262 49.713C129.327 49.713 129.425 49.713 129.572 49.6968C129.718 49.6805 129.816 49.6643 129.93 49.6481C129.979 49.6481 129.995 49.6481 130.012 49.6481C130.028 49.6643 130.028 49.6805 130.044 49.6968L130.109 50.0374C130.109 50.0698 130.126 50.086 130.109 50.1023C130.109 50.1185 130.077 50.1509 130.044 50.1509C129.881 50.1996 129.702 50.2158 129.539 50.2482C129.376 50.2645 129.23 50.2807 129.164 50.2807C128.936 50.2807 128.757 50.2482 128.61 50.2158C128.464 50.1671 128.35 50.1023 128.252 50.0049C128.154 49.9076 128.105 49.7941 128.056 49.6481C128.007 49.5021 128.007 49.3237 128.007 49.1291V46.1771H127.307Z" fill="black"/>
<path d="M130.452 46.1771C130.403 46.1771 130.386 46.1609 130.37 46.1447C130.354 46.1285 130.354 46.096 130.354 46.0798V45.8689C130.354 45.8203 130.354 45.8041 130.37 45.7878C130.386 45.7716 130.419 45.7554 130.452 45.7392L131.136 45.6257L131.266 44.7985C131.266 44.7498 131.283 44.7174 131.299 44.7011C131.315 44.6849 131.348 44.6687 131.397 44.6525L131.641 44.5714C131.723 44.5552 131.771 44.5876 131.771 44.6687V45.6905H132.782C132.831 45.6905 132.847 45.7067 132.863 45.723C132.879 45.7392 132.879 45.7716 132.879 45.8041V46.096C132.879 46.1285 132.879 46.1447 132.863 46.1771C132.847 46.1933 132.814 46.2096 132.782 46.2096H131.771V49.0966C131.771 49.3075 131.82 49.4697 131.902 49.567C131.983 49.6806 132.146 49.713 132.407 49.713C132.472 49.713 132.57 49.713 132.716 49.6968C132.863 49.6805 132.961 49.6643 133.075 49.6481C133.124 49.6481 133.14 49.6481 133.156 49.6481C133.173 49.6643 133.173 49.6805 133.189 49.6968L133.254 50.0374C133.254 50.0698 133.27 50.086 133.254 50.1023C133.254 50.1185 133.222 50.1509 133.189 50.1509C133.026 50.1996 132.847 50.2158 132.684 50.2482C132.521 50.2645 132.374 50.2807 132.309 50.2807C132.081 50.2807 131.902 50.2482 131.755 50.2158C131.608 50.1671 131.494 50.1023 131.397 50.0049C131.299 49.9076 131.25 49.7941 131.201 49.6481C131.152 49.5021 131.152 49.3237 131.152 49.1291V46.1771H130.452Z" fill="black"/>
<path d="M135.649 45.577C135.992 45.577 136.269 45.6257 136.497 45.723C136.741 45.8203 136.937 45.9501 137.083 46.1285C137.23 46.2907 137.344 46.5015 137.425 46.7448C137.491 46.9881 137.54 47.2476 137.54 47.5234C137.54 47.7667 137.491 47.9289 137.377 47.9937C137.263 48.0748 137.132 48.1073 136.969 48.1073H134.313C134.313 48.3992 134.362 48.6587 134.427 48.8696C134.493 49.0805 134.607 49.2426 134.737 49.3724C134.867 49.5022 135.014 49.5995 135.193 49.6481C135.372 49.6968 135.552 49.7292 135.763 49.7292C135.959 49.7292 136.138 49.6968 136.317 49.6644C136.497 49.6157 136.66 49.567 136.774 49.5022C136.839 49.4697 136.904 49.4697 136.92 49.5346L137.067 49.8428C137.1 49.9076 137.083 49.9725 137.018 49.9887C136.823 50.1185 136.594 50.1996 136.366 50.232C136.138 50.2645 135.91 50.2969 135.698 50.2969C135.063 50.2969 134.574 50.1185 134.199 49.7455C133.841 49.3724 133.661 48.7885 133.661 47.9613C133.661 47.572 133.71 47.2314 133.808 46.9395C133.906 46.6475 134.053 46.4042 134.216 46.1934C134.395 45.9987 134.607 45.8528 134.851 45.7392C135.095 45.6419 135.356 45.577 135.649 45.577ZM136.937 47.5883C136.937 47.3936 136.92 47.199 136.888 47.0368C136.839 46.8584 136.774 46.6962 136.676 46.5664C136.578 46.4367 136.448 46.3231 136.285 46.242C136.122 46.1609 135.91 46.1123 135.649 46.1123C135.438 46.1123 135.258 46.1609 135.112 46.2258C134.965 46.3069 134.818 46.4042 134.704 46.5502C134.59 46.6962 134.509 46.8422 134.46 47.0206C134.411 47.199 134.362 47.3936 134.346 47.6045L136.937 47.5883Z" fill="black"/>
<path d="M139.967 50.151C139.951 50.1672 139.935 50.1834 139.902 50.1996C139.804 50.2483 139.707 50.2645 139.593 50.2807C139.479 50.2969 139.381 50.2969 139.299 50.2969C139.022 50.2969 138.843 50.232 138.729 50.0861C138.615 49.9401 138.582 49.7455 138.582 49.4697V44.02C138.582 43.9713 138.599 43.9551 138.615 43.9226C138.631 43.9064 138.664 43.8902 138.713 43.8902H139.104C139.153 43.8902 139.185 43.9064 139.202 43.9226C139.218 43.9389 139.234 43.9713 139.234 44.02V49.2751C139.234 49.4373 139.267 49.5508 139.299 49.6157C139.332 49.6806 139.43 49.713 139.544 49.713C139.593 49.713 139.658 49.713 139.707 49.6968C139.756 49.6968 139.804 49.6806 139.853 49.6806C139.919 49.6644 139.951 49.6968 139.951 49.7455L140 50.0212C139.984 50.0861 139.967 50.1347 139.967 50.151Z" fill="black"/>
<path d="M56.5084 19.642C52.0438 19.642 48.4427 23.2427 48.4265 27.6869C48.4265 28.579 49.1434 29.2926 50.0396 29.2926C50.9358 29.2926 51.6527 28.579 51.6527 27.6869C51.6527 25.0269 53.8198 22.8697 56.4921 22.8697C57.3883 22.8697 58.1052 22.156 58.1052 21.2639C58.1215 20.3719 57.4046 19.642 56.5084 19.642Z" fill="#EC1B2E"/>
<path d="M56.5084 13.219C48.4753 13.219 41.9739 19.7068 41.9739 27.7031C41.9739 33.2015 45.1024 38.2134 50.0396 40.6625V42.5765C50.0396 43.4685 50.7565 44.1822 51.6527 44.1822H61.3478C62.244 44.1822 62.9609 43.4685 62.9609 42.5765V40.6625C70.1467 37.1104 73.0796 28.4167 69.5112 21.2639C67.067 16.3332 62.0158 13.219 56.5084 13.219ZM60.7449 38.1161C60.142 38.3594 59.7346 38.9433 59.7346 39.6083V40.9545H53.2821V39.6083C53.2821 38.9595 52.8748 38.3594 52.2719 38.1161C46.4874 35.7804 43.6848 29.2277 46.0312 23.4698C48.3776 17.7118 54.9604 14.9221 60.7449 17.2577C66.5293 19.5933 69.3319 26.146 66.9856 31.904C65.845 34.7262 63.5801 36.9645 60.7449 38.1161Z" fill="#EC1B2E"/>
<path d="M61.3477 50.1996C62.2439 50.1996 62.9609 49.486 62.9609 48.5939C62.9609 47.7018 62.2439 46.9882 61.3477 46.9882H51.6527C50.7565 46.9882 50.0396 47.7018 50.0396 48.5939C50.0396 49.486 50.7565 50.1996 51.6527 50.1996H61.3477Z" fill="#EC1B2E"/>
<path d="M42.6909 6.84469C42.3487 6.50408 41.8925 6.30945 41.4036 6.30945C40.9148 6.30945 40.4586 6.50408 40.1164 6.84469C39.3994 7.55836 39.3994 8.70995 40.1164 9.40739L43.8966 13.1703C44.2388 13.5109 44.6951 13.7056 45.1839 13.7056C45.6727 13.7056 46.129 13.5109 46.4711 13.1703C47.1881 12.4567 47.1881 11.3051 46.4711 10.6076L42.6909 6.84469Z" fill="#EC1B2E"/>
<path d="M72.9003 6.84469C72.5582 6.50408 72.1019 6.30945 71.6131 6.30945C71.1243 6.30945 70.668 6.50408 70.3259 6.84469L66.5456 10.6076C66.2034 10.9483 66.0079 11.4024 66.0079 11.889C66.0079 12.3756 66.2034 12.8297 66.5456 13.1703C66.8878 13.5109 67.344 13.7056 67.8328 13.7056C68.3217 13.7056 68.7779 13.5109 69.1201 13.1703L72.9003 9.40739C73.2425 9.06678 73.4381 8.61263 73.4381 8.12604C73.4381 7.63945 73.2425 7.18531 72.9003 6.84469Z" fill="#EC1B2E"/>
<path d="M56.5084 0C55.4981 0 54.6834 0.810979 54.6834 1.81659V7.21772C54.6834 8.22333 55.4981 9.03431 56.5084 9.03431C57.5186 9.03431 58.3333 8.22333 58.3333 7.21772V1.81659C58.3333 0.810979 57.5186 0 56.5084 0Z" fill="#EC1B2E"/>
</svg>
