<svg width="25" height="25" viewBox="0 0 25 25" fill="none" xmlns="http://www.w3.org/2000/svg">
<g clip-path="url(#clip0_2186_18034)">
<path d="M20.5484 13.2174C21.2644 12.6054 21.7258 11.6547 21.7258 10.5881C21.7258 8.74649 20.3518 7.2482 18.6629 7.2482C16.9742 7.2482 15.6004 8.74649 15.6004 10.5881C15.6004 11.6541 16.0612 12.6043 16.7763 13.2162C16.0241 13.4741 15.3208 13.8868 14.7007 14.4388C13.6842 13.0692 12.3075 12.09 10.7769 11.6188C11.7544 10.8875 12.3972 9.66086 12.3972 8.2732C12.3972 6.03752 10.7293 4.21875 8.67909 4.21875C6.62892 4.21875 4.96102 6.03758 4.96102 8.2732C4.96102 9.65994 5.60292 10.8858 6.57938 11.6173C3.32766 12.6179 0.9375 15.8825 0.9375 19.7447C0.9375 20.0281 1.1482 20.2579 1.40812 20.2579H15.9501H24.4669C24.7268 20.2579 24.9375 20.0281 24.9375 19.7447C24.9375 16.6876 23.0897 14.0925 20.5484 13.2174ZM16.5417 10.5881C16.5417 9.31251 17.4932 8.27478 18.6629 8.27478C19.8327 8.27478 20.7845 9.31256 20.7845 10.5881C20.7845 11.8637 19.8327 12.9015 18.6629 12.9015C17.4933 12.9015 16.5417 11.8637 16.5417 10.5881ZM5.90231 8.2732C5.90231 6.60365 7.14797 5.24533 8.67909 5.24533C10.2102 5.24533 11.4559 6.60365 11.4559 8.2732C11.4559 9.94305 10.2102 11.3016 8.67909 11.3016C7.14797 11.3016 5.90231 9.94305 5.90231 8.2732ZM1.89487 19.2313C2.13736 15.3804 5.08753 12.3282 8.67909 12.3282C10.8864 12.3282 12.9637 13.5036 14.2388 15.4727C14.2395 15.4739 14.2404 15.475 14.2411 15.4763C14.2431 15.4793 14.2452 15.4822 14.2471 15.4853C14.963 16.5967 15.3792 17.8824 15.4634 19.2313H1.89487ZM16.4065 19.2313C16.3292 17.8219 15.9339 16.4709 15.2488 15.276C16.2065 14.4038 17.4047 13.9281 18.6629 13.9281C21.4451 13.9281 23.7361 16.2636 23.9753 19.2313H16.4065Z" fill="#EA0033"/>
<path d="M12.117 16.8984H8.68156C8.42164 16.8984 8.21094 17.1092 8.21094 17.3691C8.21094 17.6289 8.42164 17.8397 8.68156 17.8397H12.117C12.377 17.8397 12.5877 17.6289 12.5877 17.3691C12.5877 17.1092 12.377 16.8984 12.117 16.8984Z" fill="#EA0033"/>
<path d="M13.8999 16.8984C13.2943 16.8984 13.2933 17.8397 13.8999 17.8397C14.5056 17.8397 14.5066 16.8984 13.8999 16.8984Z" fill="#EA0033"/>
</g>
<defs>
<clipPath id="clip0_2186_18034">
<rect width="24" height="24" fill="white" transform="translate(0.9375 0.238281)"/>
</clipPath>
</defs>
</svg>
