<svg width="25" height="25" viewBox="0 0 25 25" fill="none" xmlns="http://www.w3.org/2000/svg">
<g clip-path="url(#clip0_2186_18036)">
<path d="M10.125 14.8633C10.3837 14.8633 10.5937 14.6533 10.5937 14.3945C10.5937 14.1358 10.3837 13.9258 10.125 13.9258C9.86627 13.9258 9.65625 14.1358 9.65625 14.3945C9.65625 14.6533 9.86627 14.8633 10.125 14.8633Z" fill="#EA0033"/>
<path d="M10.125 17.6758C10.3837 17.6758 10.5937 17.4658 10.5937 17.207C10.5937 16.9483 10.3837 16.7383 10.125 16.7383C9.86627 16.7383 9.65625 16.9483 9.65625 17.207C9.65625 17.4658 9.86627 17.6758 10.125 17.6758Z" fill="#EA0033"/>
<path d="M10.125 20.4883C10.3837 20.4883 10.5937 20.2783 10.5937 20.0195C10.5937 19.7608 10.3837 19.5508 10.125 19.5508C9.86627 19.5508 9.65625 19.7608 9.65625 20.0195C9.65625 20.2783 9.86627 20.4883 10.125 20.4883Z" fill="#EA0033"/>
<path d="M20.4375 24.2383C21.7298 24.2383 22.7812 23.1869 22.7812 21.8945V0.707031C22.7812 0.517517 22.667 0.346497 22.4919 0.273987C22.3167 0.201477 22.1151 0.241577 21.9811 0.37561L20.4375 1.91919L18.8939 0.37561C18.711 0.192505 18.4142 0.192505 18.2311 0.37561L16.6875 1.91919L15.1439 0.37561C14.961 0.192505 14.6642 0.192505 14.4811 0.37561L12.9375 1.91919L11.3939 0.37561C11.211 0.192505 10.9142 0.192505 10.7311 0.37561L9.1875 1.91919L7.64392 0.37561C7.50989 0.241577 7.30829 0.201477 7.13324 0.273987C6.95801 0.346497 6.84375 0.517517 6.84375 0.707031V18.6133H3.5625C3.30359 18.6133 3.09375 18.8231 3.09375 19.082V21.8945C3.09375 23.1869 4.14514 24.2383 5.4375 24.2383H20.4375ZM7.78125 1.83881L8.85608 2.91345C9.039 3.09656 9.33581 3.09656 9.51892 2.91345L11.0625 1.37006L12.6061 2.91345C12.789 3.09656 13.0858 3.09656 13.2689 2.91345L14.8125 1.37006L16.3561 2.91345C16.539 3.09656 16.8358 3.09656 17.0189 2.91345L18.5625 1.37006L20.1061 2.91345C20.289 3.09656 20.5858 3.09656 20.7689 2.91345L21.8437 1.83881V21.8945C21.8437 22.67 21.2129 23.3008 20.4375 23.3008H7.31122C7.6062 22.9087 7.78125 22.4217 7.78125 21.8945C7.78125 21.0837 7.78125 3.17291 7.78125 1.83881ZM4.03125 21.8945V19.5508H6.84375V21.8945C6.84375 22.67 6.21295 23.3008 5.4375 23.3008C4.66205 23.3008 4.03125 22.67 4.03125 21.8945Z" fill="#EA0033"/>
<path d="M14.8113 9.89453C14.6109 9.89453 14.3949 9.76855 14.2024 9.54004C14.036 9.34173 13.7403 9.3161 13.5422 9.48291C13.3439 9.64935 13.3184 9.94507 13.485 10.1432C13.7355 10.4413 14.0301 10.6491 14.3425 10.7537V11.3008C14.3425 11.5597 14.5524 11.7695 14.8113 11.7695C15.0702 11.7695 15.28 11.5597 15.28 11.3008V10.7515C15.8255 10.5579 16.2175 10.037 16.2175 9.42578C16.2175 8.65033 15.5867 8.01953 14.8113 8.01953C14.5527 8.01953 14.3425 7.80933 14.3425 7.55078C14.3425 7.29242 14.5527 7.08203 14.8113 7.08203C14.9773 7.08203 15.1526 7.16681 15.3183 7.32703C15.5043 7.5072 15.8011 7.50226 15.9811 7.31622C16.1611 7.13019 16.1562 6.83337 15.9701 6.65338C15.7323 6.42322 15.4942 6.29303 15.28 6.2218V5.67578C15.28 5.41687 15.0702 5.20703 14.8113 5.20703C14.5524 5.20703 14.3425 5.41687 14.3425 5.67578V6.22528C13.7969 6.41864 13.405 6.93976 13.405 7.55078C13.405 8.32623 14.0358 8.95703 14.8113 8.95703C15.0696 8.95703 15.28 9.16742 15.28 9.42578C15.28 9.68432 15.0696 9.89453 14.8113 9.89453Z" fill="#EA0033"/>
<path d="M12 14.8633H19.5C19.7589 14.8633 19.9687 14.6534 19.9687 14.3945C19.9687 14.1356 19.7589 13.9258 19.5 13.9258H12C11.7411 13.9258 11.5312 14.1356 11.5312 14.3945C11.5312 14.6534 11.7411 14.8633 12 14.8633Z" fill="#EA0033"/>
<path d="M12 17.6758H19.5C19.7589 17.6758 19.9687 17.4659 19.9687 17.207C19.9687 16.9481 19.7589 16.7383 19.5 16.7383H12C11.7411 16.7383 11.5312 16.9481 11.5312 17.207C11.5312 17.4659 11.7411 17.6758 12 17.6758Z" fill="#EA0033"/>
<path d="M12 20.4883H19.5C19.7589 20.4883 19.9687 20.2784 19.9687 20.0195C19.9687 19.7606 19.7589 19.5508 19.5 19.5508H12C11.7411 19.5508 11.5312 19.7606 11.5312 20.0195C11.5312 20.2784 11.7411 20.4883 12 20.4883Z" fill="#EA0033"/>
</g>
<defs>
<clipPath id="clip0_2186_18036">
<rect width="24" height="24" fill="white" transform="translate(0.9375 0.238281)"/>
</clipPath>
</defs>
</svg>
