<svg width="180" height="36" viewBox="0 0 180 36" fill="none" xmlns="http://www.w3.org/2000/svg">
<path d="M41.6377 8.28635H38.6491C37.4588 8.28635 36.4963 9.24886 36.4963 10.4393V32.6529C36.4963 33.8434 37.4588 34.8059 38.6491 34.8059H41.6377C42.8281 34.8059 43.7906 33.8434 43.7906 32.6529V10.4647C43.8159 9.24886 42.8281 8.28635 41.6377 8.28635Z" fill="white"/>
<path d="M30.8738 8.28635C28.9742 8.28635 27.404 9.42616 26.6188 11.0472L18.6408 27.967C18.4635 28.3723 18.0836 29.0309 17.7543 29.0309C17.4504 29.0309 17.0705 28.3723 16.8679 27.967L8.88982 11.0472C8.10468 9.42616 6.5344 8.28635 4.63487 8.28635H0L12.6382 32.7796C13.8793 35.1858 16.4626 35.1352 17.7796 35.1352C19.6032 35.1352 21.7307 35.0339 22.8451 32.7796L35.4833 8.28635H30.8738Z" fill="white"/>
<path d="M170.528 4.23374C170.528 3.04328 169.565 2.08077 168.375 2.08077H165.386C164.196 2.08077 163.233 3.04328 163.233 4.23374V26.1687C163.233 29.5122 164.424 31.4878 166.551 32.8809C168.628 34.2234 170.984 34.8313 175.441 34.8313H177.847C179.038 34.8313 180 33.8688 180 32.6783V30.3227H178.176C176.859 30.3227 174.099 30.272 172.478 29.1829C170.35 27.7898 170.528 25.2822 170.528 23.4838V4.23374Z" fill="white"/>
<path d="M123.672 30.3225C122.355 30.3225 119.595 30.2719 117.974 29.1827C115.846 27.7896 116.024 25.282 116.024 23.4837V12.7948H123.115C124.306 12.7948 125.268 11.8323 125.268 10.6418V8.28623H115.998V4.23358C115.998 3.04311 115.036 2.08061 113.846 2.08061H110.857C109.667 2.08061 108.704 3.04311 108.704 4.23358V8.31156H93.4319V4.23358C93.4319 3.04311 92.4695 2.08061 91.2791 2.08061H88.2905C87.0748 2.05528 86.1123 3.04311 86.1123 4.23358V8.31156H81.5535V10.6672C81.5535 11.8576 82.5159 12.8201 83.7063 12.8201H86.1123V26.1939C86.1123 29.5627 87.3027 31.513 89.4302 32.9061C91.507 34.2485 93.8625 34.8564 98.32 34.8564H100.726C101.916 34.8564 102.879 33.8939 102.879 32.7035V30.3479H101.055C99.7384 30.3479 96.9777 30.2972 95.3568 29.208C93.2293 27.8149 93.4066 25.3074 93.4066 23.509V12.7948H108.679V26.1686C108.679 29.5373 109.869 31.4877 111.997 32.8808C114.074 34.2232 116.429 34.8311 120.887 34.8311H123.293C124.483 34.8311 125.445 33.8686 125.445 32.6781V30.3225H123.672Z" fill="white"/>
<path d="M78.8435 32.6782V30.3226H62.6341C59.9495 30.3226 56.8849 30.0187 55.9478 27.1818C55.6945 26.3713 55.5172 24.6743 55.5172 23.5344H74.7912C76.1082 23.5344 77.3492 23.3318 78.3623 22.5213C79.7299 21.4321 79.9326 19.8617 79.9326 18.5193C79.9326 15.1759 79.1221 11.8577 75.247 9.90741C72.1825 8.36233 68.1808 8.21036 64.3057 8.21036C61.1652 8.21036 55.5425 8.21036 51.9208 10.7179C48.299 13.2255 47.9697 16.8729 47.9697 21.8374C47.9697 25.3328 48.147 29.0055 50.3505 31.5131C53.1111 34.6033 57.1128 34.8565 60.4813 34.8565H76.716C77.8811 34.8312 78.8435 33.8687 78.8435 32.6782ZM72.3344 17.4555C72.3344 18.1647 72.1571 19.0005 70.7135 19.0005H60.304C57.67 19.0005 55.5172 20.2163 55.5172 21.7108V19.0005C55.5679 17.2528 55.5172 15.8091 57.0115 14.4413C59.0124 12.6429 62.0263 12.6936 63.9511 12.6936C66.028 12.6936 68.3834 12.7949 70.2069 13.8841C71.2707 14.5426 72.3344 15.8091 72.3344 17.4555Z" fill="white"/>
<path d="M158.016 32.6782V30.3226H141.807C139.122 30.3226 136.057 30.0187 135.12 27.1818C134.867 26.3713 134.69 24.6743 134.69 23.5344H153.964C155.281 23.5344 156.522 23.3318 157.535 22.5213C158.902 21.4321 159.105 19.8617 159.105 18.5193C159.105 15.1759 158.294 11.8577 154.419 9.90741C151.355 8.36233 147.353 8.21036 143.478 8.21036C140.338 8.21036 134.715 8.21036 131.093 10.7179C127.471 13.2255 127.142 16.8729 127.142 21.8374C127.142 25.3328 127.319 29.0055 129.523 31.5131C132.283 34.6033 136.285 34.8565 139.654 34.8565H155.888C157.053 34.8312 158.016 33.8687 158.016 32.6782ZM151.507 17.4555C151.507 18.1647 151.33 19.0005 149.886 19.0005H139.476C136.817 19.0005 134.69 20.2163 134.69 21.7108V19.0005C134.74 17.2528 134.69 15.8091 136.184 14.4413C138.185 12.6429 141.199 12.6936 143.124 12.6936C145.2 12.6936 147.556 12.7949 149.379 13.8841C150.443 14.5426 151.507 15.8091 151.507 17.4555Z" fill="white"/>
<path d="M41.6377 0.864738H38.6491C37.4588 0.864738 36.4963 1.82724 36.4963 3.01771V3.62561V8.28616H36.5217C36.7243 7.07036 38.1173 5.77858 40.1434 5.77858H41.6377C42.8281 5.77858 43.7906 4.81607 43.7906 3.62561V3.01771C43.8159 1.82724 42.8281 0.864738 41.6377 0.864738Z" fill="white"/>
</svg>
