<svg width="148" height="33" viewBox="0 0 148 33" fill="none" xmlns="http://www.w3.org/2000/svg">
<path d="M0.704425 32.5332L6.02443 2.0832H8.75443L3.43443 32.5332H0.704425ZM30.8482 8.52539V9.41406H33.5826V17.7197H31.1558V19.1211H33.5826V28.1445H30.8482V29.0332H40.4185C43.5402 29.0332 46.1037 28.0648 48.1089 26.1279C50.0458 24.2367 51.0142 21.7871 51.0142 18.7793C51.0142 14.8828 49.5786 12.0231 46.7076 10.2002C44.9302 9.08366 42.8566 8.52539 40.4868 8.52539H30.8482ZM40.4185 9.41406C43.8137 9.41406 45.9556 11.0091 46.8443 14.1992C47.1861 15.4525 47.357 16.9336 47.357 18.6426C47.3342 24.9544 45.0441 28.1217 40.4868 28.1445H36.8638V19.1211H40.8628V17.7197H36.8638V9.41406H40.4185ZM66.0924 7.8232C65.509 7.42654 64.914 6.99487 64.3074 6.5282C63.7007 6.0382 63.094 5.52487 62.4874 4.9882C61.8807 5.52487 61.274 6.0382 60.6674 6.5282C60.0607 6.99487 59.4657 7.42654 58.8824 7.8232H57.1674V7.4032C57.564 6.95987 57.9724 6.4932 58.3924 6.0032C58.8357 5.5132 59.2674 5.01154 59.6874 4.4982C60.1307 3.96154 60.5274 3.43654 60.8774 2.9232H64.0974C64.4707 3.43654 64.8674 3.96154 65.2874 4.4982C65.7074 5.01154 66.1274 5.5132 66.5474 6.0032C66.9907 6.4932 67.4107 6.95987 67.8074 7.4032V7.8232H66.0924ZM66.4424 4.0782C66.909 3.49487 67.294 2.9582 67.5974 2.4682C67.9007 1.9782 68.239 1.35987 68.6124 0.613202H71.6924V0.963202C71.179 1.63987 70.619 2.28153 70.0124 2.8882C69.4057 3.47153 68.799 4.0082 68.1924 4.4982H66.4424V4.0782ZM62.8374 9.9582C65.124 9.9582 66.8157 10.4599 67.9124 11.4632C69.009 12.4665 69.5574 14.0649 69.5574 16.2582V29.0332H67.3174L66.7224 26.3732H66.5824C66.0457 27.0499 65.4857 27.6215 64.9024 28.0882C64.3424 28.5315 63.689 28.8582 62.9424 29.0682C62.219 29.2782 61.3324 29.3832 60.2824 29.3832C59.1624 29.3832 58.1474 29.1849 57.2374 28.7882C56.3507 28.3915 55.6507 27.7849 55.1374 26.9682C54.624 26.1282 54.3674 25.0782 54.3674 23.8182C54.3674 21.9515 55.1024 20.5165 56.5724 19.5132C58.0424 18.4865 60.3057 17.9265 63.3624 17.8332L66.5474 17.7282V16.6082C66.5474 15.0449 66.209 13.9599 65.5324 13.3532C64.8557 12.7465 63.899 12.4432 62.6624 12.4432C61.6824 12.4432 60.749 12.5949 59.8624 12.8982C58.9757 13.1782 58.1474 13.5049 57.3774 13.8782L56.4324 11.5682C57.249 11.1249 58.2174 10.7515 59.3374 10.4482C60.4574 10.1215 61.624 9.9582 62.8374 9.9582ZM63.7474 19.9682C61.414 20.0615 59.7924 20.4349 58.8824 21.0882C57.9957 21.7415 57.5524 22.6632 57.5524 23.8532C57.5524 24.9032 57.8674 25.6732 58.4974 26.1632C59.1507 26.6532 59.979 26.8982 60.9824 26.8982C62.569 26.8982 63.8874 26.4665 64.9374 25.6032C65.9874 24.7165 66.5124 23.3632 66.5124 21.5432V19.8632L63.7474 19.9682ZM90.0132 28.1787H88.4068V14.4727H82.9038V15.3271H85.4673V22.9492C85.4445 24.9544 84.7381 26.4014 83.3482 27.29C82.7785 27.6546 82.1861 27.8369 81.5708 27.8369C79.7935 27.8369 78.7795 26.8799 78.5288 24.9658C78.4833 24.6696 78.4605 24.3734 78.4605 24.0771V14.4727H73.0259V15.3271H75.521V23.5645C75.5438 27.4154 77.173 29.3522 80.4087 29.375C82.1405 29.375 83.5533 28.6686 84.647 27.2559C85.0116 26.7773 85.3078 26.2533 85.5357 25.6836L85.7749 29.0332H90.8335C90.8335 28.5547 90.6854 28.2812 90.3892 28.2129C90.2753 28.1901 90.1499 28.1787 90.0132 28.1787ZM106.112 28.1787H104.71V20.6592C104.756 18.5856 105.462 17.0931 106.83 16.1816C107.422 15.8171 108.015 15.6348 108.607 15.6348C109.997 15.6348 110.92 16.2956 111.376 17.6172C111.535 18.1185 111.615 18.6654 111.615 19.2578V26.1621C111.615 27.1875 111.319 27.8027 110.726 28.0078C110.407 28.1217 109.917 28.1787 109.256 28.1787V29.0332H116.981C116.981 28.5319 116.81 28.2585 116.468 28.2129C116.377 28.1901 116.263 28.1787 116.126 28.1787H114.52V19.6338C114.52 17.2412 113.7 15.5892 112.059 14.6777C111.353 14.2904 110.601 14.0967 109.803 14.0967C108.117 14.0967 106.716 14.7803 105.599 16.1475C105.212 16.6032 104.904 17.1159 104.676 17.6855L104.54 14.4727H99.3443V15.3271H101.805V26.1621C101.805 27.2103 101.486 27.8369 100.848 28.042C100.506 28.1331 100.005 28.1787 99.3443 28.1787V29.0332H106.966C106.966 28.5319 106.795 28.2585 106.454 28.2129C106.362 28.1901 106.249 28.1787 106.112 28.1787ZM131.907 7.8232C131.324 7.42654 130.729 6.99487 130.122 6.5282C129.515 6.0382 128.909 5.52487 128.302 4.9882C127.695 5.52487 127.089 6.0382 126.482 6.5282C125.875 6.99487 125.28 7.42654 124.697 7.8232H122.982V7.4032C123.379 6.95987 123.787 6.4932 124.207 6.0032C124.65 5.5132 125.082 5.01154 125.502 4.4982C125.945 3.96154 126.342 3.43654 126.692 2.9232H129.912C130.285 3.43654 130.682 3.96154 131.102 4.4982C131.522 5.01154 131.942 5.5132 132.362 6.0032C132.805 6.4932 133.225 6.95987 133.622 7.4032V7.8232H131.907ZM132.257 4.0782C132.724 3.49487 133.109 2.9582 133.412 2.4682C133.715 1.9782 134.054 1.35987 134.427 0.613202H137.507V0.963202C136.994 1.63987 136.434 2.28153 135.827 2.8882C135.22 3.47153 134.614 4.0082 134.007 4.4982H132.257V4.0782ZM137.052 19.6182C137.052 21.1815 136.842 22.5699 136.422 23.7832C136.025 24.9732 135.442 25.9882 134.672 26.8282C133.925 27.6682 133.004 28.3099 131.907 28.7532C130.834 29.1732 129.632 29.3832 128.302 29.3832C127.065 29.3832 125.922 29.1732 124.872 28.7532C123.822 28.3099 122.912 27.6682 122.142 26.8282C121.372 25.9882 120.765 24.9732 120.322 23.7832C119.902 22.5699 119.692 21.1815 119.692 19.6182C119.692 17.5415 120.042 15.7915 120.742 14.3682C121.442 12.9215 122.445 11.8249 123.752 11.0782C125.059 10.3082 126.61 9.9232 128.407 9.9232C130.11 9.9232 131.604 10.3082 132.887 11.0782C134.194 11.8249 135.209 12.9215 135.932 14.3682C136.679 15.7915 137.052 17.5415 137.052 19.6182ZM122.877 19.6182C122.877 21.0882 123.064 22.3715 123.437 23.4682C123.834 24.5415 124.44 25.3699 125.257 25.9532C126.074 26.5365 127.112 26.8282 128.372 26.8282C129.632 26.8282 130.67 26.5365 131.487 25.9532C132.304 25.3699 132.899 24.5415 133.272 23.4682C133.669 22.3715 133.867 21.0882 133.867 19.6182C133.867 18.1249 133.669 16.8532 133.272 15.8032C132.875 14.7532 132.269 13.9482 131.452 13.3882C130.659 12.8049 129.62 12.5132 128.337 12.5132C126.424 12.5132 125.035 13.1432 124.172 14.4032C123.309 15.6632 122.877 17.4015 122.877 19.6182ZM147.059 28.1787H145.453V14.4727H139.95V15.3271H142.547V26.1621C142.547 27.2103 142.194 27.8369 141.488 28.042C141.146 28.1331 140.633 28.1787 139.95 28.1787V29.0332H147.914C147.914 28.5319 147.743 28.2585 147.401 28.2129C147.31 28.1901 147.196 28.1787 147.059 28.1787ZM145.829 9.58496C145.829 8.76465 145.464 8.16081 144.735 7.77344C144.439 7.63672 144.142 7.56836 143.846 7.56836C143.003 7.56836 142.399 7.94434 142.035 8.69629C141.898 8.99251 141.83 9.28874 141.83 9.58496C141.83 10.4508 142.217 11.0661 142.992 11.4307C143.265 11.5446 143.55 11.6016 143.846 11.6016C144.667 11.6016 145.259 11.2256 145.624 10.4736C145.76 10.1774 145.829 9.88118 145.829 9.58496Z" fill="white"/>
</svg>
