<svg width="24" height="24" viewBox="0 0 24 24" fill="none" xmlns="http://www.w3.org/2000/svg">
<path d="M6.97498 11.75C6.97498 11.6119 7.0869 11.5 7.22498 11.5H14.725C14.863 11.5 14.975 11.6119 14.975 11.75V13.25C14.975 13.3881 14.863 13.5 14.725 13.5H7.22498C7.0869 13.5 6.97498 13.3881 6.97498 13.25V11.75ZM8.97498 19.75C8.97498 19.6119 8.86305 19.5 8.72498 19.5H5.22498C5.0869 19.5 4.97498 19.3881 4.97498 19.25V3.75C4.97498 3.61193 5.0869 3.5 5.22498 3.5H11.725C11.863 3.5 11.975 3.61193 11.975 3.75V8.25C11.975 8.38807 12.0869 8.5 12.225 8.5H16.725C16.863 8.5 16.975 8.61193 16.975 8.75V10.9964C16.975 11.2192 17.2443 11.3307 17.4018 11.1732L18.9018 9.67322C18.9486 9.62634 18.975 9.56275 18.975 9.49645V7.60355C18.975 7.53725 18.9486 7.47366 18.9018 7.42678L13.0482 1.57322C13.0013 1.52634 12.9377 1.5 12.8714 1.5H4.97498C4.44454 1.5 3.93583 1.71071 3.56076 2.08579C3.18569 2.46086 2.97498 2.96957 2.97498 3.5V19.5C2.97498 20.0304 3.18569 20.5391 3.56076 20.9142C3.93583 21.2893 4.44454 21.5 4.97498 21.5H8.72498C8.86305 21.5 8.97498 21.3881 8.97498 21.25V19.75ZM6.97498 17.25C6.97498 17.3881 7.0869 17.5 7.22498 17.5H10.9714C11.0377 17.5 11.1013 17.4737 11.1482 17.4268L11.9018 16.6732C11.9486 16.6263 11.975 16.5628 11.975 16.4964V15.75C11.975 15.6119 11.863 15.5 11.725 15.5H7.22498C7.0869 15.5 6.97498 15.6119 6.97498 15.75V17.25ZM19.175 12.5C19.275 12.5 19.475 12.6 19.575 12.7L20.875 14C21.075 14.2 21.075 14.6 20.875 14.8L20.0518 15.6232C19.9541 15.7209 19.7958 15.7209 19.6982 15.6232L17.9518 13.8768C17.8541 13.7791 17.8541 13.6209 17.9518 13.5232L18.775 12.7C18.875 12.6 18.975 12.5 19.175 12.5ZM18.9982 16.2232C19.0958 16.3209 19.0958 16.4791 18.9982 16.5768L13.1482 22.4268C13.1013 22.4737 13.0377 22.5 12.9714 22.5H11.225C11.0869 22.5 10.975 22.3881 10.975 22.25V20.5036C10.975 20.4372 11.0013 20.3737 11.0482 20.3268L16.8982 14.4768C16.9958 14.3791 17.1541 14.3791 17.2518 14.4768L18.9982 16.2232Z" fill="white"/>
</svg>
