<svg width="14" height="14" viewBox="0 0 14 14" fill="none" xmlns="http://www.w3.org/2000/svg">
<g clip-path="url(#clip0_1222_46994)">
<path d="M10.946 13.5C10.6699 13.5 10.446 13.2761 10.446 13C10.446 12.7239 10.6699 12.5 10.946 12.5C11.2222 12.5 11.446 12.7239 11.446 13C11.446 13.2761 11.2222 13.5 10.946 13.5Z" stroke="white" stroke-linecap="round" stroke-linejoin="round"/>
<path d="M4.44605 13.5C4.16991 13.5 3.94604 13.2761 3.94604 13C3.94604 12.7239 4.16991 12.5 4.44605 12.5C4.7222 12.5 4.94605 12.7239 4.94605 13C4.94605 13.2761 4.7222 13.5 4.44605 13.5Z" stroke="white" stroke-linecap="round" stroke-linejoin="round"/>
<path d="M9.60449 6.5H6.60449" stroke="white" stroke-linecap="round" stroke-linejoin="round"/>
<path d="M8.10449 5V8" stroke="white" stroke-linecap="round" stroke-linejoin="round"/>
<path d="M0.5 0.5H3L3.26316 3M3.26316 3L3.90576 9.10468C3.95933 9.61363 4.3885 10 4.90026 10H11.2192C11.6781 10 12.0781 9.6877 12.1894 9.24254L13.4394 4.24254C13.5972 3.61139 13.1198 3 12.4692 3H3.26316Z" stroke="white" stroke-linecap="round" stroke-linejoin="round"/>
</g>
<defs>
<clipPath id="clip0_1222_46994">
<rect width="14" height="14" fill="white"/>
</clipPath>
</defs>
</svg>
