<svg width="24" height="24" viewBox="0 0 24 24" fill="none" xmlns="http://www.w3.org/2000/svg">
<path fill-rule="evenodd" clip-rule="evenodd" d="M1 2.5C1 2.22386 1.22386 2 1.5 2H19.8171C20.0932 2 20.3171 2.22386 20.3171 2.5V9.39474C20.3171 9.67089 20.0932 9.89474 19.8171 9.89474H18.6707C18.3946 9.89474 18.1707 9.67089 18.1707 9.39474V4.60528C18.1707 4.32914 17.9469 4.10528 17.6707 4.10528H16.5244C16.2482 4.10528 16.0244 4.32914 16.0244 4.60528V10.7106C16.0244 10.9867 15.8005 11.2106 15.5244 11.2106H14.3781C14.1019 11.2106 13.8781 10.9867 13.8781 10.7106V4.60528C13.8781 4.32914 13.6542 4.10528 13.3781 4.10528H12.2317C11.9556 4.10528 11.7317 4.32914 11.7317 4.60528V20.4474C11.7317 20.7235 11.5078 20.9474 11.2317 20.9474H1.5C1.22386 20.9474 1 20.7235 1 20.4474V2.5ZM3.64631 4.10528C3.37017 4.10528 3.14631 4.32914 3.14631 4.60528V18.3421C3.14631 18.6182 3.37017 18.8421 3.64631 18.8421H9.08534C9.36148 18.8421 9.58534 18.6182 9.58534 18.3421V4.60528C9.58534 4.32914 9.36148 4.10528 9.08534 4.10528H3.64631ZM23 10.9211C23 10.6449 22.7761 10.4211 22.5 10.4211H21.6534C21.5081 10.4211 21.3902 10.5389 21.3902 10.6842V10.6842C21.3902 10.8295 21.2724 10.9474 21.1271 10.9474H19.7439C19.4677 10.9474 19.2439 11.1712 19.2439 11.4474V11.7632C19.2439 12.0393 19.02 12.2632 18.7439 12.2632H13.3049C13.0287 12.2632 12.8049 12.487 12.8049 12.7632V19.6579C12.8049 19.9341 13.0287 20.1579 13.3049 20.1579H15.5244C15.8005 20.1579 16.0244 20.3818 16.0244 20.6579V20.9737C16.0244 21.2499 16.2482 21.4737 16.5244 21.4737H17.9076C18.0529 21.4737 18.1707 21.5915 18.1707 21.7369V21.7369C18.1707 21.8822 18.2885 22 18.4339 22H19.2805C19.5566 22 19.7805 21.7761 19.7805 21.5V20.3948C19.7805 20.1186 19.5566 19.8948 19.2805 19.8948H18.4339C18.2885 19.8948 18.1707 20.0126 18.1707 20.1579V20.1579C18.1707 20.3032 18.0529 20.4211 17.9076 20.4211H17.5976C17.3214 20.4211 17.0976 20.1972 17.0976 19.9211V18.8158C17.0976 18.5397 17.3214 18.3158 17.5976 18.3158H17.9076C18.0529 18.3158 18.1707 18.4336 18.1707 18.579V18.579C18.1707 18.7243 18.2885 18.8421 18.4339 18.8421H19.2805C19.5566 18.8421 19.7805 18.6182 19.7805 18.3421V17.2369C19.7805 16.9607 19.5566 16.7369 19.2805 16.7369H18.4339C18.2885 16.7369 18.1707 16.8547 18.1707 17V17C18.1707 17.1453 18.0529 17.2632 17.9076 17.2632H16.5244C16.2482 17.2632 16.0244 17.487 16.0244 17.7632V18.079C16.0244 18.3551 15.8005 18.579 15.5244 18.579H14.9146C14.6385 18.579 14.4146 18.3551 14.4146 18.079V14.3421C14.4146 14.066 14.6385 13.8421 14.9146 13.8421H18.7439C19.02 13.8421 19.2439 14.066 19.2439 14.3421V14.6579C19.2439 14.9341 19.4677 15.1579 19.7439 15.1579H21.1271C21.2724 15.1579 21.3902 15.2757 21.3902 15.4211V15.4211C21.3902 15.5664 21.5081 15.6842 21.6534 15.6842H22.5C22.7761 15.6842 23 15.4603 23 15.1842V14.079C23 13.8028 22.7761 13.579 22.5 13.579H21.6534C21.5081 13.579 21.3902 13.6968 21.3902 13.8421V13.8421C21.3902 13.9874 21.2724 14.1053 21.1271 14.1053H20.8171C20.5409 14.1053 20.3171 13.8814 20.3171 13.6053V12.5C20.3171 12.2239 20.5409 12 20.8171 12H21.1271C21.2724 12 21.3902 12.1178 21.3902 12.2632V12.2632C21.3902 12.4085 21.5081 12.5263 21.6534 12.5263H22.5C22.7761 12.5263 23 12.3025 23 12.0263V10.9211ZM8.51218 5.6579C8.51218 5.38175 8.28833 5.1579 8.01218 5.1579H4.71952C4.44337 5.1579 4.21951 5.38175 4.21951 5.6579V9.92108C4.21951 10.1972 4.44337 10.4211 4.71951 10.4211H8.01218C8.28833 10.4211 8.51218 10.1972 8.51218 9.92108V5.6579ZM4.21951 15.1316C4.21951 14.8554 4.44337 14.6316 4.71951 14.6316H4.79267C5.06881 14.6316 5.29267 14.8554 5.29267 15.1316V15.1842C5.29267 15.4603 5.06881 15.6842 4.79267 15.6842H4.71951C4.44337 15.6842 4.21951 15.4603 4.21951 15.1842V15.1316ZM8.51218 15.1316C8.51218 14.8554 8.28833 14.6316 8.01218 14.6316H7.93903C7.66289 14.6316 7.43903 14.8554 7.43903 15.1316V15.1842C7.43903 15.4603 7.66289 15.6842 7.93903 15.6842H8.01218C8.28833 15.6842 8.51218 15.4603 8.51218 15.1842V15.1316ZM5.82927 13.0263C5.82927 12.7502 6.05313 12.5263 6.32927 12.5263H6.40243C6.67857 12.5263 6.90243 12.7502 6.90243 13.0263V13.079C6.90243 13.3551 6.67857 13.579 6.40243 13.579H6.32927C6.05313 13.579 5.82927 13.3551 5.82927 13.079V13.0263ZM6.90243 17.2369C6.90243 16.9607 6.67857 16.7369 6.40243 16.7369H6.32927C6.05313 16.7369 5.82927 16.9607 5.82927 17.2369V17.2895C5.82927 17.5656 6.05313 17.7895 6.32927 17.7895H6.40243C6.67857 17.7895 6.90243 17.5656 6.90243 17.2895V17.2369Z" fill="white"/>
</svg>
