<svg width="25" height="25" viewBox="0 0 25 25" fill="none" xmlns="http://www.w3.org/2000/svg">
<g clip-path="url(#clip0_413_927)">
<path d="M10.124 15.1484C10.3828 15.1484 10.5928 14.9384 10.5928 14.6797C10.5928 14.421 10.3828 14.2109 10.124 14.2109C9.8653 14.2109 9.65527 14.421 9.65527 14.6797C9.65527 14.9384 9.8653 15.1484 10.124 15.1484Z" fill="white"/>
<path d="M10.124 17.9609C10.3828 17.9609 10.5928 17.7509 10.5928 17.4922C10.5928 17.2335 10.3828 17.0234 10.124 17.0234C9.8653 17.0234 9.65527 17.2335 9.65527 17.4922C9.65527 17.7509 9.8653 17.9609 10.124 17.9609Z" fill="white"/>
<path d="M10.124 20.7734C10.3828 20.7734 10.5928 20.5634 10.5928 20.3047C10.5928 20.046 10.3828 19.8359 10.124 19.8359C9.8653 19.8359 9.65527 20.046 9.65527 20.3047C9.65527 20.5634 9.8653 20.7734 10.124 20.7734Z" fill="white"/>
<path d="M20.4365 24.5234C21.7289 24.5234 22.7803 23.472 22.7803 22.1797V0.992187C22.7803 0.802673 22.666 0.631653 22.491 0.559143C22.3157 0.486633 22.1141 0.526733 21.9801 0.660767L20.4365 2.20434L18.8929 0.660767C18.71 0.477661 18.4132 0.477661 18.2301 0.660767L16.6865 2.20434L15.1429 0.660767C14.96 0.477661 14.6632 0.477661 14.4801 0.660767L12.9365 2.20434L11.3929 0.660767C11.21 0.477661 10.9132 0.477661 10.7301 0.660767L9.18652 2.20434L7.64294 0.660767C7.50891 0.526733 7.30731 0.486633 7.13226 0.559143C6.95703 0.631653 6.84277 0.802673 6.84277 0.992187V18.8984H3.56152C3.30261 18.8984 3.09277 19.1083 3.09277 19.3672V22.1797C3.09277 23.472 4.14416 24.5234 5.43652 24.5234H20.4365ZM7.78027 2.12396L8.8551 3.19861C9.03802 3.38171 9.33484 3.38171 9.51794 3.19861L11.0615 1.65521L12.6051 3.19861C12.788 3.38171 13.0848 3.38171 13.2679 3.19861L14.8115 1.65521L16.3551 3.19861C16.538 3.38171 16.8348 3.38171 17.0179 3.19861L18.5615 1.65521L20.1051 3.19861C20.288 3.38171 20.5848 3.38171 20.7679 3.19861L21.8428 2.12396V22.1797C21.8428 22.9551 21.212 23.5859 20.4365 23.5859H7.31024C7.60522 23.1939 7.78027 22.7068 7.78027 22.1797C7.78027 21.3689 7.78027 3.45807 7.78027 2.12396ZM4.03027 22.1797V19.8359H6.84277V22.1797C6.84277 22.9551 6.21197 23.5859 5.43652 23.5859C4.66107 23.5859 4.03027 22.9551 4.03027 22.1797Z" fill="white"/>
<path d="M14.8118 10.1797C14.6114 10.1797 14.3954 10.0537 14.2029 9.82519C14.0365 9.62689 13.7408 9.60126 13.5426 9.76806C13.3443 9.93451 13.3189 10.2302 13.4855 10.4283C13.736 10.7264 14.0306 10.9343 14.343 11.0388V11.5859C14.343 11.8448 14.5528 12.0547 14.8118 12.0547C15.0707 12.0547 15.2805 11.8448 15.2805 11.5859V11.0366C15.826 10.8431 16.218 10.3221 16.218 9.71094C16.218 8.93548 15.5872 8.30469 14.8118 8.30469C14.5532 8.30469 14.343 8.09448 14.343 7.83594C14.343 7.57757 14.5532 7.36719 14.8118 7.36719C14.9778 7.36719 15.1531 7.45196 15.3188 7.61218C15.5048 7.79236 15.8016 7.78741 15.9816 7.60138C16.1616 7.41534 16.1567 7.11853 15.9706 6.93854C15.7328 6.70837 15.4947 6.57819 15.2805 6.50696V5.96094C15.2805 5.70203 15.0707 5.49219 14.8118 5.49219C14.5528 5.49219 14.343 5.70203 14.343 5.96094V6.51044C13.7973 6.7038 13.4055 7.22491 13.4055 7.83594C13.4055 8.61139 14.0363 9.24219 14.8118 9.24219C15.0701 9.24219 15.2805 9.45257 15.2805 9.71094C15.2805 9.96948 15.0701 10.1797 14.8118 10.1797Z" fill="white"/>
<path d="M11.999 15.1484H19.499C19.7579 15.1484 19.9678 14.9386 19.9678 14.6797C19.9678 14.4208 19.7579 14.2109 19.499 14.2109H11.999C11.7401 14.2109 11.5303 14.4208 11.5303 14.6797C11.5303 14.9386 11.7401 15.1484 11.999 15.1484Z" fill="white"/>
<path d="M11.999 17.9609H19.499C19.7579 17.9609 19.9678 17.7511 19.9678 17.4922C19.9678 17.2333 19.7579 17.0234 19.499 17.0234H11.999C11.7401 17.0234 11.5303 17.2333 11.5303 17.4922C11.5303 17.7511 11.7401 17.9609 11.999 17.9609Z" fill="white"/>
<path d="M11.999 20.7734H19.499C19.7579 20.7734 19.9678 20.5636 19.9678 20.3047C19.9678 20.0458 19.7579 19.8359 19.499 19.8359H11.999C11.7401 19.8359 11.5303 20.0458 11.5303 20.3047C11.5303 20.5636 11.7401 20.7734 11.999 20.7734Z" fill="white"/>
</g>
<defs>
<clipPath id="clip0_413_927">
<rect width="24" height="24" fill="white" transform="translate(0.936523 0.523438)"/>
</clipPath>
</defs>
</svg>
