<svg width="24" height="24" viewBox="0 0 24 24" fill="none" xmlns="http://www.w3.org/2000/svg">
<path d="M11.3061 2.28774L2.28726 11.3064C2.10333 11.4904 2 11.7398 2 12C2 12.2601 2.10333 12.5096 2.28726 12.6936L11.3066 21.7127C11.4906 21.8967 11.7401 22 12.0002 22C12.2604 22 12.5099 21.8967 12.6939 21.7127L21.7127 12.6941C21.8967 12.5101 22 12.2606 22 12.0005C22 11.7403 21.8967 11.4908 21.7127 11.3069L12.6934 2.28725C12.5094 2.10332 12.2599 2 11.9998 2C11.7396 2 11.4901 2.10332 11.3061 2.28725V2.28774Z" stroke="white" stroke-width="2" stroke-linejoin="round"/>
<path d="M8.9519 12.0001H14.8386M11.8952 9.05688V14.9434" stroke="white" stroke-width="2" stroke-linecap="round"/>
</svg>
