<svg width="25" height="25" viewBox="0 0 25 25" fill="none" xmlns="http://www.w3.org/2000/svg">
<g clip-path="url(#clip0_413_910)">
<path d="M21.9215 2.91747H19.582V0.755127C19.582 0.496236 19.3721 0.286377 19.1132 0.286377H3.95117C3.69233 0.286377 3.48242 0.496236 3.48242 0.755127V21.1867C3.48242 21.4456 3.69233 21.6555 3.95117 21.6555H6.7693V23.8176C6.7693 24.0765 6.9792 24.2864 7.23805 24.2864H21.9215C22.1803 24.2864 22.3903 24.0765 22.3903 23.8176V3.38622C22.3903 3.12733 22.1804 2.91747 21.9215 2.91747ZM4.41992 1.22388H18.6444V20.7178L4.41992 20.7179V1.22388ZM21.4528 23.3489H7.70684V21.6555H19.1132C19.3687 21.6555 19.5822 21.442 19.5822 21.1866V3.85497H21.4528V23.3489Z" fill="white"/>
<path d="M12.7363 4.85034H16.1095C16.3683 4.85034 16.5782 4.64048 16.5782 4.38159C16.5782 4.1227 16.3683 3.91284 16.1095 3.91284H12.7363C12.4775 3.91284 12.2676 4.1227 12.2676 4.38159C12.2676 4.64048 12.4775 4.85034 12.7363 4.85034Z" fill="white"/>
<path d="M12.7363 7.99561H16.1095C16.3683 7.99561 16.5782 7.78575 16.5782 7.52686C16.5782 7.26796 16.3683 7.05811 16.1095 7.05811H12.7363C12.4775 7.05811 12.2676 7.26796 12.2676 7.52686C12.2676 7.78575 12.4775 7.99561 12.7363 7.99561Z" fill="white"/>
<path d="M12.7363 11.1887H16.1095C16.3683 11.1887 16.5782 10.9789 16.5782 10.72C16.5782 10.4611 16.3683 10.2512 16.1095 10.2512H12.7363C12.4775 10.2512 12.2676 10.4611 12.2676 10.72C12.2676 10.9789 12.4775 11.1887 12.7363 11.1887Z" fill="white"/>
<path d="M7.0752 14.334H16.1097C16.3686 14.334 16.5785 14.1241 16.5785 13.8652C16.5785 13.6063 16.3686 13.3965 16.1097 13.3965H7.0752C6.81635 13.3965 6.60645 13.6063 6.60645 13.8652C6.60645 14.1241 6.81635 14.334 7.0752 14.334Z" fill="white"/>
<path d="M13.9744 17.4792C14.2332 17.4792 14.4431 17.2694 14.4431 17.0105C14.4431 16.7516 14.2332 16.5417 13.9744 16.5417H7.0752C6.81635 16.5417 6.60645 16.7516 6.60645 17.0105C6.60645 17.2694 6.81635 17.4792 7.0752 17.4792H13.9744Z" fill="white"/>
<path d="M16.5422 16.8407C16.4439 16.605 16.1663 16.4892 15.93 16.5871C15.6943 16.6847 15.5786 16.9637 15.6764 17.1993C15.7743 17.435 16.0527 17.5507 16.2886 17.4529C16.5251 17.3547 16.6391 17.0772 16.5422 16.8407Z" fill="white"/>
<path d="M7.12549 10.9114C7.12549 11.2918 7.57779 11.5161 7.8807 11.2824L8.97945 10.4341L10.0787 11.2825C10.3811 11.516 10.8338 11.2925 10.8338 10.9114V7.51395C11.158 7.10811 11.3524 6.5944 11.3524 6.03579C11.3524 4.72733 10.2879 3.66284 8.9794 3.66284C7.67093 3.66284 6.60645 4.72733 6.60645 6.03579C6.60645 6.59459 6.80102 7.10848 7.1254 7.51437V10.9114H7.12549ZM9.2658 9.47084C9.09902 9.34208 8.85977 9.34217 8.69295 9.47089L8.06299 9.95726V8.22448C8.34513 8.34308 8.65474 8.40875 8.97949 8.40875C9.30434 8.40875 9.61413 8.34298 9.89637 8.22434V9.95745L9.2658 9.47084ZM8.97949 4.60034C9.77102 4.60034 10.415 5.24426 10.415 6.03579C10.415 6.80258 9.81063 7.43089 9.05327 7.46942C8.2473 7.50964 7.54404 6.84336 7.54404 6.03579C7.54404 5.24426 8.18796 4.60034 8.97949 4.60034Z" fill="white"/>
</g>
<defs>
<clipPath id="clip0_413_910">
<rect width="24" height="24" fill="white" transform="translate(0.936523 0.286377)"/>
</clipPath>
</defs>
</svg>
