<svg width="24" height="24" viewBox="0 0 24 24" fill="none" xmlns="http://www.w3.org/2000/svg">
<path d="M17.3334 2H6.66669C5.56212 2 4.66669 2.89543 4.66669 4V20C4.66669 21.1046 5.56212 22 6.66669 22H17.3334C18.4379 22 19.3334 21.1046 19.3334 20V4C19.3334 2.89543 18.4379 2 17.3334 2Z" stroke="white" stroke-width="1.5"/>
<path d="M9.33337 12.0001L14.6667 6.66675" stroke="white" stroke-width="1.5" stroke-linecap="round"/>
<path d="M10 8.00008C10.3682 8.00008 10.6667 7.7016 10.6667 7.33341C10.6667 6.96522 10.3682 6.66675 10 6.66675C9.63185 6.66675 9.33337 6.96522 9.33337 7.33341C9.33337 7.7016 9.63185 8.00008 10 8.00008Z" stroke="white" stroke-width="1.5"/>
<path d="M14 12.0001C14.3682 12.0001 14.6667 11.7016 14.6667 11.3334C14.6667 10.9652 14.3682 10.6667 14 10.6667C13.6319 10.6667 13.3334 10.9652 13.3334 11.3334C13.3334 11.7016 13.6319 12.0001 14 12.0001Z" stroke="white" stroke-width="1.5"/>
<path d="M8 16H16M8 18.6667H16" stroke="white" stroke-width="1.5" stroke-linecap="round"/>
</svg>
