<svg width="14" height="13" viewBox="0 0 14 13" fill="none" xmlns="http://www.w3.org/2000/svg">
<path d="M2 10.0621C1.86163 9.9746 1.72937 9.8761 1.60458 9.767C0.967092 9.2097 0.577086 8.42205 0.520362 7.57722C0.463638 6.7324 0.744843 5.89964 1.30212 5.26215C1.57805 4.94649 1.91345 4.68828 2.28918 4.50225C2.6649 4.31622 3.07359 4.20601 3.4919 4.17792C3.53532 4.17887 3.57809 4.16738 3.61519 4.1448C3.65228 4.12223 3.68214 4.08951 3.70123 4.05051C3.9898 3.21414 4.55638 2.50198 5.30647 2.03279C6.05657 1.5636 6.94484 1.36574 7.82316 1.4722C8.70148 1.57867 9.51675 1.98302 10.133 2.61783C10.7493 3.25264 11.1293 4.07954 11.2097 4.96063C11.2164 5.00702 11.2363 5.05052 11.2669 5.086C11.2976 5.12148 11.3377 5.14745 11.3826 5.16085C12.033 5.31407 12.6046 5.70045 12.9892 6.24681C13.3738 6.79317 13.5447 7.46159 13.4696 8.1255C13.3944 8.78942 13.0784 9.4027 12.5815 9.8493C12.4044 10.0084 12.2087 10.1424 12 10.2492" stroke="white" stroke-linecap="round" stroke-linejoin="round"/>
<path d="M8.10781 7.94604L5.89062 9.0546" stroke="white" stroke-linecap="round" stroke-linejoin="round"/>
<path d="M9 8.5C9.55228 8.5 10 8.05228 10 7.5C10 6.94772 9.55228 6.5 9 6.5C8.44772 6.5 8 6.94772 8 7.5C8 8.05228 8.44772 8.5 9 8.5Z" stroke="white" stroke-linecap="round" stroke-linejoin="round"/>
<path d="M5 10.5C5.55228 10.5 6 10.0523 6 9.5C6 8.94772 5.55228 8.5 5 8.5C4.44772 8.5 4 8.94772 4 9.5C4 10.0523 4.44772 10.5 5 10.5Z" stroke="white" stroke-linecap="round" stroke-linejoin="round"/>
<path d="M9 12.5C9.55228 12.5 10 12.0523 10 11.5C10 10.9477 9.55228 10.5 9 10.5C8.44772 10.5 8 10.9477 8 11.5C8 12.0523 8.44772 12.5 9 12.5Z" stroke="white" stroke-linecap="round" stroke-linejoin="round"/>
<path d="M5.89062 9.94531L8.10781 11.0539" stroke="white" stroke-linecap="round" stroke-linejoin="round"/>
</svg>
