<svg width="24" height="24" viewBox="0 0 24 24" fill="none" xmlns="http://www.w3.org/2000/svg">
<path d="M4.27273 22.2272C3.64773 22.2272 3.11288 22.0049 2.66818 21.5602C2.22348 21.1155 2.00076 20.5803 2 19.9545V4.04543C2 3.42043 2.22273 2.88558 2.66818 2.44089C3.11364 1.99619 3.64848 1.77346 4.27273 1.77271H11.0909C11.4129 1.77271 11.683 1.8818 11.9011 2.09998C12.1193 2.31816 12.228 2.58786 12.2273 2.90907C12.2265 3.23028 12.1174 3.50036 11.9 3.7193C11.6826 3.93823 11.4129 4.04695 11.0909 4.04543H4.27273V19.9545H11.0909C11.4129 19.9545 11.683 20.0636 11.9011 20.2818C12.1193 20.5 12.228 20.7697 12.2273 21.0909C12.2265 21.4121 12.1174 21.6822 11.9 21.9011C11.6826 22.1201 11.4129 22.2288 11.0909 22.2272H4.27273ZM18.108 13.1363H9.95455C9.63258 13.1363 9.36288 13.0272 9.14545 12.8091C8.92803 12.5909 8.81894 12.3212 8.81818 12C8.81742 11.6788 8.92652 11.4091 9.14545 11.1909C9.36439 10.9727 9.63409 10.8636 9.95455 10.8636H18.108L15.9773 8.73293C15.7689 8.5246 15.6648 8.26892 15.6648 7.96589C15.6648 7.66286 15.7689 7.3977 15.9773 7.17043C16.1856 6.94316 16.4508 6.8246 16.7727 6.81475C17.0947 6.8049 17.3693 6.91399 17.5966 7.14202L21.6591 11.2045C21.8864 11.4318 22 11.6969 22 12C22 12.303 21.8864 12.5682 21.6591 12.7954L17.5966 16.8579C17.3693 17.0852 17.0996 17.1943 16.7875 17.1852C16.4754 17.1761 16.2053 17.0576 15.9773 16.8295C15.7689 16.6022 15.6697 16.3326 15.6795 16.0204C15.6894 15.7083 15.7981 15.4477 16.0057 15.2386L18.108 13.1363Z" fill="white"/>
</svg>
