<svg width="180" height="36" viewBox="0 0 180 36" fill="none" xmlns="http://www.w3.org/2000/svg">
<path d="M41.638 8.28638H38.6494C37.459 8.28638 36.4966 9.24888 36.4966 10.4393V32.6529C36.4966 33.8434 37.459 34.8059 38.6494 34.8059H41.638C42.8284 34.8059 43.7908 33.8434 43.7908 32.6529V10.4647C43.8161 9.24888 42.8284 8.28638 41.638 8.28638Z" fill="white"/>
<path d="M30.8738 8.28638C28.9742 8.28638 27.404 9.42619 26.6188 11.0472L18.6408 27.9671C18.4635 28.3723 18.0836 29.0309 17.7543 29.0309C17.4504 29.0309 17.0705 28.3723 16.8679 27.9671L8.88982 11.0472C8.10468 9.42619 6.5344 8.28638 4.63487 8.28638H0L12.6382 32.7796C13.8793 35.1859 16.4626 35.1352 17.7796 35.1352C19.6032 35.1352 21.7307 35.0339 22.8451 32.7796L35.4833 8.28638H30.8738Z" fill="white"/>
<path d="M170.528 4.23378C170.528 3.04332 169.565 2.08081 168.375 2.08081H165.386C164.196 2.08081 163.233 3.04332 163.233 4.23378V26.1688C163.233 29.5122 164.424 31.4879 166.551 32.881C168.628 34.2234 170.984 34.8313 175.441 34.8313H177.847C179.038 34.8313 180 33.8688 180 32.6783V30.3227H178.176C176.859 30.3227 174.099 30.2721 172.478 29.1829C170.35 27.7898 170.528 25.2822 170.528 23.4839V4.23378Z" fill="white"/>
<path d="M123.673 30.3225C122.356 30.3225 119.595 30.2718 117.974 29.1827C115.847 27.7896 116.024 25.282 116.024 23.4836V12.7948H123.116C124.306 12.7948 125.268 11.8322 125.268 10.6418V8.28618H115.999V4.23353C115.999 3.04306 115.036 2.08055 113.846 2.08055H110.857C109.667 2.08055 108.704 3.04306 108.704 4.23353V8.31151H93.4321V4.23353C93.4321 3.04306 92.4697 2.08055 91.2793 2.08055H88.2907C87.075 2.05523 86.1126 3.04306 86.1126 4.23353V8.31151H81.5537V10.6671C81.5537 11.8576 82.5161 12.8201 83.7065 12.8201H86.1126V26.1938C86.1126 29.5626 87.303 31.5129 89.4305 32.906C91.5073 34.2485 93.8627 34.8564 98.3203 34.8564H100.726C101.917 34.8564 102.879 33.8939 102.879 32.7034V30.3478H101.056C99.7386 30.3478 96.9779 30.2971 95.357 29.208C93.2295 27.8149 93.4068 25.3073 93.4068 23.5089V12.7948H108.679V26.1685C108.679 29.5373 109.869 31.4876 111.997 32.8807C114.074 34.2231 116.429 34.831 120.887 34.831H123.293C124.483 34.831 125.446 33.8685 125.446 32.6781V30.3225H123.673Z" fill="white"/>
<path d="M78.8435 32.6783V30.3227H62.6341C59.9495 30.3227 56.8849 30.0188 55.9478 27.1819C55.6945 26.3714 55.5172 24.6743 55.5172 23.5345H74.7912C76.1082 23.5345 77.3492 23.3319 78.3623 22.5214C79.7299 21.4322 79.9326 19.8618 79.9326 18.5194C79.9326 15.1759 79.1221 11.8578 75.247 9.9075C72.1825 8.36242 68.1808 8.21045 64.3057 8.21045C61.1652 8.21045 55.5425 8.21045 51.9208 10.718C48.299 13.2256 47.9697 16.873 47.9697 21.8375C47.9697 25.3329 48.147 29.0056 50.3505 31.5132C53.1111 34.6033 57.1128 34.8566 60.4813 34.8566H76.716C77.8811 34.8313 78.8435 33.8688 78.8435 32.6783ZM72.3344 17.4556C72.3344 18.1648 72.1571 19.0006 70.7135 19.0006H60.304C57.67 19.0006 55.5172 20.2164 55.5172 21.7108V19.0006C55.5679 17.2529 55.5172 15.8092 57.0115 14.4414C59.0124 12.643 62.0263 12.6937 63.9511 12.6937C66.028 12.6937 68.3834 12.795 70.2069 13.8842C71.2707 14.5427 72.3344 15.8092 72.3344 17.4556Z" fill="white"/>
<path d="M158.016 32.6783V30.3227H141.807C139.122 30.3227 136.057 30.0188 135.12 27.1819C134.867 26.3714 134.69 24.6743 134.69 23.5345H153.964C155.281 23.5345 156.522 23.3319 157.535 22.5214C158.902 21.4322 159.105 19.8618 159.105 18.5194C159.105 15.1759 158.294 11.8578 154.419 9.9075C151.355 8.36242 147.353 8.21045 143.478 8.21045C140.338 8.21045 134.715 8.21045 131.093 10.718C127.471 13.2256 127.142 16.873 127.142 21.8375C127.142 25.3329 127.319 29.0056 129.523 31.5132C132.283 34.6033 136.285 34.8566 139.654 34.8566H155.888C157.053 34.8313 158.016 33.8688 158.016 32.6783ZM151.507 17.4556C151.507 18.1648 151.33 19.0006 149.886 19.0006H139.476C136.817 19.0006 134.69 20.2164 134.69 21.7108V19.0006C134.74 17.2529 134.69 15.8092 136.184 14.4414C138.185 12.643 141.199 12.6937 143.124 12.6937C145.2 12.6937 147.556 12.795 149.379 13.8842C150.443 14.5427 151.507 15.8092 151.507 17.4556Z" fill="white"/>
<path d="M41.638 0.864746H38.6494C37.459 0.864746 36.4966 1.82725 36.4966 3.01772V3.62562V8.28616H36.5219C36.7245 7.07037 38.1175 5.77859 40.1437 5.77859H41.638C42.8284 5.77859 43.7908 4.81608 43.7908 3.62562V3.01772C43.8161 1.82725 42.8284 0.864746 41.638 0.864746Z" fill="white"/>
</svg>
