<svg width="176" height="36" viewBox="0 0 176 36" fill="none" xmlns="http://www.w3.org/2000/svg">
<path d="M2.20573 1.1182C2.20573 0.908202 2.10073 0.803201 1.85573 0.803201H0.840734C0.595734 0.803201 0.490734 0.908202 0.490734 1.1182V32.4782C0.490734 32.6882 0.595734 32.7932 0.840734 32.7932H1.85573C2.10073 32.7932 2.20573 32.6882 2.20573 32.4782V1.1182ZM44.9243 28.0332C52.3093 28.0332 55.5993 22.9232 55.5993 15.6082C55.5993 8.1532 51.8193 3.4632 44.5743 3.4632L38.1693 3.4982C36.8043 3.4982 36.2793 4.0232 36.2793 5.3882V14.1382H34.5643C34.0393 14.1382 34.0043 14.3482 34.0043 14.7682V16.3782C34.0043 16.8332 34.0393 17.0082 34.5643 17.0082H36.2793V26.1432C36.2793 27.5082 36.8043 28.0332 38.1693 28.0332H44.9243ZM51.8543 15.6782C51.8543 20.8932 50.1743 24.7432 44.4693 24.7432H39.9893V17.0082H45.1693C45.6943 17.0082 45.7293 16.8332 45.7293 16.3782V14.7682C45.7293 14.3482 45.6943 14.1382 45.1693 14.1382H39.9893V6.7532H44.3643C50.1043 6.7532 51.8543 10.7432 51.8543 15.6782ZM69.1667 32.1282C69.1667 30.9732 68.1167 29.9582 66.9617 29.9582C65.7367 29.9582 64.7567 30.9732 64.7567 32.1282C64.7567 33.2832 65.7367 34.2982 66.9617 34.2982C68.1167 34.2982 69.1667 33.2832 69.1667 32.1282ZM74.3117 15.5032C74.3117 11.5482 72.2468 9.2732 67.4868 9.2732C65.6317 9.2732 63.0067 9.5532 61.1517 10.2882C60.8367 10.3932 60.7317 10.6382 60.8367 10.9532L61.2917 12.6682C61.3967 13.0882 61.6067 13.0882 62.0617 12.9482C63.1117 12.6682 65.2117 12.2482 66.8917 12.2482C70.1468 12.2482 70.8467 13.6132 70.8467 15.6782V16.3082H66.8567C60.9417 16.3082 59.0867 19.4932 59.0867 22.5732C59.0867 25.6882 60.6267 28.4182 66.7167 28.4182C68.9568 28.4182 71.6168 28.1732 73.7168 27.2282C74.1018 27.0532 74.3117 26.7032 74.3117 26.2132V15.5032ZM70.8118 24.9882C69.3767 25.4782 67.4517 25.5832 66.6818 25.5832C64.1617 25.5832 62.5517 24.8482 62.5517 22.5732C62.5517 19.4932 65.3867 19.2482 67.0667 19.2482H70.8118V24.9882ZM67.5567 7.8732C69.3767 7.8732 71.5468 6.7882 73.6468 4.0232C73.7517 3.8832 73.9267 3.6732 73.5067 3.2882L72.7368 2.6582C72.4918 2.4832 72.4218 2.3432 72.0018 2.7282C69.9717 4.8282 68.7118 5.2132 67.6967 5.2132C66.4017 5.2132 64.8267 4.2682 63.4267 2.8332C63.0417 2.5532 63.0417 2.4482 62.6217 2.7282L61.8517 3.3932C61.4667 3.7082 61.6417 3.9532 61.7467 4.0932C63.1467 6.0532 65.1417 7.8732 67.5567 7.8732ZM80.154 12.3882V23.5182C80.154 26.8782 81.484 28.4182 85.159 28.4182C85.859 28.4182 87.609 28.3832 89.044 27.9282C89.464 27.7882 89.394 27.5782 89.359 27.2982L89.009 25.4782C88.974 25.1982 88.869 25.0582 88.414 25.1632C87.714 25.2682 86.349 25.4082 85.754 25.4082C84.249 25.4082 83.584 24.8482 83.584 23.3082V12.3882H87.259C87.784 12.3882 87.819 12.2132 87.819 11.8282V10.2182C87.819 9.9032 87.784 9.6582 87.259 9.6582H83.584V5.3532C83.584 4.8282 83.374 4.7582 82.989 4.8632L81.694 5.3532C81.239 5.5282 81.064 5.5632 80.959 6.0882L80.364 9.4482L77.669 10.0082C77.214 10.1132 77.109 10.2882 77.109 10.6732V11.8282C77.109 12.1432 77.144 12.3882 77.669 12.3882H80.154ZM117.022 17.6382C117.022 12.4582 114.852 9.2732 109.637 9.2732C108.272 9.2732 106.487 9.4832 105.087 10.0082V3.0082C105.087 2.4832 104.912 2.4482 104.457 2.4482H102.287C101.867 2.4482 101.657 2.4832 101.657 3.0082V27.4732C101.657 27.9982 101.867 28.0332 102.287 28.0332H104.457C104.912 28.0332 105.087 27.9982 105.087 27.4732V12.9132C106.172 12.4582 107.677 12.2832 109.042 12.2832C112.052 12.2832 113.557 14.0682 113.557 17.6732V27.4732C113.557 27.9982 113.732 28.0332 114.187 28.0332H116.392C116.812 28.0332 117.022 27.9982 117.022 27.4732V17.6382ZM136.074 15.5032C136.074 11.5482 134.009 9.2732 129.249 9.2732C127.394 9.2732 124.769 9.5532 122.914 10.2882C122.599 10.3932 122.494 10.6382 122.599 10.9532L123.054 12.6682C123.159 13.0882 123.369 13.0882 123.824 12.9482C124.874 12.6682 126.974 12.2482 128.654 12.2482C131.909 12.2482 132.609 13.6132 132.609 15.6782V16.3082H128.619C122.704 16.3082 120.849 19.4932 120.849 22.5732C120.849 25.6882 122.389 28.4182 128.479 28.4182C130.719 28.4182 133.379 28.1732 135.479 27.2282C135.864 27.0532 136.074 26.7032 136.074 26.2132V15.5032ZM132.574 24.9882C131.139 25.4782 129.214 25.5832 128.444 25.5832C125.924 25.5832 124.314 24.8482 124.314 22.5732C124.314 19.4932 127.149 19.2482 128.829 19.2482H132.574V24.9882ZM130.964 6.5782C131.209 6.2982 131.209 6.1582 130.824 5.8782L125.784 2.1682C125.539 1.9932 125.329 1.8532 125.014 2.2382L123.404 4.4782C123.124 4.7582 123.229 4.9682 123.474 5.0732L129.424 7.7332C129.879 7.9082 130.054 7.8382 130.299 7.5932L130.964 6.5782ZM155.952 18.1282C155.952 11.7932 153.327 9.2732 147.342 9.2732C146.257 9.2732 144.017 9.4482 143.072 9.5532C141.112 9.8332 140.622 10.7782 140.622 12.4932V27.4732C140.622 27.9982 140.832 28.0332 141.252 28.0332H143.422C143.877 28.0332 144.052 27.9982 144.052 27.4732V12.5632C145.487 12.3182 146.537 12.3182 147.062 12.3182C151.367 12.3182 152.522 14.2432 152.522 18.2332V27.4732C152.522 27.9982 152.732 28.0332 153.152 28.0332H155.322C155.777 28.0332 155.952 27.9982 155.952 27.4732V18.1282ZM172.309 24.8832C170.594 25.4082 169.019 25.4782 168.179 25.4782C165.099 25.4782 163.314 23.2732 163.314 18.8982C163.314 14.0682 165.449 12.2132 168.564 12.2132C169.649 12.2132 171.049 12.3532 172.309 12.7382V24.8832ZM168.459 9.3082C162.474 9.3082 159.814 13.3682 159.814 19.1082C159.814 24.6032 162.264 28.4532 167.759 28.4532C168.984 28.4532 170.734 28.2082 172.239 27.7882V27.9632C172.239 31.0432 170.279 32.1982 166.254 32.7582C166.009 32.7932 165.869 32.9682 165.869 33.2482L166.149 35.4532C166.254 35.8382 166.394 35.8732 166.779 35.8382C172.799 34.9982 175.774 32.7232 175.774 26.4932V11.1982C175.774 10.8482 175.634 10.6032 175.319 10.4982C173.219 9.6232 170.699 9.3082 168.459 9.3082Z" fill="white"/>
</svg>
