<svg width="17" height="18" viewBox="0 0 17 18" fill="none" xmlns="http://www.w3.org/2000/svg">
<path d="M15.677 17.1511L9.415 10.8891C8.915 11.3151 8.34 11.6448 7.69 11.8781C7.04 12.1114 6.38667 12.2281 5.73 12.2281C4.12867 12.2281 2.77333 11.6738 1.664 10.5651C0.554667 9.45645 0 8.10145 0 6.50012C0 4.89878 0.554 3.54312 1.662 2.43312C2.77 1.32312 4.12467 0.767449 5.726 0.766116C7.32733 0.764782 8.68333 1.31945 9.794 2.43012C10.9047 3.54078 11.46 4.89645 11.46 6.49712C11.46 7.19178 11.337 7.86412 11.091 8.51412C10.845 9.16412 10.5217 9.72012 10.121 10.1821L16.383 16.4431L15.677 17.1511ZM5.731 11.2271C7.05767 11.2271 8.17767 10.7704 9.091 9.85712C10.0043 8.94378 10.461 7.82345 10.461 6.49612C10.461 5.16878 10.0043 4.04878 9.091 3.13612C8.17767 2.22345 7.05767 1.76678 5.731 1.76612C4.40433 1.76545 3.284 2.22212 2.37 3.13612C1.456 4.05012 0.999333 5.17012 1 6.49612C1.00067 7.82211 1.45733 8.94212 2.37 9.85612C3.28267 10.7701 4.40267 11.2268 5.73 11.2261" fill="#727272"/>
</svg>
