<svg width="25" height="25" viewBox="0 0 25 25" fill="none" xmlns="http://www.w3.org/2000/svg">
<g clip-path="url(#clip0_413_953)">
<path d="M24.3052 12.5219C24.3047 12.3528 24.2131 12.1971 24.0656 12.1145L20.0719 9.87692L24.0684 7.60263C24.2934 7.47457 24.372 7.1884 24.2439 6.9634C24.1158 6.73835 23.8297 6.65984 23.6046 6.78781L12.9363 12.8589L2.9839 7.1952L12.9364 1.53148L19.2889 5.14568C19.514 5.27365 19.8001 5.19509 19.9282 4.97004C20.0562 4.74504 19.9776 4.45882 19.7526 4.33081L13.1681 0.584744C13.0244 0.502994 12.8482 0.502994 12.7044 0.584791L1.80429 6.78781C1.65785 6.87115 1.56738 7.02673 1.56738 7.1952C1.56738 7.36371 1.65785 7.51924 1.80429 7.60259L5.80076 9.87687L1.80705 12.1144C1.65959 12.1971 1.56795 12.3528 1.56743 12.5218C1.56687 12.6909 1.65738 12.8472 1.80434 12.9308L5.80081 15.2051L1.8071 17.4427C1.65963 17.5253 1.56799 17.681 1.56748 17.8501C1.56691 18.0191 1.65743 18.1754 1.80438 18.2591L12.7046 24.4621C12.7764 24.503 12.8564 24.5235 12.9364 24.5235C13.0164 24.5235 13.0964 24.503 13.1682 24.4621L24.0683 18.2591C24.2153 18.1754 24.3057 18.0192 24.3052 17.8501C24.3047 17.681 24.2131 17.5253 24.0656 17.4427L20.0719 15.2051L24.0684 12.9308C24.2153 12.8472 24.3058 12.6909 24.3052 12.5219ZM22.8831 17.8548L12.9363 23.5153L2.98948 17.8548L6.75227 15.7466L12.7045 19.1338C12.7763 19.1748 12.8563 19.1952 12.9363 19.1952C13.0163 19.1952 13.0963 19.1748 13.1681 19.1338L19.1203 15.7466L22.8831 17.8548ZM12.9363 18.1871L2.98948 12.5266L6.75227 10.4184L12.7045 13.8057C12.7763 13.8466 12.8563 13.867 12.9363 13.867C13.0163 13.867 13.0963 13.8466 13.1681 13.8057L19.1203 10.4184L22.8831 12.5266L12.9363 18.1871Z" fill="white"/>
<path d="M21.3519 6.25662C21.1564 6.25662 20.9762 6.13015 20.9106 5.94574C20.8458 5.76387 20.9011 5.55546 21.0486 5.43059C21.2027 5.30018 21.4277 5.28443 21.5992 5.39009C21.7632 5.4911 21.8493 5.69107 21.8113 5.87974C21.7676 6.09607 21.5728 6.25662 21.3519 6.25662Z" fill="white"/>
</g>
<defs>
<clipPath id="clip0_413_953">
<rect width="24" height="24" fill="white" transform="translate(0.936523 0.523438)"/>
</clipPath>
</defs>
</svg>
